<svg width="13" height="8" viewBox="0 0 13 8" fill="none" xmlns="http://www.w3.org/2000/svg">
<path d="M6.87624 7.3914L11.9347 2.33296C12.0615 2.20618 12.1248 2.05405 12.1248 1.87656C12.1248 1.69907 12.0615 1.55962 11.9347 1.4582L11.5543 1.07786C11.4529 0.951084 11.3135 0.887695 11.136 0.887695C10.9585 0.887695 10.8064 0.951084 10.6796 1.07786L6.41984 5.3376L2.16011 1.07786C2.03333 0.951084 1.8812 0.887695 1.70371 0.887695C1.52622 0.887695 1.38677 0.951084 1.28534 1.07786L0.90501 1.4582C0.778233 1.55962 0.714844 1.69907 0.714844 1.87656C0.714844 2.05405 0.778233 2.20618 0.90501 2.33296L5.96344 7.3914C6.09022 7.51817 6.24235 7.58156 6.41984 7.58156C6.59733 7.58156 6.74947 7.51817 6.87624 7.3914Z" fill="#DB7137"/>
</svg>
