<svg width="20" height="21" viewBox="0 0 20 21" fill="none" xmlns="http://www.w3.org/2000/svg">
<g clip-path="url(#clip0_536_899)">
<path d="M10 0.970213C8.17778 0.970213 6.5 1.41466 4.96667 2.30355C3.43333 3.19244 2.22222 4.40355 1.33333 5.93688C0.444444 7.47021 0 9.14799 0 10.9702C0 12.7924 0.444444 14.4702 1.33333 16.0035C2.22222 17.5369 3.43333 18.748 4.96667 19.6369C6.5 20.5258 8.17778 20.9702 10 20.9702C11.9111 20.9702 13.6889 20.4591 15.3333 19.4369L14.6667 18.3702C13.2444 19.2591 11.6889 19.7035 10 19.7035C8.4 19.7035 6.93333 19.3147 5.6 18.5369C4.26667 17.7591 3.21111 16.7035 2.43333 15.3702C1.65556 14.0369 1.26667 12.5702 1.26667 10.9702C1.26667 9.37021 1.65556 7.90355 2.43333 6.57021C3.21111 5.23688 4.26667 4.18133 5.6 3.40355C6.93333 2.62577 8.4 2.23688 10 2.23688C11.6 2.23688 13.0667 2.62577 14.4 3.40355C15.7333 4.18133 16.7889 5.23688 17.5667 6.57021C18.3444 7.90355 18.7333 9.37021 18.7333 10.9702V11.5702C18.7333 12.1035 18.5556 12.5591 18.2 12.9369C17.8444 13.3147 17.4 13.5035 16.8667 13.5035C16.3333 13.5035 15.8889 13.3147 15.5333 12.9369C15.1778 12.5591 15 12.1035 15 11.5702V7.23688H13.7333V7.70355C13.2889 7.17021 12.7444 6.74799 12.1 6.43688C11.4556 6.12577 10.7556 5.97021 10 5.97021C9.11111 5.97021 8.27778 6.19244 7.5 6.63688C6.72222 7.08133 6.11111 7.69244 5.66667 8.47021C5.22222 9.24799 5 10.0813 5 10.9702C5 11.8591 5.22222 12.6924 5.66667 13.4702C6.11111 14.248 6.72222 14.8591 7.5 15.3035C8.27778 15.748 9.12222 15.9702 10.0333 15.9702C10.9444 15.9702 11.7778 15.7369 12.5333 15.2702C13.2889 14.8035 13.8889 14.1924 14.3333 13.4369C14.6444 13.8369 15.0222 14.148 15.4667 14.3702C15.9111 14.5924 16.3778 14.7035 16.8667 14.7035C17.7556 14.7035 18.5 14.4035 19.1 13.8035C19.7 13.2035 20 12.4591 20 11.5702V10.9702C20 9.14799 19.5556 7.47021 18.6667 5.93688C17.7778 4.40355 16.5667 3.19244 15.0333 2.30355C13.5 1.41466 11.8222 0.970213 10 0.970213ZM10 14.7035C8.97778 14.7035 8.1 14.3369 7.36667 13.6035C6.63333 12.8702 6.26667 11.9924 6.26667 10.9702C6.26667 9.94799 6.63333 9.07021 7.36667 8.33688C8.1 7.60355 8.97778 7.23688 10 7.23688C11.0222 7.23688 11.9 7.60355 12.6333 8.33688C13.3667 9.07021 13.7333 9.94799 13.7333 10.9702C13.7333 11.9924 13.3667 12.8702 12.6333 13.6035C11.9 14.3369 11.0222 14.7035 10 14.7035Z" fill="#DB7137"/>
</g>
<defs>
<clipPath id="clip0_536_899">
<rect width="20" height="20" fill="white" transform="matrix(1 0 0 -1 0 20.9702)"/>
</clipPath>
</defs>
</svg>
