<svg xmlns="http://www.w3.org/2000/svg" data-name="Layer 1" viewBox="0 0 856.4 984.2">
  <path fill="currentColor"
    d="m776 474 11-10 34-26a24 24 0 0 1 20-4 21 21 0 0 1 15 19c2 23-3 46-10 68a425 425 0 0 1-172 199c-27 16-57 29-88 37-39 10-79 12-119 6-31-5-60-13-86-29a153 153 0 0 1-31-26 18 18 0 0 0-5-3c-5-3-7-2-9 4l-11 49c-6 33-13 66-16 100-4 39-7 78-3 117v5l-3 4-4-3a133 133 0 0 1-1-20l2-63c0-13 0-25 2-37l9-64 6-35 2-13c1-2-1-3-1-5-2 1-5 1-5 3a23 23 0 0 0-3 8l-14 84a732 732 0 0 0-6 121l1 17v4a7 7 0 0 1-4 3l-3-3a494 494 0 0 1 0-76c1-13 0-27 2-40 3-28 6-57 11-84s12-52 19-78c1-6 1-7-5-8l-36-6a342 342 0 0 1-118-64c-19-15-37-30-52-47a355 355 0 0 1-95-189c-9-42-11-84-9-126 0-10 3-20 5-30 6-31 18-60 29-90l13-44 9-26c9-24 36-28 55-11 11 9 19 21 25 34l20 45 6 14 7-12 29-45c19-25 42-47 70-61 12-6 25-9 38-12l70-16c20-5 39-11 60-9a73 73 0 0 1 22 7c11 5 13 16 7 26l-2 3h8a226 226 0 0 1 58 6 232 232 0 0 1 89 41c6 5 11 9 21 2 11-7 24-3 35 1 24 10 42 26 53 50 14 31 32 60 53 87a183 183 0 0 1 36 124 201 201 0 0 1-17 82c-6 14-15 26-23 40l-2 4ZM615 323c-8 25-16 50-30 72a12 12 0 0 1 1-5c3-9 7-17 9-26 7-21 14-42 19-63 7-35-1-65-26-91-11-10-23-18-36-25l-17-11-5-2c-5 16-11 31-20 45a3 3 0 0 1 0-3l13-36c3-8 4-14 0-21l-2-5a40 40 0 0 0-25-24c-5-2-11-3-16-6-7-2-11 0-14 5l-37 47a56 56 0 0 1-5 6l-1-2c11-20 24-39 41-57-6-2-11 0-14 4-8 10-17 20-24 31-12 19-22 39-32 60l-14 27h-2c15-43 35-84 65-120h-4c-8 3-16 4-24 8l-61 30a25 25 0 0 0-12 12l-9 16-8 12h-2c3-11 10-21 15-31l-2-1-8 3c-17 7-34 14-48 26a183 183 0 0 0-66 134l2 83c-1 42-1 83 8 123a385 385 0 0 0 22 72l5 9a5 5 0 0 0 0-4 233 233 0 0 1-13-51c-6-33-7-65-2-98l6-45 14-52a461 461 0 0 1 26-70l4-5a5 5 0 0 1 1 4l-11 27c-17 43-29 87-34 133-2 18-2 37-3 55 0 41 7 81 25 119 7 14 14 29 27 39a163 163 0 0 0 23 16c10 5 21 9 33 5l17-5c29-10 54-26 77-46 37-32 66-71 90-113a594 594 0 0 0 34-71l5-9 1 1-2 9-25 53a475 475 0 0 1-54 86c-26 33-57 61-93 82-12 6-23 11-36 14l-12 4v2l11 1h15c19 1 37-3 55-10 31-12 57-33 80-58a421 421 0 0 0 70-105c16-34 34-68 42-105 6-25 9-50 2-74l-5-10-6 18-7 15-1-1c2-16 10-30 10-47Zm-469-13h-1c-3 23 2 45-4 68a10 10 0 0 1 0-5l-1-81-1-13h-1a45 45 0 0 0-1 5c-3 31-3 63 0 95l9 77a40 40 0 0 1 0 5h-2l-2-9-10-70c-4-30-5-60-3-90 3-27 3-53 3-80l1-30c3-22 3-44 0-66-2-13-5-24-12-35l-4-6v7l-2 28-1 5-2-1V74c0-3-1-6-5-7v41l-4 40h-2l-1-11V67c0-3 0-6-3-8-10-4-20-2-27 5a48 48 0 0 0-9 16l-14 47-28 82a251 251 0 0 0-13 85 511 511 0 0 0 10 93c6 30 14 60 26 88 9 23 22 44 38 64a525 525 0 0 0 59 66 32 32 0 0 0 3 2 4 4 0 0 0 0-3c-21-25-38-52-51-82a442 442 0 0 1-25-80 545 545 0 0 1-8-187l3-16h2v8c-5 43-4 86-1 130a438 438 0 0 0 29 131 310 310 0 0 0 119 148l9 4-16-20c-8-10-11-18-10-23 17 27 38 50 69 62-22-15-38-35-50-58s-22-47-23-73a7 7 0 0 1 2 3c7 18 13 38 21 56 10 25 25 47 48 63l21 12c2 1 4 0 6-1l-1-4a54 54 0 0 0-6-7c-24-28-43-59-53-95-9-32-15-65-18-98-4-36-13-70-31-102l-28-55-4-10Zm456 270v-1l-6 1-9 3c-26 9-47 25-65 45-22 25-47 47-77 62-15 8-30 13-46 15l-25 2c-6 1-8 4-4 9 9 8 18 16 30 17 28 4 55 0 82-6 22-6 44-14 66-23l13-5 1 2c-42 24-88 34-136 40a5 5 0 0 0 3 2 251 251 0 0 0 58-5c31-7 60-18 87-33l55-32a56 56 0 0 1 6-2v1l-3 4c-25 17-51 33-79 46a251 251 0 0 1-62 21c-16 3-32 6-49 6h-6a5 5 0 0 0 3 3c17 2 34 6 51 7 50 4 97-5 143-25a439 439 0 0 0 177-152 239 239 0 0 0 31-66 213 213 0 0 0 9-51 57 57 0 0 0-2-15c-2-8-7-11-15-9-13 3-23 9-30 20l-13 20-35 46a141 141 0 0 1-49 39c-19 9-39 11-59 10-12-1-21 3-29 13a267 267 0 0 1-47 42l-5 2-1-1 57-55c-6-1-10-1-13 4a46 46 0 0 1-8 8l-12 9-2-2Zm6-422a171 171 0 0 1 89 100 13 13 0 0 1-4-5l-9-16c-18-31-42-56-75-71-7-4-14-5-23-3-9 3-12 9-11 18 2 9 7 15 13 21a109 109 0 0 1 22 27c11 20 14 42 12 64-2 17-1 33 6 49 6 16 8 33 6 50-2 23-8 46-18 67l-40 88-6 11 1 1 7-3c21-17 45-30 72-36 13-4 19-12 23-23l1-1 16-54 1-4h1c0 19-7 36-10 54a52 52 0 0 0 5-10 183 183 0 0 0 11-58c1-31-4-61-8-92l-1-8 2-1 4 13 6 39a270 270 0 0 1 1 64c-2 24-8 47-21 68l-2 5 5-1 28-6c8-2 16-6 21-12l18-27a182 182 0 0 0 19-76c1-46-6-90-27-132a238 238 0 0 0-66-82c-13-11-28-20-45-23h-12c9 6 19 10 25 20a3 3 0 0 1-2-1l-22-12c-4-3-8-5-13-2Zm-285-48 2 2-6 2a208 208 0 0 0-112 110c-5 11-9 21-6 33l8 37 1 4 2 1 3-9 6-21a205 205 0 0 1 37-58c12-13 26-25 42-33l38-16 55-28c26-14 53-21 82-20h22c7 0 14-3 22-5 5-1 8-5 8-10s-3-9-8-12c-11-6-23-12-36-13l-59-7-8-1v-1l15-2 16 1h14a11 11 0 0 0-5-3c-29-6-57-4-86 0-19 3-38 7-56 16l-43 22-35 26c-19 16-36 35-48 57-4 7-6 15-4 23l10 29 3 3c23-63 64-106 126-127Zm-184 5h-1l2 20q0 31-2 61a264 264 0 0 0 7 76c6 22 15 42 26 62 16 29 29 59 35 92l2 7 2-1v-25c0-33 0-65-5-98-3-23-7-47-15-70l-44-109-7-15Zm411-61-11-3-28-7c-4-1-7 1-8 6l-2 10c-2 11-2 12 9 16 6 3 11 5 16 9 9 7 9 24-3 29a25 25 0 0 0-6 3c-2 1-3 4-3 5 2 10 6 19 15 24a78 78 0 0 0 16 5c9 2 11 2 16-6l20-37 3-4c-1 20-12 36-24 51l2 1 20-25 1 1c-2 11-9 19-17 26 4 8 4 8 12 3l12-4 16-5c6-3 15-4 19-12 3-6 9-10 13-16 3-3 6-8 5-11-1-4-6-6-9-10-4 12-5 13-10 15l7-16a9 9 0 0 0-1-2 56 56 0 0 0-4-4c-13-11-28-20-43-29-7-4-12-4-17 3l-17 23-5 6-1-1a46 46 0 0 1 9-20l14-17c-5-6-8-6-14 1l-5 6-2-1 5-13Zm191 186-1 1 8 14a269 269 0 0 1 26 84 250 250 0 0 1-9 108c-5 16-13 31-24 43l-3 5c7 0 12-3 16-6a194 194 0 0 0 53-110c3-22 2-43-5-64-9-26-25-47-47-64l-14-11ZM547 596l1 1a29 29 0 0 0 3-2 132 132 0 0 1 54-26l81-15c24-4 46-12 63-30 13-13 23-29 35-44a45 45 0 0 0 3-6 9 9 0 0 0-4 3l-18 14c-18 12-38 16-58 21l-54 13a216 216 0 0 0-101 62l-5 9ZM179 188a24 24 0 0 0 1-2c9-20 23-37 38-52 27-28 59-48 94-63l11-5-1-1a22 22 0 0 0-3 0c-21-1-42 0-62 7-15 5-28 12-41 22-19 15-33 34-43 56-7 14-5 27 6 38Zm502-92-1 1a7 7 0 0 0 1 2c10 10 16 22 20 36 3 11 5 22 9 32 8 25 23 45 42 63 24 23 43 49 54 80l4 11 1-1-3-23a181 181 0 0 0-33-72c-19-25-38-52-51-82-7-16-17-31-33-41l-10-6ZM423 7l-1-1a18 18 0 0 0-3 0l-50 12-50 11c-13 3-26 6-39 11-18 6-31 18-45 29a95 95 0 0 0-7 8l1 1 11-6c20-10 42-13 64-16 21-2 43-6 64-15 15-6 29-15 43-25l12-9Zm281 183 1-1a18 18 0 0 0 0-2l-11-51c-4-19-15-33-30-44-6-4-13-5-19-3-10 3-11 6-3 14 9 9 18 19 26 30 10 12 16 26 22 40 3 7 8 12 14 17ZM375 53v1l26-3 40-11c7-2 15-4 20-10 4-5 4-9 1-13-5-7-15-10-24-7a78 78 0 0 0-19 9c-15 10-28 21-42 32a16 16 0 0 0-2 2Zm122-10a214 214 0 0 0-78 8 18 18 0 0 0 6 1c17 0 33 3 48 9l18 7c3 1 5 0 5-3l1-22Zm185 127c-7-17-16-33-29-47-2 6-4 11-10 12a127 127 0 0 1 6-12v-3l-3 2-17 20a61 61 0 0 1-5 4v2c23-2 39 13 58 22Z" />
  <path fill="currentColor"
    d="m342 682 6-6a243 243 0 0 0 50-46 637 637 0 0 0 55-75c18-31 36-63 50-96l22-59 19-55a7 7 0 0 1 3-4l-3 14a763 763 0 0 1-107 233c-17 25-36 49-58 70l-28 22-8 3ZM290 352l-1 5-20 78a464 464 0 0 0 0 178l12 35a3 3 0 0 1-1 3 33 33 0 0 1-3-5 219 219 0 0 1-20-61 329 329 0 0 1-1-96c1-14 2-29 5-43l11-48 13-41 4-6ZM434 309 322 584l4-18 33-87 30-73 30-70 11-24a37 37 0 0 1 2-4Z" />
  <path fill="currentColor"
    d="M456 506c-2 26-71 128-96 142 37-44 70-90 96-142ZM297 611c-1-44 10-84 29-123-6 20-13 40-17 60l-12 63ZM74 371c5 28 9 56 16 84l24 81c-26-52-39-107-40-165ZM623 724c80-48 138-119 185-199l2 2-9 17a507 507 0 0 1-142 162l-28 17-7 2Z" />
  <path fill="currentColor"
    d="m701 650 68-86c-19 32-40 62-68 86ZM737 341c17 34 14 106-9 138 9-22 14-45 16-68 2-24-4-47-7-70ZM454 103c-59 0-112 19-161 51l-1-3 16-12a273 273 0 0 1 136-39l9 1ZM200 213c6-23 20-41 37-57Z" />
</svg>