<svg xmlns="http://www.w3.org/2000/svg" data-name="Layer 1" viewBox="0 0 892.8 728.5">
  <path fill="currentColor"
    d="m561 248-49 32-1-1c14-15 31-24 50-31Zm23-22c41-20 84-35 130-31-47-8-101 9-130 31Zm-109 67c9-21 16-43 26-65-16 19-22 42-29 64Zm415 0c-6 10-15 14-26 14a392 392 0 0 1-44-2c-20-2-39-1-57 6-19 6-39 12-59 11-21-1-42-6-63-12-25-7-49-11-75-10-6 0-9 3-11 8a261 261 0 0 0-15 88v52c-1 21-3 41-11 60a95 95 0 0 1-42 48c-3 2-5 4-3 9 14 48 20 98 19 149l-1 9c0 2-2 3-3 4l-2-4c-1-25 0-49-2-73-2-19-7-39-10-58a16 16 0 0 0-2-4l-2-2 1 12c8 33 11 67 11 101v25l-2 4-3-4a479 479 0 0 0-4-81l-7-44-6-30c-2-6-3-6-10-6-14 1-27-3-40-8-24-11-40-31-54-52l-47-67c-7-10-16-18-25-26-3-3-6-4-10-2l-22 8c-9 2-18 4-27 4a130 130 0 0 1-45-6c-3-1-6-4-9-7s-4-3-8-1l-24 13-11 2h-29c-14 0-26 4-38 10-14 6-26 14-39 20-7 3-15 5-23 1-6-2-9-7-10-13-1-12 3-21 9-29 16-22 37-37 58-52l89-63 21-15a38 38 0 0 0 8-7c-22 3-39-7-56-18-20-13-36-31-50-51l-21-28c-4-5-8-11-10-18-6-15 3-30 19-33a16 16 0 0 1 6 1l54 12 45 12c26 5 52 11 76 22 21 10 38 26 52 44 1 3 4 4 6 6l1-1 1-16c2-18 5-35 15-51 3-4 1-6-3-8l-18-9c-10-6-21-12-29-22-2-2-6-5-3-9 2-4 6-4 11-3 19 6 34 18 43 37 3 6 4 7 9 2 6-8 13-14 23-14 4-1 5-3 4-8-3-9-8-16-14-23l-15-20v-7l7-2c9 3 14 10 19 17 6 9 6 20 7 30 2 10 4 12 13 11l27 1 9-1-6-19-13-50-5-10-8-21-5-17c-1-3-3-6 1-8 4-1 8-2 11 1a40 40 0 0 1 6 10c5 11 9 23 4 36-1 4 1 10 2 14l17 58c1 5 3 6 7 4l14-6 3-6c0-6 0-13-3-19-1-3-2-7-1-10l5-28 5-7c1-1 4-2 5-1 2 1 4 3 4 5 1 14 0 28-6 41-3 7-6 14-5 23l16-5c9-2 17-5 26-5s17 3 26 6c5 1 7 1 7-5 0-14 8-25 20-33h5l3 6a46 46 0 0 1-16 28 41 41 0 0 1-6 5c-3 2-3 4 0 6 11 7 17 18 22 30a22 22 0 0 0 1 3l1 1a14 14 0 0 0 2-2c13-55 45-93 98-113 17-7 32-16 47-23 9-5 18-10 28-13 7-2 16-2 24-1 9 2 17 15 15 26-2 9-5 18-10 26-7 12-16 22-24 32a330 330 0 0 0-37 53l-17 25-3 6a55 55 0 0 0 6-1c32-7 65-8 98 0l20 7c6 4 5 11-3 13l-6 2v2l7 1c14 1 28 4 41 12 11 6 18 15 20 28 2 9 6 16 14 21l20 19c4 3 3 15 0 20ZM525 105l5-1 13-20-2-3-4 1-12 19v4ZM380 6c6 11 7 25 14 36 4-11-5-34-14-36Zm-24 94c0-9-11-25-20-27 3 12 13 17 20 27Zm-42 35-2-4a71 71 0 0 0-29-22l-7 1 3 5 19 13 15 8Zm231 60v6h1l18-29 3 1-35 63 2 1 17-17 35-47 33-42a9 9 0 0 1 2-2l1 1-59 82 2 1 38-47h1a41 41 0 0 1-3 5l-20 28-4 6 2 1 9-6a348 348 0 0 1 67-27c6-2 12-5 16-11l28-44a28 28 0 0 0 2-5c-9 7-15 17-25 22a12 12 0 0 1 2-5l31-32c15-15 30-30 41-49 5-9 8-17 8-27-1-9-7-16-16-16a48 48 0 0 0-25 5l-39 21c-13 7-26 14-36 25l-32 31-6 4-1-1c12-17 28-31 44-45h-3l-7 4c-39 18-63 48-76 88l-16 57Zm-44-24a249 249 0 0 1-28 77c-7 11-14 23-17 37-1 2-1 4 2 5l18 7c4 1 6 0 8-3 5-8 9-16 16-23 19-18 31-40 37-65l8-34c0-23-8-37-21-49-3-2-5-3-7 1a174 174 0 0 0-16 47Zm-7 161c-5-15-12-28-29-33a205 205 0 0 0-24-6c-11-2-26 3-30 16a98 98 0 0 0-4 19c-1 14-4 29-1 43l-1 4-1 1-2-10v-49h-1l-6 9c-1-9 4-16 13-20l-2-1a17 17 0 0 0-2 1l-2 1c-11 4-16 13-21 22-8 16-7 34-2 51 3 14 11 29 17 43l23 49a66 66 0 0 0 13 18c6 5 13 8 21 5s13-9 14-18l-1-13c-2-18-3-36 1-54 2-6 1-13 1-19l-1-17a96 96 0 0 1 1-10h2c0 9 8 17 3 27 17-16 27-35 21-59Zm-4 55a35 35 0 0 0-4 4 111 111 0 0 0-16 40c-1 8-2 16 0 24l1 20 5-4 8-35 7-47-1-2Zm-43-146-4 43c-1 2 1 3 2 5l3-4 5-47 2-12c-7 4-8 10-8 15Zm1-19c4-3 8-23 6-32-5 3-9 27-6 32Zm-3-132c4-3 8-29 6-35-7 5-11 29-6 35Zm-24 46a140 140 0 0 1 6 48l-3 81 3 21 3 3 3-3c3-8 6-16 6-24 1-12 3-23 2-34 0-11 2-23 4-34l5-9c3-5 8-4 9 1l1 6v14l-1 28-7 31v7l3-3c1-9 7-14 11-21a158 158 0 0 0 12-24l15-42c5-21 9-42 20-60 2-3 0-5-2-5a137 137 0 0 0-15-4c-18-3-33 3-49 9a7 7 0 0 0-4 5v33c1 13-1 24-4 36a203 203 0 0 0-7 73l-1 11-1 1-1-8-1-13c0-18-1-36 4-53a171 171 0 0 0 5-54v-27l-13 4c-3 1-4 3-3 6Zm-51-4 1 17c3 26 8 51 18 75 9 21 20 42 24 64 1 3 2 6 5 4l2-6-5-15-7-26c-4-15 0-32-8-46-3-6-4-14-6-21-2-9 0-17 6-23 3-4 6-3 8 1 5 13 5 28 6 42a4 4 0 0 1 0 1c-4 21-2 41 2 61l2 6a20 20 0 0 0 2-9l1-45c0-25 2-50-4-75-1-4-3-5-7-5a111 111 0 0 1-11 0h-29Zm33 30c-5 7-3 34 5 39 1-14-1-26-5-39Zm-69-10c8 10 13 22 18 33 6 17 13 34 24 48 12 14 21 30 27 48l4 12h2a15 15 0 0 0 0-3l-2-5c-3-16-10-30-16-44-6-15-13-30-17-46-5-18-7-38-10-57 0-6-1-7-7-6-10 3-17 9-24 17l1 3Zm-22 71c0 12 2 20 16 25a363 363 0 0 1 36 14c10 5 19 10 25 20l8 13 4 2v-4c-10-21-27-36-46-49l-22-19c-2-2-4-5-1-9a9 9 0 0 1 10-2 43 43 0 0 1 25 26c5 13 16 19 24 28h1a13 13 0 0 0-1-4l-12-19c-7-9-14-18-19-28l-16-36-12-22c-2-3-4-4-6 0l-5 13a159 159 0 0 0-9 51Zm28-4h-1l-2 4 23 18 1-1c-1-8-14-20-21-21Zm28 51c-13-8-28-12-42-16 16 21 40 26 62 36-4-10-12-15-20-20Zm-158-3c14-3 29-6 43-7a35 35 0 0 0 4 0v-2l-24-9 1-2 35 11 37 7v-2c-22-16-44-32-68-43 22 7 43 19 62 33-22-23-48-38-76-50a68 68 0 0 1 12 3 162 162 0 0 1 41 21 248 248 0 0 1 43 39c3 4 8 5 14 6a10 10 0 0 0-2-5l-17-18a34 34 0 0 0-7-5c-13-7-25-16-33-29-3-5-7-8-13-8a56 56 0 0 1-12-4 90 90 0 0 1-15-6c-2-1-3-5-3-6 1-3 3-4 5-6l4-1c15 1 24 10 32 20l28 31 6 3 1-1a14 14 0 0 0-1-3l-21-26c-17-20-38-33-64-40-20-6-41-10-61-15l-56-15-33-7c-8-1-15 2-18 10a20 20 0 0 0 1 20l12 18a47 47 0 0 0 22 19l29 12a48 48 0 0 1 6 3l-1 2-34-11a20 20 0 0 0 3 8 32 32 0 0 0 3 5c15 16 31 31 51 42 21 11 42 14 64 8Zm53-68c-6-5-13-8-20-9l-4 2 3 4 22 6a9 9 0 0 0-1-3ZM117 414c-15-16-48-7-58 15 10-3 19-8 28-10 10-3 20-3 30-5Zm204-14c8 2 16 1 23-2 13-6 24-15 25-30v-17a55 55 0 0 1 15-36l12-13-8-5-13-6c-12-5-25-7-39-4-7 2-15 2-22 3a9 9 0 0 1-3 0v-2l29-5v-2l-20-8a184 184 0 0 0-31-5c-18-1-37-2-54 4-28 10-53 25-76 43l-27 23a46 46 0 0 1-5 3l-1-2c30-28 61-54 101-68v-2l-15 3c-20 5-37 16-53 28l-86 61c-15 10-30 21-44 34a81 81 0 0 0-24 37c-1 5 0 9 3 13 5 5 10 5 16 3 9-2 17-8 24-15l19-21c6-7 15-11 25-12a61 61 0 0 1 31 7c10 5 22 9 32 4s19-11 27-18l37-35 5-2 1 1-12 12-10 11-11 14-3 5c-4 5-2 9 4 10l7 1 41 4c13 1 23-3 31-15a163 163 0 0 1 35-37l15-11 1 2-7 7-39 40-3 5 2 1c10-7 15-21 27-26l1 1-17 20h5c10-3 20-2 29-1Zm230-96a11 11 0 0 0-2-1 4 4 0 0 0-1 0c-19 5-34 14-45 30-2 3-2 6-2 10v22l-5 20-7 58c-3 19-9 37-24 51-2 3-2 5-1 8l5 29-1 1c-6-10-8-21-7-33a16 16 0 0 0-3 0 28 28 0 0 1-24-1c-11-5-16-15-21-25l-24-50-14-33-3-8-2 1c-13 19-30 26-53 22h-17l40 44h1l-3-8 2-1 16 32c10 21 22 40 37 56 18 18 39 28 64 29 19 1 33-5 42-23a133 133 0 0 0 16-60v-39l1-5h2a42 42 0 0 1 1 5v25c0 14 1 28-2 42a116 116 0 0 1-17 37 18 18 0 0 0 4-2 16 16 0 0 0 3-3 94 94 0 0 0 18-33c5-15 8-30 8-46-1-30-1-61 3-92 3-19 7-38 14-57a13 13 0 0 0 1-2Zm335-28-32-27a22 22 0 0 0-8-4l-35-10-16-5v-2h4l44 11a44 44 0 0 0 6 0c-5-4-12-4-16-9l1-2 16 5v-3c-4-14-14-21-27-25-15-6-31-7-47-8l-5-1a7 7 0 0 1-3-4c0-1 2-3 4-3l17-5c2 0 3-2 5-3l-4-4-8-2c-25-8-51-8-76-6-18 2-36 6-53 11a358 358 0 0 0-48 18c-20 9-39 21-56 34a242 242 0 0 0-62 66c-4 6-3 8 3 11 16-31 94-69 116-65l-8 3-38 13c-19 9-36 19-50 34l-16 14c-3 3-3 5 0 8a52 52 0 0 0 4-4c20-23 47-37 76-47 32-11 65-12 99-14 23-1 46 5 69 9l16 4-1 2a44 44 0 0 1-5-1l-51-9c-43-4-86-1-127 14-17 6-33 13-48 23-10 7-18 16-27 25-3 2-4 6 0 9l5-4 4-5c17-16 38-21 60-25 14-2 28 1 41 4l87 19c21 4 42-2 61-12l1-2a52 52 0 0 1-29-2c-4-2-10-1-15-2l-11-4a31 31 0 0 1 9 0l22 2 36 4h15l27-1 30 3a199 199 0 0 0 29-1c8-1 13-7 16-13 2-4 3-9-1-12Zm-368 87a38 38 0 0 0-1-5h-1c-1 3-2 7-1 10l4 35 5 49v32h1l2-10v-47c-2-22-6-43-9-64Zm-144 66-2-3-2 1 6 18c8 18 17 36 29 52l15 21 2-2-4-6c-17-26-33-52-44-81ZM235 306c13-6 27-13 42-18s31-7 45-10c-17-7-81 13-87 28Zm152 171h1l-15-28c-1 8 7 22 14 28Zm47-160c-12 6-5 108 4 117-4-39-8-77-4-117Z" />
</svg>