<svg xmlns="http://www.w3.org/2000/svg" data-name="Layer 1" viewBox="0 0 1116.8 1305.9">
  <path fill="currentColor"
    d="M209 196c54-66 124-105 210-117l-4-6c-13-14-11-29 5-39 10-7 21-9 32-12 26-7 52-3 79-2l96 2c35 0 67 10 98 27a366 366 0 0 1 95 75l28 35 3 3 3-7 13-65c6-23 13-46 27-65 7-10 16-19 28-23 23-6 41 2 52 24l30 58 40 68c21 35 40 71 51 110 5 14 7 29 10 44 10 47 13 94 11 142-1 49-6 97-21 144-13 41-32 78-54 114-32 54-71 102-119 142-24 20-49 41-78 54l-50 19c-11 4-11 3-6 14 31 60 55 122 75 187a1169 1169 0 0 1 33 136l6 38c0 3 0 5-3 6-4 0-4-2-5-5a1116 1116 0 0 0-58-231l-30-75c-1-3-2-5-6-3s-7 3-5 8l17 46c18 48 36 95 47 145l22 105 1 8c1 3 0 5-4 6-3 0-4-2-4-5a1205 1205 0 0 0-28-137c-15-54-34-106-56-158l-29-62c-3-6-5-6-9-3l-11 11c-23 36-55 62-93 80-59 30-121 45-187 44-57 0-111-12-163-33A604 604 0 0 1 71 886c-31-37-55-78-66-125a193 193 0 0 1-5-25c-1-15 8-26 23-28s29 3 42 11l42 26 10 5 2-2-7-6a304 304 0 0 1-96-205c-2-46 6-90 27-131 21-42 37-87 49-133 10-38 34-65 71-81 15-6 30-6 46 4Zm76 322c-3 20-5 39-2 58 3 20 11 39 19 58 6 12 11 26 19 38 14 22 31 44 46 66 28 42 61 80 97 114 28 27 59 50 94 68 29 16 60 26 93 30 47 4 90-7 129-33 22-14 39-33 49-58 14-33 20-68 22-104 2-52-7-102-20-152-21-73-55-140-96-203l-13-20 1-1 3 3 30 45a578 578 0 0 1 100 281 355 355 0 0 1-8 108 39 39 0 0 0-1 6 4 4 0 0 0 3-3c9-27 15-55 18-84 6-67 0-132-16-197-8-35-15-70-19-106-2-24-8-47-19-69-17-35-39-66-69-91-21-17-43-31-69-39l-56-12h-5c13 12 22 24 29 39l-32-37a23 23 0 0 0-10-6l-43-13a406 406 0 0 0-91-18 60 60 0 0 0-7 0c52 37 87 86 118 139a79 79 0 0 1-9-10l-62-79a194 194 0 0 0-52-45c-6-4-14-4-20 1 15 7 26 19 37 30 12 10 23 21 32 35a3 3 0 0 1-2-1c-23-20-44-42-69-60-3-2-6-3-10-2l-22 11a56 56 0 0 0-33 45c0 5-2 9-3 14 0 2 0 5 2 8l32 54a21 21 0 0 1 1 3 8 8 0 0 1-4-3c-12-14-23-30-31-47-3-4-4-4-7 0a169 169 0 0 1-13 13c-12 11-25 21-36 33-19 19-32 41-36 68-6 33 0 64 15 93l48 86 8 15c-24-28-42-60-59-92 4 25 20 45 27 68l-2 1Zm723-272h2a48 48 0 0 1 2 6l16 51c12 48 21 96 25 145 4 52 3 104-6 156-6 40-17 79-34 116-9 20-20 39-33 57l-3 6 1 1 19-25c25-34 48-70 67-108a420 420 0 0 0 42-144c5-52 5-105 0-157-6-61-23-117-54-170L991 73l-26-49a34 34 0 0 0-51-10c-3 2-4 4-3 8l8 49 13 55a38 38 0 0 1 0 5 441 441 0 0 1-27-108c-6 3-7 7-6 13l7 47a21 21 0 0 1 0 5h-2l-1-7-7-36-3-7-3 5c-3 10-7 20-8 30-4 32 2 63 9 94 5 17 10 34 13 52l19 85a957 957 0 0 1 33 257 22 22 0 0 1 0 3 4 4 0 0 1-2-3l-4-46c-3-35-6-70-11-105a592 592 0 0 0-19-92 57 57 0 0 0-3-5h-2l4 28c8 30 13 61 17 93v18l-21-96-3 15c-4 25-12 49-20 72-14 39-22 79-21 121l2 49c3 39 5 78 1 117a344 344 0 0 1-49 152c-3 4-4 9-4 13-1 4 1 6 5 4a60 60 0 0 0 10-6c25-19 43-44 55-74s19-62 24-94l4-31h2l-2 22c-2 36-8 71-22 104-11 28-26 54-52 71a16 16 0 0 0-2 3l1 1c9-5 19-10 26-16 24-22 43-46 54-76l7-17c-3 26-14 49-30 70a27 27 0 0 0 8-5c18-15 36-31 49-52 7-12 17-22 24-33 26-42 43-87 54-134 15-68 17-136 9-204-6-57-17-113-33-167l-4-15Zm-357 777-1-1-4 1c-18 3-36 7-55 8-49 4-96-3-143-19l-94-35c-2 0-2-1-3-2v-1a41 41 0 0 1 6 1l56 20c42 14 85 26 129 29 43 4 85 0 126-14l8-3-1-2c-36 10-74 11-111 9-39-3-97-14-110-22h5c21 4 41 9 62 12 51 8 101 8 151-3 13-3 23-8 32-18l16-19c3-6 1-10-6-10a105 105 0 0 0-17 1c-30 4-60 1-90-7-35-11-66-28-96-49-22-16-43-32-68-43-23-9-45-15-69-15h-5l-1 1 26 19h-3l-27-17c-5-3-18-4-23 0l89 57-1 1a52 52 0 0 1-6-2 560 560 0 0 1-79-49c-8-5-15-8-25-5l-26 5c-26 5-52 4-77-5-22-8-41-20-59-34a635 635 0 0 1-83-76 62 62 0 0 0-47-21c-13 0-20 6-20 20a43 43 0 0 0 0 12l10 34a307 307 0 0 0 67 111 594 594 0 0 0 276 163c53 14 107 18 161 10a419 419 0 0 0 110-32l20-10ZM242 275l-1-2-6 1c-8 2-17 4-25 9-22 12-39 29-54 48-43 57-66 122-69 193-3 57 5 112 30 164 11 23 26 44 44 62 14 14 30 22 51 21l36 1a48 48 0 0 0 5 0l-5-7c-24-27-39-59-48-94-12-48-16-96-13-145a30 30 0 0 1 0-3 7 7 0 0 1 1 4l5 70c3 37 10 73 24 108a249 249 0 0 0 43 66l4 3 2-2c-25-26-38-60-50-94a27 27 0 0 1 5 7l17 35c8 16 17 32 29 46 4 5 8 7 15 8 44 2 86 14 125 34l6 2 1-1-5-6-26-34-72-104c-14-21-23-45-30-69s-7-49-3-74c3-14 4-29-1-43a258 258 0 0 1-8-29c-9-44-2-83 26-119a48 48 0 0 0 11-33c-1-9-6-17-16-19s-20-1-29 5c-19 13-35 28-50 47-20 25-33 54-42 85l-2 7-2 5-2-1c6-29 16-58 33-84 16-25 36-48 63-64-6-4-11-4-16 1l-29 24a40 40 0 0 1-5 3c8-14 20-24 33-32Zm586 9a34 34 0 0 0 2-5l7-47c1-7 0-13-3-18l-19-25a357 357 0 0 0-383-80l-21 11 1 2c24-9 48-18 74-18a26 26 0 0 1-7 3l-56 17c-20 6-39 13-55 26-6 4-12 8-16 14-8 10-5 22 7 26 7 2 15 4 23 3 12-1 23-3 35-6 25-5 49-8 74-5s49 10 73 17c28 9 57 17 86 22 24 3 47 12 68 24 30 19 55 44 76 72 12 15 19 32 28 49l2 4h2v-5l2-70a14 14 0 0 0-2-7l-21-33c-39-53-89-89-153-106l-23-6a259 259 0 0 1 199 141Zm-556-83 1-1 6 7c13 17 26 34 42 47a12 12 0 0 0 8 2c4 0 7-2 10-3 24-9 35-23 34-47 0-4-1-7-6-8a84 84 0 0 1-12-3c-5-2-9-6-11-11-4-10-3-20 5-27 7-7 16-13 24-18 4-3 6-5 4-10l-9-27c-2-5-4-5-8-4l-49 21-8 5 14 17-2 1-11-9c-4-4-7-6-12-3l-11 8a69 69 0 0 1 27 17c9 10 17 21 16 26-13-16-28-31-48-39a34 34 0 0 0-4 2l-22 18-40 42c-2 3-3 5 0 7l11 15a24 24 0 0 1 2 4l-1 1-18-20-7 11c-3 4-2 8 1 11l26 24 10 7-1 1c-17-8-32-16-42-33-5 6-5 8 1 13l10 12-1 1-9-6-8-9c-13 24-22 49-27 75a9 9 0 0 0 4-2l31-29c19-16 41-23 66-16a47 47 0 0 0 12 1c12 0 24 0 35 6l4-2 4-8c-16-10-29-23-30-30a62 62 0 0 1 7 4l21 19c5 4 6 4 9-1-11-7-21-16-28-26l-20-33ZM875 96h-3a65 65 0 0 0-2 6l-27 137c-10 45-12 91-10 137 4 59 15 117 29 175a24 24 0 0 0 1 3h2a59 59 0 0 0 0-6c-2-42 4-83 16-124 8-25 15-50 20-75 8-42 8-85-1-127l-13-48a349 349 0 0 1-10-65l-2-13ZM101 419l-3-2-2 5-29 37c-24 34-36 71-33 113 2 32 12 63 26 92 14 28 33 53 56 75 10 9 20 18 33 24 6 3 13 4 22 3a60 60 0 0 0-4-5c-21-17-37-37-50-61a359 359 0 0 1-18-275l2-6Zm354 435-1-3c-6-6-12-13-19-18a333 333 0 0 0-37-21 296 296 0 0 0-122-31l-83-4c-34-2-67-9-95-30l-5-2-2 2 11 9 47 43c26 21 57 31 90 31l100-2c39 0 76 6 110 24l6 2Zm385-643a8 8 0 0 0 2-3l7-32a7 7 0 0 0-1-4l-19-29a190 190 0 0 0-212-65 51 51 0 0 0-5 3l-1 1c91 18 171 54 229 129ZM25 555h2l1-5 6-40c7-31 22-59 39-85a656 656 0 0 0 34-57c12-24 16-51 18-78 1-26 5-51 19-74l2-6a22 22 0 0 0-3 1 18 18 0 0 0-3 2c-17 14-31 31-39 53l-13 45c-10 35-24 68-40 101-20 38-27 79-25 122l2 21ZM460 26v2l3 1 24 10c16 8 33 15 51 19 35 9 71 9 106 5 35-3 68-2 101 11a67 67 0 0 0 7 2l1-1-3-2-17-11c-34-22-71-34-112-33l-89-2-61-2-11 1ZM132 349h2c7-9 14-18 17-30 7-42 24-79 49-112 4-5 3-6-2-9-14-7-28-5-38 8-17 19-27 41-27 67l-1 67v9ZM546 78l-6-3-8-4-46-23c-12-6-24-12-37-13-10-1-19 0-27 6-13 9-12 25 2 32a35 35 0 0 0 12 3l53 3c18 3 37 3 57-1Zm-60 9c-13-9-102-1-114 9l10 36 8-4c15-9 29-19 45-26 13-6 29-8 44-12l7-3Z" />
  <path fill="currentColor"
    d="M748 913a69 69 0 0 1-8-1c-25-8-48-22-69-38-44-33-84-70-120-111a1037 1037 0 0 1-96-127 1182 1182 0 0 1-65-116 4 4 0 0 1 0-3l11 18c23 38 44 76 68 113 29 46 64 88 102 129a757 757 0 0 0 96 87c23 18 48 34 76 45a33 33 0 0 1 4 2l1 2ZM736 459l17 26c34 63 59 130 73 200 5 24 8 48 9 72 2 24-2 48-6 71l-5 23a4 4 0 0 1-2 2l1-12c12-58 6-115-7-172a694 694 0 0 0-51-148l-29-59-1-2Z" />
  <path fill="currentColor"
    d="m384 661 13 19a688 688 0 0 0 179 186c42 28 86 50 137 59l30 3 6 1v1l-9 1a201 201 0 0 1-70-11c-45-16-85-39-123-68a676 676 0 0 1-163-188l-2-2ZM746 773c-66-114-142-221-213-332l12 15 43 64 62 92 62 96c12 19 22 38 33 58l2 6ZM555 715c46 57 98 108 157 154-22-2-143-120-157-154ZM727 660c18 13 62 115 62 142-9-23-17-48-28-73-10-24-23-47-34-69ZM1017 648c4-35 9-70 11-106s0-72 0-105c12 34 5 186-11 211ZM84 828l29 30a785 785 0 0 0 82 76c41 33 83 62 130 84 16 8 32 14 48 20l12 6a310 310 0 0 1-69-24c-83-42-155-99-215-170l-18-21Z" />
  <path fill="currentColor"
    d="m151 872 100 86c-38-23-70-53-100-86ZM169 729c-35-50-46-105-41-165 0 58 10 114 41 165ZM449 162c35-22 195-4 225 27-72-30-147-39-225-27ZM814 242l-53-55 4 1c18 14 35 30 47 50a24 24 0 0 1 2 4Z" />
</svg>