<svg xmlns="http://www.w3.org/2000/svg" data-name="Layer 1" viewBox="0 0 880.4 943.6">
  <path fill="currentColor"
    d="M879 211c-1-10-3-19-8-28a14 14 0 0 0-13-7c-14 0-25 8-30 21-5 12-6 25-8 37a68 68 0 0 1-4 19c-3 8-9 15-12 24l-20 60-2 7h-2a36 36 0 0 1 0-5l2-23c4-53-3-104-31-151-7-13-16-23-30-30-6-2-10-7-14-13a115 115 0 0 0-17-21c-10-9-24-9-34-1l-10 14-13-23c-16-29-40-49-72-60l-63-21c-32-13-63-13-96-2-16 6-29 16-37 32-4 8-5 8-14 6-19-5-35-2-49 12-20 20-32 44-37 71-5 19-7 39-11 58-1 11-4 21-7 31h-2v-8c-1-24-3-48-9-71-5-18-11-35-22-50-18-24-44-27-65-6l-51 51c-20 19-35 41-42 67-13 48-11 96 2 143 11 43 32 82 52 120l17 26a6 6 0 0 1-4-1l-22-19-64-56a85 85 0 0 0-17-12c-7-3-14 0-17 7-4 11-4 23 0 34 5 20 15 37 26 54a384 384 0 0 0 87 94c42 32 89 54 142 61 36 6 73 10 110 14a142 142 0 0 0 62-6l14-5-2 4-23 38a303 303 0 0 1-136 139l-95 52c-19 11-36 24-54 36-3 1-4 4-6 6 5 3 7 0 10-2 31-23 65-43 99-61 26-14 52-27 77-43 34-20 62-48 84-81l35-58c5-9 13-14 22-19l-2 4-34 59c-23 38-51 71-87 96-30 21-63 37-95 54-32 16-64 34-93 55a35 35 0 0 0-6 5 3 3 0 0 0 0 3 4 4 0 0 0 3 2l4-3c12-8 24-18 37-25q51-29 102-55c39-20 74-45 103-77 20-23 35-48 50-74l34-55c4-7 10-7 17-6 25 3 49-1 72-14 12-7 24-12 38-15 29-6 56-15 81-32a403 403 0 0 0 192-276c7-33 11-67 8-101Zm-76 87a211 211 0 0 1-12 99c-13 35-48 83-67 93 39-59 58-126 79-192Zm-82-156 10 7c10 8 15 18 20 29 24 44 29 92 24 141-3 37-11 73-25 107a321 321 0 0 1-167 172 76 76 0 0 1-8 3v-1l9-6c32-21 59-47 80-78 53-81 81-169 78-266-1-35-7-69-21-102a33 33 0 0 1-1-5Zm-75 18h2l9 64h2c0-28-7-55-8-83h3l4 23h1v-4c-1-13-2-26-5-38-1-7 0-11 4-15 5-5 10-8 18-6 11 4 17 12 24 21 19 29 27 61 33 95 9 62-1 122-20 181a427 427 0 0 1-37 86c-19 32-40 62-70 86l-9 6a16 16 0 0 1 2-3c29-32 47-69 58-110 7-26 11-52 17-78l-1-2-4 12c-6 26-12 52-20 78-12 39-33 74-60 104a114 114 0 0 1-75 39 10 10 0 0 1-3-1 54 54 0 0 1 5-4c17-11 32-26 44-43 16-21 27-44 37-68 36-90 46-184 40-280-1-15-2-30 3-45l6-15ZM443 6l27 3 95 30c22 8 39 22 53 40l10 12-1 1-13-5c-13-4-26-8-39-10-34-5-64-19-90-42a135 135 0 0 0-40-24 19 19 0 0 1-7-4l5-1Zm-74 40a51 51 0 0 1 16-21c21-16 47-17 72-2 17 10 31 23 44 36 10 11 21 20 34 27 12 6 24 9 38 10l40 4c23 4 32 15 31 38 0 14-7 26-12 38a22 22 0 0 1-2 3l-11-29c-3-7-6-14-11-21-8-10-19-11-31-6-10 5-17 13-24 24l-4-9c-7-20-18-36-34-50-11-9-25-14-39-20-16-6-33-8-50-9l-53-7c-6 0-6-1-4-6Zm-144 84c12 10 19 116 10 130-15-43-12-86-10-130Zm-54-51c5-4 10-4 15-2 17 6 28 16 31 34 4 23 2 45 1 68-1 18-2 36 0 53 1 14 5 28 9 42 5 21 6 43 8 65a305 305 0 0 0 21 94l5 14-2 2-10-9a95 95 0 0 1-30-50c-9-39-26-73-53-103-8-8-11-19-14-30l-12-33a42 42 0 0 0-19-21c-3-1-5-3-2-6 11-11 14-25 16-40 2-17 6-33 13-48 6-12 14-21 23-30ZM57 223c6-34 21-62 45-85l45-44a4 4 0 0 1 3-1c-3 5-7 11-9 17l-19 48a90 90 0 0 1-28 40c-15 11-27 25-36 42a37 37 0 0 1-2 4l-2 1 3-22Zm10 132c-2-7-5-14-6-22l-7-44c-4-27 9-47 28-64a12 12 0 0 1 3-1c-21 42-24 86-17 131Zm12 17c-11-41-11-81 2-121 3-12 10-22 16-33 2-4 7-6 10-8 5-3 10-2 14 1 10 6 15 16 18 26 7 20 12 40 14 61 2 24 6 47 10 70l6 24a12 12 0 0 0 2 5c-5-37-13-73-15-110l2-1a16 16 0 0 0 2 3c26 29 43 63 53 101 6 23 18 42 36 58 16 12 27 29 38 46 23 35 47 70 81 96 17 13 36 23 56 31l11 4 8 4v2l-18 4c-29 4-57 2-86-6a354 354 0 0 1-85-33A365 365 0 0 1 79 372Zm126 199-1 1-20-6c-13-5-26-10-39-17-26-14-47-35-61-61l-23-43c52 38 94 86 144 126Zm71 78c-41-5-77-23-110-48-13-9-25-20-37-30l-2-1c21 25 47 45 76 60l-1 1-24-10A350 350 0 0 1 14 455c-5-12-10-25-7-39 2-8 7-11 15-7 9 5 16 12 21 21l42 70c12 21 30 36 50 50a205 205 0 0 0 73 33c19 4 35 13 51 22 35 19 72 32 111 36l14 3v2a29 29 0 0 1-4 2c-35 6-69 5-104 1Zm161 2c-15 6-31 10-47 9h-25a45 45 0 0 1-5-1v-1a15 15 0 0 1 3-1c30-6 60-13 91-18-4 6-11 9-17 12Zm42-32c-4 2-10 3-15 3-32-2-61-13-84-36-27-28-47-60-61-97-15-40-25-81-31-124l-6-41h-1l1 22c3 30 7 60 14 89 10 39 23 76 44 110l22 27 2 3-1 1-6-4c-19-17-34-37-49-57-18-27-35-56-47-87a311 311 0 0 1-21-108c-1-32 4-64 12-95 6-23 10-47 14-71 4-18 7-36 15-52 6-14 14-28 25-39 10-10 22-15 37-12l50 11 44 4a258 258 0 0 1 27 6 7 7 0 0 1 4 4l13 45a53 53 0 0 0 5 11c-1-19-6-38-11-56l1-1 24 11c24 13 36 35 45 60l4 24 3 16h1a12 12 0 0 0 1-2l1-13c-4-20 9-31 23-40 13-9 22-4 29 7 10 16 15 33 18 51a403 403 0 0 1 7 48 618 618 0 0 1-15 176c-8 35-18 68-33 99-12 27-26 53-47 74-12 12-24 22-41 28l-2 1c45-47 59-104 62-166h-2l-3 16c-4 29-10 58-22 86-8 18-17 35-30 50a95 95 0 0 1-20 18Zm4 22c4-6 8-11 15-11 13-2 26-7 40-6l21 2c-5 12-59 25-76 15Zm383-339a437 437 0 0 1-76 176c-18 23-36 44-58 63l-2 2c15-18 30-36 41-56-22 25-44 51-70 73 7-10 17-18 22-29l-33 32c-14 11-27 23-41 32-24 14-50 20-78 23l-19 1-1-1 13-5c28-10 54-22 77-40a1265 1265 0 0 0 118-107 213 213 0 0 0 42-62c13-30 19-61 13-93-3-18-1-36 8-53 4-9 5-19 6-29 1-9 2-18 5-27 3-10 9-17 20-19 7-2 12 0 14 6a73 73 0 0 1 5 21c3 31-1 62-6 92Zm-371 41-3 22a14 14 0 0 1-1 3h-2c4-90 1-179-24-267h1l5 10 8 27a797 797 0 0 1 16 205Zm88 124c7-45 18-90 18-136 1-45 0-91-5-137 18 92 15 183-13 273ZM323 279l-2 1-2-11-3-29c-1-38 1-77 8-114l6-22a26 26 0 0 1 2-4h2c-14 59-14 119-11 179Zm67 109c4 76 20 148 64 211l-1 1-5-7c-21-26-33-56-43-87a382 382 0 0 1-16-91v-27Zm153-1c0 58-2 115-26 170 6-28 12-56 16-84 4-29 6-58 8-86ZM432 535c-13-22-29-93-26-113 3 19 6 38 11 57l15 56Zm-93-393-5 70c-6-7-2-57 5-70ZM139 448a358 358 0 0 0 222 181c-44-8-84-26-120-54-44-35-79-76-102-127Zm79 61c-28-30-52-89-55-115a408 408 0 0 0 55 115Zm15-2c24 26 52 46 80 68-31-18-59-39-80-68Zm77 79 76 34c-27-6-53-18-76-34Zm377-169c5-54 7-108 15-162 4 55 0 109-15 162Zm149-89c6-25 10-51 15-77-3 53-13 104-35 153l20-76Zm-6-2h-2l7-54h2c-1 19-2 36-7 54ZM245 633l55 16c-40-2-74-15-104-39 17 8 33 17 49 23Z" />
</svg>