<svg width="61" height="61" viewBox="0 0 61 61" fill="none" xmlns="http://www.w3.org/2000/svg">
<g clip-path="url(#clip0_582_96)">
<path d="M4.92227 41.6235H3.12227C2.8556 41.6235 2.62227 41.5235 2.42227 41.3235C2.22227 41.1235 2.12227 40.8902 2.12227 40.6235V38.6235C2.12227 38.3569 2.02227 38.1569 1.82227 38.0235C1.62227 37.8902 1.42227 37.8235 1.22227 37.8235C1.02227 37.8235 0.822266 37.8902 0.622266 38.0235C0.422266 38.1569 0.322266 38.3569 0.322266 38.6235V40.6235C0.322266 41.2902 0.588932 41.8902 1.12227 42.4235C1.6556 42.9569 2.32227 43.2235 3.12227 43.2235H4.92227C5.18893 43.2235 5.42227 43.1569 5.62227 43.0235C5.82227 42.8902 5.92227 42.6902 5.92227 42.4235C5.92227 42.1569 5.82227 41.9569 5.62227 41.8235C5.42227 41.6902 5.18893 41.6235 4.92227 41.6235ZM4.92227 7.82353H3.12227C2.32227 7.82353 1.6556 8.0902 1.12227 8.62353C0.588932 9.15687 0.322266 9.75687 0.322266 10.4235V12.4235C0.322266 12.6902 0.422266 12.8902 0.622266 13.0235C0.822266 13.1569 1.02227 13.2235 1.22227 13.2235C1.42227 13.2235 1.62227 13.1569 1.82227 13.0235C2.02227 12.8902 2.12227 12.6902 2.12227 12.4235V10.4235C2.12227 10.1569 2.22227 9.92353 2.42227 9.72353C2.62227 9.52353 2.8556 9.42353 3.12227 9.42353H4.92227C5.18893 9.42353 5.42227 9.35687 5.62227 9.22353C5.82227 9.0902 5.92227 8.8902 5.92227 8.62353C5.92227 8.35687 5.82227 8.15687 5.62227 8.02353C5.42227 7.8902 5.18893 7.82353 4.92227 7.82353ZM1.12227 30.2235C0.988932 30.2235 0.822266 30.3235 0.622266 30.5235C0.422266 30.7235 0.322266 30.9569 0.322266 31.2235V34.8235C0.322266 35.0902 0.422266 35.3235 0.622266 35.5235C0.822266 35.7235 1.02227 35.8235 1.22227 35.8235C1.42227 35.8235 1.62227 35.7235 1.82227 35.5235C2.02227 35.3235 2.12227 35.0902 2.12227 34.8235V31.2235C2.12227 30.9569 2.02227 30.7235 1.82227 30.5235C1.62227 30.3235 1.38893 30.2235 1.12227 30.2235ZM1.12227 22.8235C0.988932 22.8235 0.822266 22.8902 0.622266 23.0235C0.422266 23.1569 0.322266 23.3569 0.322266 23.6235V27.4235C0.322266 27.6902 0.422266 27.8902 0.622266 28.0235C0.822266 28.1569 1.02227 28.2235 1.22227 28.2235C1.42227 28.2235 1.62227 28.1569 1.82227 28.0235C2.02227 27.8902 2.12227 27.6902 2.12227 27.4235V23.6235C2.12227 23.3569 2.02227 23.1569 1.82227 23.0235C1.62227 22.8902 1.38893 22.8235 1.12227 22.8235ZM1.12227 15.2235C0.988932 15.2235 0.822266 15.3235 0.622266 15.5235C0.422266 15.7235 0.322266 15.9569 0.322266 16.2235V19.8235C0.322266 20.0902 0.422266 20.3235 0.622266 20.5235C0.822266 20.7235 1.02227 20.8235 1.22227 20.8235C1.42227 20.8235 1.62227 20.7235 1.82227 20.5235C2.02227 20.3235 2.12227 20.0902 2.12227 19.8235V16.2235C2.12227 15.9569 2.02227 15.7235 1.82227 15.5235C1.62227 15.3235 1.38893 15.2235 1.12227 15.2235ZM42.5223 30.2235C42.2556 30.2235 42.0556 30.3235 41.9223 30.5235C41.7889 30.7235 41.7223 30.9569 41.7223 31.2235V34.8235C41.7223 35.0902 41.7889 35.3235 41.9223 35.5235C42.0556 35.7235 42.2556 35.8235 42.5223 35.8235C42.7889 35.8235 42.9889 35.7235 43.1223 35.5235C43.2556 35.3235 43.3223 35.0902 43.3223 34.8235V31.2235C43.3223 30.9569 43.2556 30.7235 43.1223 30.5235C42.9889 30.3235 42.7889 30.2235 42.5223 30.2235ZM42.5223 22.8235C42.2556 22.8235 42.0556 22.8902 41.9223 23.0235C41.7889 23.1569 41.7223 23.3569 41.7223 23.6235V27.4235C41.7223 27.6902 41.7889 27.8902 41.9223 28.0235C42.0556 28.1569 42.2556 28.2235 42.5223 28.2235C42.7889 28.2235 42.9889 28.1569 43.1223 28.0235C43.2556 27.8902 43.3223 27.6902 43.3223 27.4235V23.6235C43.3223 23.3569 43.2556 23.1569 43.1223 23.0235C42.9889 22.8902 42.7889 22.8235 42.5223 22.8235ZM42.5223 15.2235C42.2556 15.2235 42.0556 15.3235 41.9223 15.5235C41.7889 15.7235 41.7223 15.9569 41.7223 16.2235V19.8235C41.7223 20.0902 41.7889 20.3235 41.9223 20.5235C42.0556 20.7235 42.2556 20.8235 42.5223 20.8235C42.7889 20.8235 42.9889 20.7235 43.1223 20.5235C43.2556 20.3235 43.3223 20.0902 43.3223 19.8235V16.2235C43.3223 15.9569 43.2556 15.7235 43.1223 15.5235C42.9889 15.3235 42.7889 15.2235 42.5223 15.2235ZM40.7223 7.82353H38.7223C38.4556 7.82353 38.2556 7.8902 38.1223 8.02353C37.9889 8.15687 37.9223 8.35687 37.9223 8.62353C37.9223 8.8902 37.9889 9.0902 38.1223 9.22353C38.2556 9.35687 38.4556 9.42353 38.7223 9.42353H40.7223C40.9889 9.42353 41.2223 9.52353 41.4223 9.72353C41.6223 9.92353 41.7223 10.1569 41.7223 10.4235V12.4235C41.7223 12.6902 41.7889 12.8902 41.9223 13.0235C42.0556 13.1569 42.2556 13.2235 42.5223 13.2235C42.7889 13.2235 42.9889 13.1569 43.1223 13.0235C43.2556 12.8902 43.3223 12.6902 43.3223 12.4235V10.4235C43.3223 9.75687 43.0556 9.15687 42.5223 8.62353C41.9889 8.0902 41.3889 7.82353 40.7223 7.82353ZM12.5223 7.82353H8.72227C8.4556 7.82353 8.2556 7.8902 8.12227 8.02353C7.98893 8.15687 7.92227 8.35687 7.92227 8.62353C7.92227 8.8902 7.98893 9.0902 8.12227 9.22353C8.2556 9.35687 8.4556 9.42353 8.72227 9.42353H12.5223C12.7889 9.42353 12.9889 9.35687 13.1223 9.22353C13.2556 9.0902 13.3223 8.8902 13.3223 8.62353C13.3223 8.35687 13.2556 8.15687 13.1223 8.02353C12.9889 7.8902 12.7889 7.82353 12.5223 7.82353ZM19.9223 7.82353H16.3223C16.0556 7.82353 15.8223 7.8902 15.6223 8.02353C15.4223 8.15687 15.3223 8.35687 15.3223 8.62353C15.3223 8.8902 15.4223 9.0902 15.6223 9.22353C15.8223 9.35687 16.0556 9.42353 16.3223 9.42353H19.9223C20.1889 9.42353 20.4223 9.35687 20.6223 9.22353C20.8223 9.0902 20.9223 8.8902 20.9223 8.62353C20.9223 8.35687 20.8223 8.15687 20.6223 8.02353C20.4223 7.8902 20.1889 7.82353 19.9223 7.82353ZM27.5223 7.82353H23.7223C23.4556 7.82353 23.2556 7.8902 23.1223 8.02353C22.9889 8.15687 22.9223 8.35687 22.9223 8.62353C22.9223 8.8902 22.9889 9.0902 23.1223 9.22353C23.2556 9.35687 23.4556 9.42353 23.7223 9.42353H27.5223C27.7889 9.42353 27.9889 9.35687 28.1223 9.22353C28.2556 9.0902 28.3223 8.8902 28.3223 8.62353C28.3223 8.35687 28.2556 8.15687 28.1223 8.02353C27.9889 7.8902 27.7889 7.82353 27.5223 7.82353ZM34.9223 7.82353H31.3223C31.0556 7.82353 30.8223 7.8902 30.6223 8.02353C30.4223 8.15687 30.3223 8.35687 30.3223 8.62353C30.3223 8.8902 30.4223 9.0902 30.6223 9.22353C30.8223 9.35687 31.0556 9.42353 31.3223 9.42353H34.9223C35.1889 9.42353 35.4223 9.35687 35.6223 9.22353C35.8223 9.0902 35.9223 8.8902 35.9223 8.62353C35.9223 8.35687 35.8223 8.15687 35.6223 8.02353C35.4223 7.8902 35.1889 7.82353 34.9223 7.82353ZM12.5223 41.6235H8.72227C8.4556 41.6235 8.2556 41.6902 8.12227 41.8235C7.98893 41.9569 7.92227 42.1569 7.92227 42.4235C7.92227 42.6902 7.98893 42.8902 8.12227 43.0235C8.2556 43.1569 8.4556 43.2235 8.72227 43.2235H12.5223C12.7889 43.2235 12.9889 43.1569 13.1223 43.0235C13.2556 42.8902 13.3223 42.6902 13.3223 42.4235C13.3223 42.1569 13.2556 41.9569 13.1223 41.8235C12.9889 41.6902 12.7889 41.6235 12.5223 41.6235ZM19.9223 41.6235H16.3223C16.0556 41.6235 15.8223 41.6902 15.6223 41.8235C15.4223 41.9569 15.3223 42.1569 15.3223 42.4235C15.3223 42.6902 15.4223 42.8902 15.6223 43.0235C15.8223 43.1569 16.0556 43.2235 16.3223 43.2235H19.9223C20.1889 43.2235 20.4223 43.1569 20.6223 43.0235C20.8223 42.8902 20.9223 42.6902 20.9223 42.4235C20.9223 42.1569 20.8223 41.9569 20.6223 41.8235C20.4223 41.6902 20.1889 41.6235 19.9223 41.6235ZM27.5223 41.6235H23.7223C23.4556 41.6235 23.2556 41.6902 23.1223 41.8235C22.9889 41.9569 22.9223 42.1569 22.9223 42.4235C22.9223 42.6902 22.9889 42.8902 23.1223 43.0235C23.2556 43.1569 23.4556 43.2235 23.7223 43.2235H27.5223C27.7889 43.2235 27.9889 43.1569 28.1223 43.0235C28.2556 42.8902 28.3223 42.6902 28.3223 42.4235C28.3223 42.1569 28.2556 41.9569 28.1223 41.8235C27.9889 41.6902 27.7889 41.6235 27.5223 41.6235ZM34.9223 41.6235H31.3223C31.0556 41.6235 30.8223 41.6902 30.6223 41.8235C30.4223 41.9569 30.3223 42.1569 30.3223 42.4235C30.3223 42.6902 30.4223 42.8902 30.6223 43.0235C30.8223 43.1569 31.0556 43.2235 31.3223 43.2235H34.9223C35.1889 43.2235 35.4223 43.1569 35.6223 43.0235C35.8223 42.8902 35.9223 42.6902 35.9223 42.4235C35.9223 42.1569 35.8223 41.9569 35.6223 41.8235C35.4223 41.6902 35.1889 41.6235 34.9223 41.6235ZM56.1223 44.4235H53.3223C52.2556 44.4235 51.3223 44.7569 50.5223 45.4235L47.1223 43.2235V42.4235V41.6235L50.5223 39.4235C51.3223 40.0902 52.2556 40.4235 53.3223 40.4235H56.1223C57.3223 40.4235 58.3223 40.0235 59.1223 39.2235C59.9223 38.4235 60.3223 37.4569 60.3223 36.3235C60.3223 35.1902 59.9223 34.2235 59.1223 33.4235C58.3223 32.6235 57.3223 32.2235 56.1223 32.2235H53.3223C52.1223 32.2235 51.1223 32.6235 50.3223 33.4235C49.5223 34.2235 49.1223 35.2235 49.1223 36.4235C49.1223 36.9569 49.2556 37.4902 49.5223 38.0235L46.1223 40.2235C45.5889 39.8235 45.0223 39.6235 44.4223 39.6235C43.8223 39.6235 43.2556 39.8235 42.7223 40.2235L32.7223 33.6235C32.4556 33.4902 32.2223 33.4235 32.0223 33.4235C31.8223 33.4235 31.6556 33.5235 31.5223 33.7235C31.3889 33.9235 31.3223 34.1569 31.3223 34.4235C31.3223 34.6902 31.4556 34.8902 31.7223 35.0235L41.7223 41.6235V42.4235V43.2235L31.7223 49.8235C31.4556 49.9569 31.3223 50.1569 31.3223 50.4235C31.3223 50.6902 31.3889 50.9235 31.5223 51.1235C31.6556 51.3235 31.8556 51.4235 32.1223 51.4235C32.3889 51.4235 32.5889 51.3569 32.7223 51.2235L42.7223 44.6235C43.2556 45.0235 43.8223 45.2235 44.4223 45.2235C45.0223 45.2235 45.5889 45.0235 46.1223 44.6235L49.5223 46.8235C49.2556 47.3569 49.1223 47.9569 49.1223 48.6235C49.1223 49.6902 49.5223 50.6235 50.3223 51.4235C51.1223 52.2235 52.1223 52.6235 53.3223 52.6235H56.1223C57.3223 52.6235 58.3223 52.2235 59.1223 51.4235C59.9223 50.6235 60.3223 49.6569 60.3223 48.5235C60.3223 47.3902 59.9223 46.4235 59.1223 45.6235C58.3223 44.8235 57.3223 44.4235 56.1223 44.4235ZM53.3223 33.8235H56.1223C56.7889 33.8235 57.3556 34.0902 57.8223 34.6235C58.2889 35.1569 58.5223 35.7569 58.5223 36.4235C58.5223 37.0902 58.2889 37.6569 57.8223 38.1235C57.3556 38.5902 56.7889 38.8235 56.1223 38.8235H53.3223C52.6556 38.8235 52.0889 38.5902 51.6223 38.1235C51.1556 37.6569 50.9223 37.0902 50.9223 36.4235C50.9223 35.7569 51.1556 35.1569 51.6223 34.6235C52.0889 34.0902 52.6556 33.8235 53.3223 33.8235ZM44.3223 43.4235C44.0556 43.4235 43.8223 43.3235 43.6223 43.1235C43.4223 42.9235 43.3223 42.6902 43.3223 42.4235C43.3223 42.1569 43.4223 41.9235 43.6223 41.7235C43.8223 41.5235 44.0889 41.4235 44.4223 41.4235C44.7556 41.4235 44.9889 41.5235 45.1223 41.7235C45.2556 41.9235 45.3223 42.1569 45.3223 42.4235C45.3223 42.6902 45.2556 42.9235 45.1223 43.1235C44.9889 43.3235 44.7223 43.4235 44.3223 43.4235ZM56.1223 51.0235H53.3223C52.6556 51.0235 52.0889 50.7902 51.6223 50.3235C51.1556 49.8569 50.9223 49.2902 50.9223 48.6235C50.9223 47.9569 51.1556 47.3902 51.6223 46.9235C52.0889 46.4569 52.6556 46.2235 53.3223 46.2235H56.1223C56.7889 46.2235 57.3556 46.4569 57.8223 46.9235C58.2889 47.3902 58.5223 47.9569 58.5223 48.6235C58.5223 49.2902 58.2889 49.8569 57.8223 50.3235C57.3556 50.7902 56.7889 51.0235 56.1223 51.0235ZM29.5223 17.8235C29.3889 17.6902 29.1889 17.6235 28.9223 17.6235C28.6556 17.6235 28.4556 17.6902 28.3223 17.8235L14.1223 32.0235C13.9889 32.1569 13.9223 32.3569 13.9223 32.6235C13.9223 32.8902 14.0223 33.0902 14.2223 33.2235C14.4223 33.3569 14.6223 33.4235 14.8223 33.4235C15.0223 33.4235 15.2556 33.3569 15.5223 33.2235L29.5223 19.0235C29.6556 18.8902 29.7223 18.6902 29.7223 18.4235C29.7223 18.1569 29.6556 17.9569 29.5223 17.8235ZM17.1223 17.2235C16.1889 17.2235 15.3556 17.5569 14.6223 18.2235C13.8889 18.8902 13.5223 19.7569 13.5223 20.8235C13.5223 21.8902 13.8889 22.7902 14.6223 23.5235C15.3556 24.2569 16.2223 24.6235 17.2223 24.6235C18.2223 24.6235 19.0889 24.2569 19.8223 23.5235C20.5556 22.7902 20.9223 21.8902 20.9223 20.8235C20.9223 19.7569 20.5556 18.8902 19.8223 18.2235C19.0889 17.5569 18.1889 17.2235 17.1223 17.2235ZM17.1223 22.8235C16.5889 22.8235 16.1556 22.6235 15.8223 22.2235C15.4889 21.8235 15.3223 21.3569 15.3223 20.8235C15.3223 20.2902 15.4889 19.8235 15.8223 19.4235C16.1556 19.0235 16.5889 18.8235 17.1223 18.8235C17.6556 18.8235 18.1223 19.0235 18.5223 19.4235C18.9223 19.8235 19.1223 20.2902 19.1223 20.8235C19.1223 21.3569 18.9223 21.8235 18.5223 22.2235C18.1223 22.6235 17.6556 22.8235 17.1223 22.8235ZM26.5223 26.6235C25.5889 26.6235 24.7556 26.9569 24.0223 27.6235C23.2889 28.2902 22.9223 29.1569 22.9223 30.2235C22.9223 31.2902 23.2889 32.1569 24.0223 32.8235C24.7556 33.4902 25.6223 33.8235 26.6223 33.8235C27.6223 33.8235 28.4889 33.4902 29.2223 32.8235C29.9556 32.1569 30.3223 31.2902 30.3223 30.2235C30.3223 29.1569 29.9556 28.2902 29.2223 27.6235C28.4889 26.9569 27.5889 26.6235 26.5223 26.6235ZM26.5223 32.2235C25.9889 32.2235 25.5556 32.0235 25.2223 31.6235C24.8889 31.2235 24.7223 30.7569 24.7223 30.2235C24.7223 29.6902 24.8889 29.2235 25.2223 28.8235C25.5556 28.4235 25.9889 28.2235 26.5223 28.2235C27.0556 28.2235 27.5223 28.4235 27.9223 28.8235C28.3223 29.2235 28.5223 29.6902 28.5223 30.2235C28.5223 30.7569 28.3223 31.2235 27.9223 31.6235C27.5223 32.0235 27.0556 32.2235 26.5223 32.2235Z" fill="#DB7137"/>
</g>
<defs>
<clipPath id="clip0_582_96">
<rect width="60.02" height="60" fill="white" transform="matrix(1 0 0 -1 0.3125 60.2236)"/>
</clipPath>
</defs>
</svg>
