<svg width="48" height="48" viewBox="0 0 48 48" fill="none" xmlns="http://www.w3.org/2000/svg">
<g clip-path="url(#clip0_582_81)">
<path d="M45.462 10.5636L24.1553 0.223633C23.9464 0.223633 23.7375 0.223633 23.5286 0.223633L2.22195 10.5636C1.90862 10.6681 1.75195 10.877 1.75195 11.1903V36.257C1.75195 36.5703 1.90862 36.7792 2.22195 36.8836L23.5286 47.2236H23.842H24.1553L45.462 36.8836C45.7753 36.7792 45.932 36.5703 45.932 36.257V11.1903C45.932 10.877 45.7753 10.6681 45.462 10.5636ZM23.842 1.63363L43.582 11.1903L37.942 14.0103L18.202 4.45363L23.842 1.63363ZM16.6353 5.23697L36.3753 14.7936L32.302 16.6736L12.562 7.11697L16.6353 5.23697ZM36.6886 16.047V23.2536L32.9286 25.1336V17.927L36.6886 16.047ZM44.522 35.787L24.4686 45.5003V22.0003L29.3253 19.6503C29.4297 19.5459 29.5342 19.4153 29.6386 19.2586C29.7431 19.102 29.7431 18.9192 29.6386 18.7103C29.5342 18.5014 29.4036 18.3709 29.247 18.3186C29.0903 18.2664 28.9075 18.2925 28.6986 18.397L23.842 20.747L21.962 19.807C21.7531 19.7025 21.5703 19.7025 21.4136 19.807C21.257 19.9114 21.1264 20.042 21.022 20.1986C20.9175 20.3553 20.8914 20.512 20.9436 20.6686C20.9958 20.8253 21.1264 20.9559 21.3353 21.0603L23.2153 22.0003V45.5003L3.16195 35.787V12.287L18.3586 19.6503H18.672C18.9853 19.6503 19.1942 19.5459 19.2986 19.337C19.4031 19.1281 19.4292 18.9453 19.377 18.7886C19.3247 18.632 19.1942 18.5014 18.9853 18.397L4.10195 11.1903L10.9953 7.9003L31.6753 17.927V26.2303C31.6753 26.4392 31.7536 26.5959 31.9103 26.7003C32.067 26.8047 32.1975 26.857 32.302 26.857H32.6153L37.7853 24.3503C37.9942 24.2459 38.0986 24.037 38.0986 23.7236V15.4203L44.522 12.287V35.787ZM8.80195 33.1236L5.66862 31.557C5.56418 31.557 5.40751 31.5831 5.19862 31.6353C4.98973 31.6875 4.85918 31.792 4.80695 31.9486C4.75473 32.1053 4.75473 32.2881 4.80695 32.497C4.85918 32.7059 4.98973 32.8103 5.19862 32.8103L8.33195 34.377H8.64529C8.85418 34.377 9.01084 34.2725 9.11529 34.0636C9.21973 33.8547 9.24584 33.672 9.19362 33.5153C9.1414 33.3586 9.01084 33.2281 8.80195 33.1236ZM11.7786 31.2436L5.66862 28.4236C5.56418 28.3192 5.40751 28.2931 5.19862 28.3453C4.98973 28.3975 4.85918 28.502 4.80695 28.6586C4.75473 28.8153 4.75473 28.9981 4.80695 29.207C4.85918 29.4159 4.98973 29.5203 5.19862 29.5203L11.152 32.497H11.4653C11.7786 32.497 11.9875 32.3925 12.092 32.1836C12.1964 31.9747 12.1964 31.792 12.092 31.6353C11.9875 31.4786 11.8831 31.3481 11.7786 31.2436Z" fill="#DB7137"/>
</g>
<defs>
<clipPath id="clip0_582_81">
<rect width="47.02" height="47" fill="white" transform="matrix(1 0 0 -1 0.332031 47.2236)"/>
</clipPath>
</defs>
</svg>
