<svg width="59" height="59" viewBox="0 0 59 59" fill="none" xmlns="http://www.w3.org/2000/svg">
<g clip-path="url(#clip0_582_91)">
<path d="M36.6689 6.21689H13.8556C11.4067 6.21689 9.15115 6.79689 7.08893 7.95689C5.02671 9.11689 3.38338 10.7602 2.15893 12.8869C0.934488 15.0136 0.322266 17.3013 0.322266 19.7502C0.322266 22.1991 0.934488 24.4547 2.15893 26.5169C3.38338 28.5791 5.02671 30.2224 7.08893 31.4469C9.15115 32.6713 11.4067 33.2836 13.8556 33.2836H36.6689C37.3134 33.2836 37.9578 33.2191 38.6023 33.0902C38.7312 33.0902 38.8923 32.9936 39.0856 32.8002C39.2789 32.6069 39.3434 32.3813 39.2789 32.1236C39.2145 31.8658 39.0856 31.6724 38.8923 31.5436C38.6989 31.4147 38.4734 31.3502 38.2156 31.3502C37.7 31.4791 37.1845 31.5436 36.6689 31.5436H13.8556C11.7934 31.5436 9.82782 31.028 7.95893 29.9969C6.09004 28.9658 4.64004 27.5158 3.60893 25.6469C2.57782 23.778 2.06227 21.7802 2.06227 19.6536C2.06227 17.5269 2.57782 15.5613 3.60893 13.7569C4.64004 11.9524 6.09004 10.5024 7.95893 9.40689C9.82782 8.31134 11.7934 7.76356 13.8556 7.76356H36.6689C38.7312 7.76356 40.6645 8.31134 42.4689 9.40689C44.2734 10.5024 45.7234 11.9524 46.8189 13.7569C47.9145 15.5613 48.4623 17.4947 48.4623 19.5569C48.4623 21.6191 48.0112 23.5524 47.1089 25.3569C46.98 25.4858 46.9478 25.6791 47.0123 25.9369C47.0767 26.1947 47.2056 26.3558 47.3989 26.4202C47.5923 26.4847 47.8178 26.4847 48.0756 26.4202C48.3334 26.3558 48.4623 26.2591 48.4623 26.1302C49.6223 24.068 50.2023 21.8769 50.2023 19.5569C50.2023 17.2369 49.59 15.0136 48.3656 12.8869C47.1412 10.7602 45.4978 9.11689 43.4356 7.95689C41.3734 6.79689 39.1178 6.21689 36.6689 6.21689ZM17.5289 19.3636C18.0445 18.7191 18.3023 17.9136 18.3023 16.9469C18.3023 15.9802 17.9478 15.1424 17.2389 14.4336C16.53 13.7247 15.7245 13.3702 14.8223 13.3702H11.1489C10.8912 13.3702 10.6978 13.4669 10.5689 13.6602C10.44 13.8536 10.3756 14.0147 10.3756 14.1436V25.1636C10.3756 25.4213 10.44 25.6147 10.5689 25.7436C10.6978 25.8724 10.8912 25.9369 11.1489 25.9369H15.7889C16.6912 25.9369 17.4967 25.5824 18.2056 24.8736C18.9145 24.1647 19.2689 23.3591 19.2689 22.4569C19.2689 21.8124 19.1078 21.2002 18.7856 20.6202C18.4634 20.0402 18.0445 19.6213 17.5289 19.3636ZM11.9223 15.1102H14.8223C15.3378 15.1102 15.7889 15.3036 16.1756 15.6902C16.5623 16.0769 16.7556 16.528 16.7556 17.0436C16.7556 17.5591 16.5623 17.978 16.1756 18.3002C15.7889 18.6224 15.3378 18.7836 14.8223 18.7836H11.9223V15.1102ZM15.7889 24.1969H11.9223V20.5236H15.7889C16.3045 20.5236 16.7234 20.7169 17.0456 21.1036C17.3678 21.4902 17.5289 21.9413 17.5289 22.4569C17.5289 22.9724 17.3678 23.3913 17.0456 23.7136C16.7234 24.0358 16.3045 24.1969 15.7889 24.1969ZM28.3556 13.3702C28.0978 13.3702 27.9045 13.4669 27.7756 13.6602C27.6467 13.8536 27.5823 14.0147 27.5823 14.1436V21.8769C27.5823 22.5213 27.3567 23.0691 26.9056 23.5202C26.4545 23.9713 25.9067 24.1969 25.2623 24.1969C24.6178 24.1969 24.07 23.9713 23.6189 23.5202C23.1678 23.0691 22.9423 22.5213 22.9423 21.8769V14.1436C22.9423 14.0147 22.8456 13.8536 22.6523 13.6602C22.4589 13.4669 22.2656 13.3702 22.0723 13.3702C21.8789 13.3702 21.6856 13.4669 21.4923 13.6602C21.2989 13.8536 21.2023 14.0147 21.2023 14.1436V21.8769C21.2023 23.0369 21.5889 24.0036 22.3623 24.7769C23.1356 25.5502 24.07 25.9369 25.1656 25.9369C26.2612 25.9369 27.2278 25.5502 28.0656 24.7769C28.9034 24.0036 29.3223 23.0369 29.3223 21.8769V14.1436C29.3223 14.0147 29.2256 13.8536 29.0323 13.6602C28.8389 13.4669 28.6134 13.3702 28.3556 13.3702ZM39.7623 13.5636C39.5045 13.4347 39.2789 13.4024 39.0856 13.4669C38.8923 13.5313 38.7312 13.628 38.6023 13.7569L35.7023 18.9769L32.8023 13.7569C32.6734 13.628 32.48 13.5313 32.2223 13.4669C31.9645 13.4024 31.7389 13.4347 31.5456 13.5636C31.3523 13.6924 31.2234 13.8536 31.1589 14.0469C31.0945 14.2402 31.1267 14.4658 31.2556 14.7236L34.7356 20.9102V25.1636C34.7356 25.4213 34.8323 25.6147 35.0256 25.7436C35.2189 25.8724 35.4445 25.9369 35.7023 25.9369C35.96 25.9369 36.1534 25.8724 36.2823 25.7436C36.4112 25.6147 36.4756 25.4213 36.4756 25.1636V20.9102L39.9556 14.7236C40.0845 14.4658 40.1167 14.2402 40.0523 14.0469C39.9878 13.8536 39.8912 13.6924 39.7623 13.5636ZM57.9356 38.3102L42.4689 24.7769C42.2112 24.5191 41.9212 24.4547 41.5989 24.5836C41.2767 24.7124 41.1156 24.9702 41.1156 25.3569V46.0436C41.1156 46.4302 41.3089 46.688 41.6956 46.8169H41.8889C42.1467 46.8169 42.34 46.7524 42.4689 46.6236L48.0756 40.8236L53.1023 51.8436C53.2312 52.1013 53.4889 52.2302 53.8756 52.2302H54.2623C54.3912 52.1013 54.4878 51.9402 54.5523 51.7469C54.6167 51.5536 54.6489 51.328 54.6489 51.0702L49.6223 40.2436L57.5489 39.8569C57.9356 39.728 58.1934 39.5024 58.3223 39.1802C58.4512 38.858 58.3223 38.568 57.9356 38.3102ZM48.2689 38.5036C48.0112 38.5036 47.8178 38.568 47.6889 38.6969L42.8556 43.9169L42.6623 27.2902L55.2289 38.1169L48.2689 38.5036Z" fill="#DB7137"/>
</g>
<defs>
<clipPath id="clip0_582_91">
<rect width="58.02" height="58" fill="white" transform="matrix(1 0 0 -1 0.3125 58.2236)"/>
</clipPath>
</defs>
</svg>
