<svg width="54" height="54" viewBox="0 0 54 54" fill="none" xmlns="http://www.w3.org/2000/svg">
<path d="M36.5507 21.6513C35.9596 21.1446 35.2418 20.9757 34.3974 21.1446L29.3307 21.9046C28.9085 21.9891 28.3596 22.0735 27.6841 22.1579V17.8513C27.6841 17.6824 27.6207 17.5346 27.4941 17.4079C27.3674 17.2813 27.2196 17.2179 27.0507 17.2179C26.8818 17.2179 26.7341 17.2813 26.6074 17.4079C26.4807 17.5346 26.4174 17.6824 26.4174 17.8513V22.1579C25.7418 22.0735 25.193 21.9891 24.7707 21.9046L19.7041 21.1446C18.8596 20.9757 18.1418 21.1446 17.5507 21.6513C16.9596 22.1579 16.6641 22.8335 16.6641 23.6779V26.5913C16.6641 26.7602 16.7274 26.9079 16.8541 27.0346C16.9807 27.1613 17.1285 27.2246 17.2974 27.2246H17.4241V43.1846C17.4241 44.0291 17.7196 44.7468 18.3107 45.3379C18.9018 45.9291 19.6196 46.2246 20.4641 46.2246H33.6374C34.4818 46.2246 35.1996 45.9291 35.7907 45.3379C36.3818 44.7468 36.6774 44.0291 36.6774 43.1846V27.2246H36.8041C36.973 27.2246 37.1207 27.1613 37.2474 27.0346C37.3741 26.9079 37.4374 26.7602 37.4374 26.5913V23.6779C37.4374 22.8335 37.1418 22.1579 36.5507 21.6513ZM35.4107 43.1846C35.4107 43.6913 35.2418 44.1135 34.9041 44.4513C34.5663 44.7891 34.1441 44.9579 33.6374 44.9579H20.4641C19.9574 44.9579 19.5352 44.7891 19.1974 44.4513C18.8596 44.1135 18.6907 43.6913 18.6907 43.1846V27.6046L19.3241 27.9846C19.8307 28.2379 20.2107 28.4491 20.4641 28.6179C20.9707 28.7868 21.5407 28.8713 22.1741 28.8713C22.8074 28.8713 23.3774 28.7868 23.8841 28.6179C24.1374 28.4491 24.4752 28.2379 24.8974 27.9846C25.3196 27.7313 25.6574 27.5413 25.9107 27.4146C26.1641 27.2879 26.5441 27.2246 27.0507 27.2246C27.5574 27.2246 27.9374 27.2879 28.1907 27.4146C28.4441 27.5413 28.7818 27.7313 29.2041 27.9846C29.7107 28.3224 30.1752 28.5757 30.5974 28.7446C30.6818 28.7446 30.8085 28.7024 30.9774 28.6179C31.1463 28.5335 31.2518 28.4279 31.2941 28.3013C31.3363 28.1746 31.3152 28.0268 31.2307 27.8579C31.1463 27.6891 30.9985 27.5624 30.7874 27.4779C30.5763 27.3935 30.2596 27.2246 29.8374 26.9713C29.4152 26.6335 29.0352 26.4224 28.6974 26.3379C28.1907 26.1691 27.6418 26.0846 27.0507 26.0846C26.4596 26.0846 25.9107 26.1691 25.4041 26.3379C25.0663 26.4224 24.6863 26.6335 24.2641 26.9713C23.9263 27.2246 23.6096 27.4146 23.3141 27.5413C23.0185 27.6679 22.6385 27.7313 22.1741 27.7313C21.7096 27.7313 21.3296 27.6679 21.0341 27.5413C20.7385 27.4146 20.4218 27.2246 20.0841 26.9713C19.3241 26.4646 18.5641 26.1691 17.8041 26.0846V23.6779C17.8041 23.2557 17.973 22.9179 18.3107 22.6646C18.6485 22.4113 19.0707 22.3268 19.5774 22.4113L24.5174 23.1713C25.193 23.2557 26.0374 23.2979 27.0507 23.2979C28.0641 23.2979 28.9085 23.2557 29.5841 23.1713L34.5241 22.4113C35.0307 22.3268 35.453 22.4113 35.7907 22.6646C36.1285 22.9179 36.2974 23.2557 36.2974 23.6779V26.0846C35.5374 26.1691 34.7774 26.4646 34.0174 26.9713C33.5952 27.2246 33.2574 27.3935 33.0041 27.4779C32.7507 27.5624 32.6241 27.7735 32.6241 28.1113V34.6979C32.6241 34.8668 32.5607 35.0146 32.4341 35.1413C32.3074 35.2679 32.1596 35.3313 31.9907 35.3313C31.8218 35.3313 31.6741 35.2679 31.5474 35.1413C31.4207 35.0146 31.3574 34.8668 31.3574 34.6979V30.5179C31.3574 30.3491 31.2941 30.2224 31.1674 30.1379C31.0407 30.0535 30.893 30.0113 30.7241 30.0113C30.5552 30.0113 30.4074 30.0535 30.2807 30.1379C30.1541 30.2224 30.0907 30.3491 30.0907 30.5179V34.6979C30.0907 35.2046 30.2807 35.6479 30.6607 36.0279C31.0407 36.4079 31.4841 36.5979 31.9907 36.5979C32.4974 36.5979 32.9196 36.4079 33.2574 36.0279C33.5952 35.6479 33.7641 35.2046 33.7641 34.6979V28.4913C34.0174 28.4068 34.3552 28.2379 34.7774 27.9846L35.4107 27.6046V43.1846ZM24.2641 19.8779C24.3485 19.9624 24.4752 20.0046 24.6441 20.0046C24.813 20.0046 24.9607 19.9413 25.0874 19.8146C25.2141 19.6879 25.2563 19.5402 25.2141 19.3713C25.1718 19.2024 25.1085 19.0757 25.0241 18.9913C24.1796 18.3157 23.7574 17.4291 23.7574 16.3313C23.7574 15.4868 24.0318 14.4946 24.5807 13.3546C25.1296 12.2146 25.953 11.0113 27.0507 9.74461C28.1485 11.0113 28.9718 12.2146 29.5207 13.3546C30.0696 14.4946 30.3441 15.4868 30.3441 16.3313C30.3441 17.4291 29.9218 18.3157 29.0774 18.9913C28.993 19.0757 28.9296 19.2024 28.8874 19.3713C28.8452 19.5402 28.8874 19.6879 29.0141 19.8146C29.1407 19.9413 29.2885 20.0046 29.4574 20.0046C29.6263 20.0046 29.753 19.9624 29.8374 19.8779C31.0196 18.9491 31.6107 17.8091 31.6107 16.4579C31.6107 15.1068 31.1041 13.5868 30.0907 11.8979C29.4152 10.8002 28.5707 9.66017 27.5574 8.47794C27.3885 8.30905 27.2196 8.22461 27.0507 8.22461C26.8818 8.22461 26.713 8.30905 26.5441 8.47794C25.5307 9.66017 24.6863 10.8002 24.0107 11.8979C22.9974 13.5868 22.4907 15.1068 22.4907 16.4579C22.4907 17.8091 23.0818 18.9491 24.2641 19.8779Z" fill="white"/>
</svg>
