<svg width="54" height="54" viewBox="0 0 54 54" fill="none" xmlns="http://www.w3.org/2000/svg">
<g clip-path="url(#clip0_582_86)">
<path d="M4.2284 29.0202C3.87507 28.6669 3.6984 28.2252 3.6984 27.6952C3.6984 27.1652 3.87507 26.6647 4.2284 26.1935L23.3084 7.29021C23.544 7.05465 23.6617 6.84854 23.6617 6.67188C23.6617 6.49521 23.5734 6.31854 23.3967 6.14188C23.2201 5.96521 23.014 5.87688 22.7784 5.87688C22.5428 5.87688 22.3662 5.93577 22.2484 6.05354L3.1684 25.1335C2.46173 25.8402 2.1084 26.6941 2.1084 27.6952C2.1084 28.6963 2.46173 29.4913 3.1684 30.0802L7.9384 35.0269C8.17395 35.1447 8.38006 35.2035 8.55673 35.2035C8.7334 35.2035 8.91006 35.1152 9.08673 34.9385C9.2634 34.7619 9.35173 34.5852 9.35173 34.4085C9.35173 34.2319 9.29284 34.0258 9.17506 33.7902L4.2284 29.0202ZM19.5984 15.5935L7.76173 27.2535C7.64395 27.4891 7.58506 27.6952 7.58506 27.8719C7.58506 28.0485 7.6734 28.2252 7.85006 28.4019C8.02673 28.5785 8.2034 28.6669 8.38006 28.6669C8.55673 28.6669 8.76284 28.608 8.9984 28.4902L20.6584 16.6535C20.7762 16.5358 20.8351 16.3591 20.8351 16.1235C20.8351 15.888 20.7762 15.7113 20.6584 15.5935C20.5406 15.4758 20.364 15.4169 20.1284 15.4169C19.8928 15.4169 19.7162 15.4758 19.5984 15.5935ZM26.6651 14.3569C27.6073 14.3569 28.3728 14.0624 28.9617 13.4735L31.2584 11.0002C31.8473 10.4113 32.1417 9.67521 32.1417 8.79188C32.1417 7.90854 31.8473 7.17243 31.2584 6.58354C30.6695 5.99465 29.9334 5.70021 29.0501 5.70021C28.1667 5.70021 27.4306 5.99465 26.8417 6.58354L24.5451 9.05688C23.8384 9.64576 23.4851 10.3524 23.4851 11.1769C23.4851 12.0013 23.809 12.7374 24.4567 13.3852C25.1045 14.033 25.8406 14.3569 26.6651 14.3569ZM25.6051 10.1169L27.9017 7.64354C28.2551 7.40799 28.6378 7.29021 29.0501 7.29021C29.4623 7.29021 29.8451 7.43743 30.1984 7.73188C30.5517 8.02632 30.7284 8.4091 30.7284 8.88021C30.7284 9.35132 30.5517 9.70465 30.1984 9.94021L27.9017 12.2369C27.5484 12.5902 27.1656 12.7669 26.7534 12.7669C26.3412 12.7669 25.9584 12.6197 25.6051 12.3252C25.2517 12.0308 25.0751 11.648 25.0751 11.1769C25.0751 10.7058 25.2517 10.3524 25.6051 10.1169ZM48.0417 26.0169H40.6217L46.4517 20.3635C47.1584 19.6569 47.5117 18.803 47.5117 17.8019C47.5117 16.8008 47.1584 15.9469 46.4517 15.2402L32.3184 1.10688C31.6117 0.40021 30.7578 0.0468764 29.7567 0.0468764C28.7556 0.0468764 27.9017 0.40021 27.1951 1.10688L24.5451 3.93354C24.3095 4.05132 24.1917 4.22799 24.1917 4.46354C24.1917 4.6991 24.2801 4.87577 24.4567 4.99354C24.6334 5.11132 24.8101 5.17021 24.9867 5.17021C25.1634 5.17021 25.3695 5.11132 25.6051 4.99354L28.2551 2.34354C28.7262 1.87243 29.2267 1.63688 29.7567 1.63688C30.2867 1.63688 30.7284 1.87243 31.0817 2.34354L45.3917 16.3002C45.7451 16.7713 45.9217 17.2719 45.9217 17.8019C45.9217 18.3319 45.7451 18.7735 45.3917 19.1269L38.5017 26.0169H18.7151L24.3684 20.3635C24.604 20.2458 24.7217 20.0691 24.7217 19.8335C24.7217 19.598 24.6334 19.4213 24.4567 19.3035C24.2801 19.1858 24.074 19.1269 23.8384 19.1269C23.6028 19.1269 23.4262 19.1858 23.3084 19.3035L16.5951 26.0169H14.1217C13.1795 26.0169 12.3551 26.3702 11.6484 27.0769C10.9417 27.7835 10.5884 28.608 10.5884 29.5502V49.5135C10.5884 50.5735 10.9417 51.4274 11.6484 52.0752C12.3551 52.723 13.1795 53.0469 14.1217 53.0469H48.0417C49.1017 53.0469 49.9851 52.723 50.6917 52.0752C51.3984 51.4274 51.7517 50.5735 51.7517 49.5135V46.6869C51.7517 46.4513 51.6634 46.2747 51.4867 46.1569C51.3101 46.0391 51.104 45.9802 50.8684 45.9802C50.6328 45.9802 50.4562 46.0391 50.3384 46.1569C50.2206 46.2747 50.1617 46.4513 50.1617 46.6869V49.5135C50.1617 50.1024 49.9556 50.603 49.5434 51.0152C49.1312 51.4274 48.6306 51.6335 48.0417 51.6335H14.1217C13.5328 51.6335 13.0617 51.4274 12.7084 51.0152C12.3551 50.603 12.1784 50.1024 12.1784 49.5135V38.7369H50.1617V43.5069C50.1617 43.7424 50.2206 43.9485 50.3384 44.1252C50.4562 44.3019 50.6328 44.3902 50.8684 44.3902C51.104 44.3902 51.3101 44.3019 51.4867 44.1252C51.6634 43.9485 51.7517 43.7424 51.7517 43.5069V29.5502C51.7517 28.608 51.3984 27.7835 50.6917 27.0769C49.9851 26.3702 49.1017 26.0169 48.0417 26.0169ZM14.1217 27.6069H48.0417C48.6306 27.6069 49.1312 27.813 49.5434 28.2252C49.9556 28.6374 50.1617 29.0791 50.1617 29.5502V32.3769H12.1784V29.5502C12.1784 29.0791 12.3551 28.6374 12.7084 28.2252C13.0617 27.813 13.5328 27.6069 14.1217 27.6069ZM12.1784 37.1469V33.9669H50.1617V37.1469H12.1784ZM41.6817 44.3902C41.3284 44.3902 41.034 44.508 40.7984 44.7435C40.5628 44.9791 40.4451 45.2735 40.4451 45.6269V48.4535C40.4451 48.8069 40.5628 49.1013 40.7984 49.3369C41.034 49.5724 41.3284 49.6902 41.6817 49.6902H46.2751C46.6284 49.6902 46.9228 49.5724 47.1584 49.3369C47.394 49.1013 47.5117 48.8069 47.5117 48.4535V45.6269C47.5117 45.2735 47.394 44.9791 47.1584 44.7435C46.9228 44.508 46.6284 44.3902 46.2751 44.3902H41.6817ZM45.9217 48.1002H42.0351V45.9802H45.9217V48.1002ZM27.3717 44.3902C27.0184 44.3902 26.724 44.508 26.4884 44.7435C26.2528 44.9791 26.1351 45.2735 26.1351 45.6269V48.4535C26.1351 48.8069 26.2528 49.1013 26.4884 49.3369C26.724 49.5724 27.0184 49.6902 27.3717 49.6902H37.4417C37.6773 49.6902 37.9128 49.5724 38.1484 49.3369C38.384 49.1013 38.5017 48.8069 38.5017 48.4535V45.6269C38.5017 45.2735 38.384 44.9791 38.1484 44.7435C37.9128 44.508 37.6773 44.3902 37.4417 44.3902H27.3717ZM36.9117 48.1002H27.7251V45.9802H36.9117V48.1002ZM18.0084 48.1002C17.7728 48.1002 17.5667 48.1885 17.3901 48.3652C17.2134 48.5419 17.1251 48.748 17.1251 48.9835C17.1251 49.2191 17.2134 49.3958 17.3901 49.5135C17.5667 49.6313 17.7728 49.6902 18.0084 49.6902H22.9551C23.1906 49.6902 23.3673 49.6313 23.4851 49.5135C23.6028 49.3958 23.6617 49.2191 23.6617 48.9835C23.6617 48.748 23.6028 48.5419 23.4851 48.3652C23.3673 48.1885 23.1906 48.1002 22.9551 48.1002H18.0084Z" fill="#DB7137"/>
</g>
<defs>
<clipPath id="clip0_582_86">
<rect width="53.02" height="53" fill="white" transform="matrix(1 0 0 -1 0.332031 53.2236)"/>
</clipPath>
</defs>
</svg>
