<svg width="24" height="24" viewBox="0 0 24 24" fill="none" xmlns="http://www.w3.org/2000/svg">
<path d="M19.0224 10.6923H5.00388C4.81687 10.6907 4.63169 10.7293 4.46082 10.8053C4.28997 10.8814 4.13743 10.9933 4.01349 11.1333C3.88955 11.2734 3.79708 11.4384 3.74235 11.6172C3.68761 11.7961 3.67187 11.9846 3.69619 12.17L4.6508 19.3622C4.6923 19.6788 4.84819 19.9694 5.08908 20.1789C5.32997 20.3885 5.63921 20.5027 5.95849 20.4999H18.0416C18.3608 20.5027 18.6701 20.3885 18.9109 20.1789C19.1518 19.9694 19.3077 19.6788 19.3493 19.3622L20.3039 12.17C20.3278 11.9867 20.3128 11.8005 20.2596 11.6235C20.2063 11.4465 20.1162 11.2828 19.9951 11.1431C19.8741 11.0035 19.7247 10.8911 19.5571 10.8134C19.3894 10.7357 19.2071 10.6944 19.0224 10.6923Z" stroke="black" stroke-width="2" stroke-linecap="round" stroke-linejoin="round"/>
<path d="M8.74396 13.9614V17.2306" stroke="black" stroke-width="2" stroke-linecap="round" stroke-linejoin="round"/>
<path d="M15.2824 13.9614V17.2306" stroke="black" stroke-width="2" stroke-linecap="round" stroke-linejoin="round"/>
<path d="M15.2562 4.85999C16.0395 4.99532 16.7572 5.38279 17.3001 5.96346C17.8431 6.54413 18.1815 7.28624 18.2639 8.0769L18.5516 10.6923" stroke="black" stroke-width="2" stroke-linecap="round" stroke-linejoin="round"/>
<path d="M5.47467 10.6924L5.76236 8.07699C5.85013 7.29102 6.19092 6.55485 6.73339 5.97937C7.27585 5.40388 7.99062 5.02024 8.77005 4.88623" stroke="black" stroke-width="2" stroke-linecap="round" stroke-linejoin="round"/>
<path d="M15.2824 5.13461C15.2824 5.34927 15.2401 5.56183 15.158 5.76014C15.0758 5.95847 14.9554 6.13867 14.8036 6.29045C14.6518 6.44225 14.4716 6.56265 14.2733 6.6448C14.075 6.72694 13.8624 6.76922 13.6478 6.76922H10.3786C9.94504 6.76922 9.52928 6.597 9.22273 6.29045C8.91618 5.9839 8.74396 5.56814 8.74396 5.13461C8.74396 4.70109 8.91618 4.28532 9.22273 3.97877C9.52928 3.67222 9.94504 3.5 10.3786 3.5H13.6478C14.0813 3.5 14.4971 3.67222 14.8036 3.97877C15.1102 4.28532 15.2824 4.70109 15.2824 5.13461Z" stroke="black" stroke-width="2" stroke-linecap="round" stroke-linejoin="round"/>
</svg>
