<svg width="243" height="95" viewBox="0 0 243 95" fill="none" xmlns="http://www.w3.org/2000/svg">
<path d="M158.039 30.4725C160.673 29.2183 163.433 28.3403 166.317 28.4657C169.829 28.5912 172.463 30.2217 173.843 33.4827C174.721 35.7404 174.972 38.2488 174.721 40.7573C174.707 41.4723 174.489 42.1684 174.094 42.7641C173.467 43.6421 173.718 45.3981 174.345 46.1506C174.846 46.6523 175.473 46.6523 175.724 46.0252C176.101 45.5235 176.351 44.8964 176.477 44.2692C177.355 40.2556 176.979 36.2421 174.972 32.6047C174.291 31.1644 173.23 29.9365 171.905 29.0527C170.579 28.1688 169.038 27.6625 167.446 27.5878C164.562 27.3369 161.802 27.964 159.168 28.9674C154.277 30.8488 150.012 33.7336 145.873 36.8692C139.727 41.6353 134.083 46.9031 128.439 52.2964L127.938 52.6727C127.966 52.2863 128.051 51.9061 128.188 51.5439L132.829 37.6217C132.994 37.1446 133.046 36.6356 132.98 36.1351C132.915 35.6345 132.735 35.1559 132.453 34.737C132.202 34.2353 131.826 33.7336 131.199 33.859C130.571 33.859 130.321 34.4861 130.195 34.9878L128.565 39.2522C127.938 40.5065 127.687 41.8862 126.683 42.8896C123.778 45.9478 120.586 48.7199 117.151 51.1676L116.524 51.5439C116.54 51.3505 116.63 51.1708 116.775 51.0422C118.429 48.8197 119.389 46.1579 119.534 43.3913C119.534 41.6353 119.534 40.0048 118.782 38.3743C117.904 36.8692 116.649 36.4929 115.144 37.2455C114.154 37.8057 113.264 38.5262 112.51 39.3777C110.88 41.1336 109.5 43.015 107.995 44.8964L105.487 48.2828C105.472 48.074 105.472 47.8645 105.487 47.6557L107.995 40.0048C108.497 38.4997 109.249 36.9946 110.378 35.8658C115.144 30.9742 119.534 25.8318 122.795 19.8114C124.551 16.5504 125.931 13.1639 126.432 9.52661C126.683 8.02151 126.809 6.64184 126.307 5.13674C125.805 3.75707 124.802 3.12995 123.297 3.50622C122.685 3.63331 122.094 3.84435 121.541 4.13335C120.036 5.01132 118.907 6.14014 117.904 7.51981C113.388 13.5402 110.253 20.3131 107.744 27.4623C106.615 30.7234 105.863 34.2353 104.985 37.6217C104.734 38.4997 104.358 39.0014 103.605 39.5031C94.3629 45.8629 83.7472 49.9459 72.6252 51.4184C69.6151 51.7947 66.6049 51.6693 63.7201 50.9167C61.4625 50.2896 59.5811 49.2862 58.4523 47.154C57.4489 45.2726 57.4489 43.2658 57.8251 41.259C58.2014 39.8794 58.4523 38.4997 59.5811 37.3709C60.2082 36.4929 60.3336 35.3641 59.8319 34.3607C59.4557 33.7336 58.8285 33.6081 58.4523 34.2353C58.1933 34.5358 57.9818 34.8742 57.8251 35.2387L56.6963 38.6251C56.0692 40.8828 55.8183 43.1404 56.32 45.3981C57.198 48.9099 59.5811 50.7913 62.8421 51.7947C65.9777 52.6727 69.2388 52.6727 72.3744 52.2964C83.6612 50.7878 94.4638 46.7582 103.981 40.5065C104.103 40.4537 104.229 40.4118 104.358 40.3811C104.366 40.4645 104.366 40.5485 104.358 40.6319L103.354 48.4082L103.103 50.9167C103.103 51.293 103.48 51.5439 103.605 51.9201L104.232 51.4184L107.87 46.6523L113.765 39.6285C114.266 39.0014 115.019 38.4997 115.646 38.1234C116.022 37.8726 116.524 37.7471 116.9 37.998C117.151 38.1234 117.276 38.6251 117.402 39.1268L117.151 40.2556C116.398 43.7675 115.144 47.154 113.388 50.2896C112.51 52.0456 111.381 53.5507 109.751 54.6795C108.622 55.5574 107.493 55.1812 106.866 53.9269C106.741 53.5507 106.615 53.049 106.364 52.7981L105.612 52.5473C105.487 52.5473 105.236 52.9235 105.361 53.049C105.487 54.4286 106.866 55.8083 108.246 56.0591C109.751 56.31 111.131 55.8083 112.385 55.1812C117.276 52.6727 121.541 49.2862 125.429 45.5235L126.182 44.6455L126.432 44.7709C126.404 44.9004 126.362 45.0265 126.307 45.1472L121.917 56.1846C121.666 57.0625 121.29 57.8151 120.663 58.4422C115.52 63.4592 111.005 68.8525 107.619 75.2491C105.863 78.5102 104.358 81.8966 103.856 85.6594C103.731 87.2899 103.731 88.795 104.358 90.3001C104.734 91.0526 105.236 91.4289 105.988 91.5543C106.866 91.6797 107.744 91.5543 108.371 91.178C109.375 90.4255 110.503 89.7984 111.381 88.9204C113.514 86.7882 115.019 84.0288 116.398 81.3949C120.161 73.8694 123.171 66.0931 125.931 58.1914C126.558 56.5608 126.934 55.0557 128.439 53.8015C133.958 48.9099 139.226 43.6421 144.995 39.1268C149.009 35.7404 153.273 32.7302 158.039 30.4725ZM111.131 32.6047L118.405 14.7944C119.534 12.0351 121.039 9.40118 122.419 6.89269C122.921 6.01472 123.673 5.38759 124.426 4.76047C124.927 4.25877 125.304 4.50962 125.554 5.13674C125.716 5.62223 125.801 6.13011 125.805 6.64184C125.68 9.77746 124.927 12.7876 123.673 15.6724C120.681 22.4738 116.425 28.6453 111.131 33.859C111.033 34.019 110.949 34.1868 110.88 34.3607L110.503 34.1098L111.131 32.6047ZM118.782 63.9609L114.517 74.7474C112.636 79.0119 110.88 83.2763 108.622 87.2899C107.995 88.4187 107.242 89.5475 106.114 90.3001C105.487 90.8018 104.985 90.5509 104.859 89.7984C104.737 89.1369 104.695 88.4631 104.734 87.7916C104.859 83.6526 106.364 80.0153 108.12 76.5034C110.88 71.2355 114.517 66.4694 118.656 62.205L119.91 60.8253L120.036 60.9507L118.782 63.9609ZM54.5641 66.9711L53.8115 66.5948L53.937 66.4694C53.9715 66.3823 54.0135 66.2984 54.0624 66.2185C55.3166 65.466 55.5675 64.2117 55.1912 62.9575C54.9404 61.5778 54.0624 60.6999 52.6827 60.5744L48.2929 60.3236V73.4932C48.2929 73.744 48.4183 73.9949 48.7946 73.9949L53.059 73.8694C54.6895 73.744 55.9438 72.4898 56.32 70.9847C56.6963 69.3542 56.0692 67.9745 54.5641 66.9711ZM49.6725 61.7033C50.8014 61.7033 51.8048 61.7033 52.8081 62.0795C53.5607 62.3304 53.937 63.0829 53.8115 63.8355C53.8115 64.8389 53.1844 65.5914 52.181 65.8423L49.6725 66.0931V61.7033ZM54.9404 70.3576C54.8149 71.4864 54.0624 72.3643 52.8081 72.4898H49.6725V67.3474C50.8014 67.4728 52.0556 67.4728 53.1844 67.7236C54.4387 68.0999 55.0658 69.1033 54.9404 70.3576ZM165.063 60.449H166.443V74.1203C164.687 72.4898 163.182 70.7338 161.677 68.9779L157.161 63.71V73.8694L156.911 73.9949C155.656 74.1203 155.656 74.1203 155.656 72.866V60.9507C155.681 60.7227 155.768 60.5058 155.907 60.3236L165.063 70.6084V60.449ZM182.121 61.5778V74.1203L181.118 73.2423L174.595 65.8423L172.714 63.71V73.9949H171.711C171.619 73.9737 171.535 73.9273 171.469 73.8607C171.402 73.7942 171.356 73.7103 171.334 73.6186C171.302 73.2849 171.302 72.9489 171.334 72.6152V60.1982C174.595 63.5846 177.48 67.2219 180.741 70.7338V60.449H180.867C182.372 60.449 182.121 60.3236 182.121 61.5778ZM105.11 73.8694L98.7136 60.3236H98.4627L92.0661 73.8694C93.4457 74.1203 93.4457 74.1203 94.0729 72.9915L95.4525 69.9813C95.578 69.605 95.7034 69.4796 96.0797 69.4796H100.971C101.347 69.4796 101.598 69.605 101.724 69.9813L103.229 73.1169C103.731 74.1203 103.856 74.2457 105.11 73.8694ZM96.3305 68.0999L98.5881 63.3338L100.846 68.0999H96.3305ZM145.372 60.3236L138.849 73.8694C140.229 74.1203 140.355 74.1203 140.856 73.1169L142.236 70.1067C142.487 69.605 142.738 69.4796 143.114 69.4796H147.755C148.256 69.4796 148.507 69.605 148.633 70.1067L150.012 73.1169C150.514 73.9949 150.765 74.1203 151.894 73.8694L145.622 60.3236H145.372ZM143.239 68.0999L145.497 63.2084L147.755 68.0999H143.239ZM194.663 73.3677C194.648 73.5765 194.648 73.7861 194.663 73.9949H187.013V60.449H193.911C194.663 60.449 194.789 60.449 194.663 61.2016V61.7033H188.392V65.9677H194.036C194.663 65.8423 194.789 66.2185 194.663 66.7202V67.2219H188.267V71.9881C188.267 72.6152 188.518 72.6152 188.894 72.6152H194.036C194.538 72.6152 194.789 72.7406 194.663 73.3677ZM62.0896 61.7033V65.9677H67.7337C68.3608 65.9677 68.6117 66.0931 68.4862 66.7202C68.4776 66.8874 68.4776 67.0548 68.4862 67.2219H62.0896V72.6152H68.4862V73.8694H60.7099V60.449H68.4862L68.6117 61.7033H62.0896ZM135.087 60.449V71.361C134.961 73.6186 133.08 74.7474 130.822 74.1203L128.941 73.3677C128.439 72.9915 128.439 72.7406 128.815 72.2389C128.948 72.1204 129.073 71.9948 129.192 71.8627L131.199 72.866C132.453 73.3677 133.456 72.7406 133.582 71.361C133.664 70.7372 133.706 70.1087 133.707 69.4796V60.9507C133.707 60.5744 133.832 60.449 134.209 60.449H135.087ZM84.1643 72.6152H89.4321V73.9949H83.5372C82.9101 73.9949 82.7846 73.744 82.7846 73.1169V60.9507C82.7846 60.449 82.9101 60.3236 83.4118 60.3236L84.1643 60.449V72.6152ZM79.0219 73.8694H72.4998V60.449H73.8795V61.2016L73.7541 71.9881C73.7541 72.6152 74.0049 72.7406 74.5066 72.7406H78.1439C79.1473 72.7406 79.1473 72.7406 79.0219 73.8694ZM133.205 26.0827C133.205 24.9538 134.083 24.3267 135.212 24.8284C136.843 25.4555 137.219 27.0861 136.09 28.2149C135.588 28.7166 134.836 28.842 134.209 28.3403C133.582 27.964 133.205 26.9606 133.205 26.0827Z" fill="black"/>
</svg>
