<svg width="243" height="95" viewBox="0 0 243 95" fill="none" xmlns="http://www.w3.org/2000/svg">
<path d="M63.0283 73.94C48.0883 74.4271 35.7965 61.8231 36.0463 47.0079C36.2135 39.987 39.1485 33.3166 44.2117 28.4499C49.275 23.5832 56.0563 20.9145 63.0783 21.0253C76.6318 21.2751 89.0734 32.3677 89.0235 47.7574C88.961 64.1215 74.3333 74.5645 63.0408 73.9525L63.0283 73.94ZM51.3486 69.4804C51.1363 69.318 50.9114 69.1806 50.724 69.0058C48.7364 67.2442 47.1308 65.0941 46.0064 62.6879C44.882 60.2818 44.2627 57.6707 44.1866 55.0159C44.1105 52.3611 44.5793 49.7189 45.564 47.2523C46.5488 44.7857 48.0286 42.5471 49.9121 40.6747C50.4118 40.1875 50.6991 40.25 51.1987 40.7121C51.6859 41.1618 51.2862 41.4616 51.0488 41.7614C50.2993 42.7608 49.4249 43.6727 48.7753 44.7345C44.8155 51.2176 44.6281 57.8757 48.7753 64.2214C54.3092 72.6658 63.7029 74.2148 71.9474 70.2799C77.9059 67.4318 81.1038 62.3352 81.5535 55.7521C82.0157 48.8442 79.2675 43.3604 73.5338 39.4505C71.073 37.7641 68.2873 36.9522 65.3643 36.5649C64.8646 36.5025 64.5148 36.2901 64.6148 35.728C64.6897 35.2033 65.002 34.9785 65.5891 35.0284C67.6621 35.2025 69.6922 35.7174 71.5976 36.5524C76.2863 38.6054 79.9836 42.4144 81.8962 47.1621C83.8088 51.9098 83.7845 57.218 81.8283 61.948C81.466 62.8224 81.0413 63.6468 80.6041 64.5712C83.3665 61.6452 85.3772 58.0923 86.4636 54.2177C87.55 50.3432 87.6796 46.2628 86.8412 42.3271C86.0028 38.3914 84.2215 34.7181 81.6503 31.6227C79.0791 28.5273 75.7949 26.1024 72.0798 24.5563C68.3647 23.0101 64.3298 22.3889 60.3217 22.7462C56.3136 23.1034 52.4521 24.4282 49.069 26.607C45.6859 28.7857 42.8822 31.7532 40.8989 35.2545C38.9156 38.7558 37.812 42.6862 37.6828 46.7081C37.333 57.4385 43.6787 65.8953 51.3486 69.4804ZM156.079 44.9218C152.656 44.8844 149.995 43.4603 148.521 40.2999C147.765 38.7404 147.509 36.9852 147.788 35.2745C148.068 33.5638 148.869 31.9814 150.083 30.7438C151.456 29.3805 153.284 28.5711 155.217 28.4703C157.94 28.233 160.488 28.7576 162.437 30.8187C164.923 33.442 165.41 36.5899 164.098 39.9002C162.812 43.173 160.176 44.7095 156.716 44.9218H156.091H156.079ZM156.204 32.0055C153.793 31.9555 151.907 33.9042 151.857 36.5025C151.807 39.1632 153.693 41.2243 156.191 41.2618C158.677 41.3117 160.526 39.363 160.576 36.6648C160.638 33.9542 158.852 32.0554 156.204 32.0055ZM190.493 45.3091L179.713 35.9029V44.5096H177.015C175.965 44.5096 175.965 44.5096 175.965 43.4603V28.6452L176.003 27.9582L186.646 37.3019L186.683 36.7523V29.2698C186.671 28.9325 186.758 28.7826 187.133 28.7951C188.107 28.8201 189.094 28.8201 190.069 28.8076C190.493 28.8076 190.593 28.97 190.581 29.3697V45.0093C190.562 45.108 190.533 45.2043 190.493 45.2966V45.3091ZM116.88 31.893C115.956 32.4177 115.069 32.9423 114.144 33.4045C114.019 33.467 113.645 33.2796 113.532 33.1172C112.783 32.0929 111.833 31.5682 110.584 31.8306C110.209 31.9055 109.735 32.2303 109.61 32.5551C109.51 32.8299 109.722 33.4295 109.984 33.6169C110.609 34.0916 111.359 34.4288 112.071 34.7911C113.045 35.2908 114.069 35.7155 115.006 36.2651C117.717 37.864 117.942 42.5484 114.144 44.2723C112.712 44.9566 111.095 45.1549 109.539 44.837C107.984 44.5192 106.574 43.7025 105.525 42.5109C105.2 42.1237 104.938 41.6615 104.651 41.2368C104.438 40.937 104.501 40.6997 104.8 40.4873C105.467 40.0293 106.125 39.5587 106.774 39.0757C107.211 38.751 107.349 39.1007 107.524 39.388C108.172 40.4706 109.223 41.2521 110.447 41.5616C111.196 41.7614 111.858 41.5116 112.383 40.987C112.945 40.4248 112.82 39.488 112.096 38.9883C111.596 38.6385 111.034 38.4137 110.497 38.1389C109.41 37.5767 108.248 37.1395 107.249 36.44C106.669 36.023 106.203 35.4674 105.894 34.8238C105.584 34.1803 105.441 33.4694 105.477 32.7562C105.513 32.043 105.727 31.3502 106.1 30.7411C106.473 30.1321 106.992 29.6262 107.611 29.2698C110.284 27.7083 114.944 28.0331 116.892 31.893H116.88ZM131.008 32.2928C129.734 32.2928 128.572 32.2803 127.41 32.3053C126.911 32.3177 126.698 32.1803 126.723 31.6432C126.773 30.8812 126.761 30.1067 126.723 29.3322C126.723 28.945 126.811 28.7826 127.248 28.7826C131.037 28.8076 134.826 28.8159 138.615 28.8076C139.115 28.8076 139.265 28.97 139.24 29.4572C139.197 30.1852 139.197 30.9151 139.24 31.6432C139.29 32.1678 139.053 32.2928 138.603 32.2928H134.98V44.4222H131.008V32.2928ZM202.56 28.8076H206.108C206.645 28.8076 206.57 29.1823 206.57 29.4946L206.545 41.9863V44.5096C205.296 44.5096 204.059 44.5221 202.823 44.4846C202.723 44.4846 202.573 44.1474 202.573 43.985V30.5189L202.56 28.8076ZM181.499 64.3214C181.325 64.3697 181.154 64.4281 180.987 64.4963C180.421 64.7908 179.771 64.882 179.146 64.7546C178.52 64.6273 177.958 64.2892 177.552 63.7967C177.154 63.2325 176.947 62.5553 176.963 61.8648C176.979 61.1744 177.216 60.5073 177.639 59.9618C178.389 59.0499 179.888 58.7751 181.05 59.3497C181.324 59.4746 181.512 59.5371 181.762 59.2748C181.886 59.1249 182.236 59.0874 182.436 59.1498C182.561 59.1998 182.661 59.5246 182.673 59.7245C182.698 61.2359 182.748 62.7599 182.711 64.2714C182.673 66.47 181.337 67.6192 179.138 67.3943C178.189 67.3069 177.14 66.2576 177.14 65.3207C177.127 65.1958 177.439 64.9335 177.514 64.946C177.814 65.0959 178.176 65.2458 178.351 65.5081C178.888 66.2951 179.526 66.6198 180.288 66.3825C181.112 66.1077 181.612 65.2957 181.499 64.3214ZM181.549 61.9729C181.549 60.9611 180.812 60.0867 179.9 60.0492C178.951 60.0118 178.127 60.8612 178.102 61.8855C178.089 62.9223 178.864 63.7967 179.813 63.8092C180.725 63.8342 181.537 62.9723 181.549 61.9729ZM168.72 64.6337L172.543 55.8895L172.768 55.852L176.578 64.5837C175.766 64.9335 175.478 64.846 175.153 64.209C174.909 63.7306 174.692 63.2384 174.504 62.7349C174.367 62.3602 174.167 62.2353 173.754 62.2353C173.005 62.2728 172.255 62.2728 171.518 62.2353C171.156 62.2353 170.944 62.3227 170.819 62.685C170.644 63.1846 170.407 63.6468 170.194 64.1215C169.845 64.871 169.695 64.9335 168.72 64.6337ZM173.742 61.111L172.743 58.5253H172.593L171.506 61.111H173.742ZM108.073 55.877L111.946 64.6836C110.959 64.9335 110.697 64.8086 110.359 63.9341C109.697 62.2603 109.685 62.3477 107.911 62.2228C106.687 62.1353 106.037 62.4726 105.675 63.6968C105.338 64.871 105.175 64.8585 104.026 64.6961L107.848 55.8895L108.073 55.877ZM108.073 58.5627L107.873 58.5752L106.849 61.0736H109.098L108.086 58.5627H108.073ZM160.413 62.3227C160.576 63.0472 160.913 63.4969 161.5 63.7093C162.137 63.9466 162.737 63.7842 163.236 63.3345C163.611 63.0098 163.973 62.7349 164.498 62.8724C164.498 63.8717 163.486 64.7711 162.275 64.871C161.845 64.8993 161.415 64.829 161.017 64.6656C160.619 64.5022 160.264 64.2499 159.978 63.9281C159.692 63.6063 159.484 63.2234 159.369 62.8088C159.254 62.3942 159.235 61.9587 159.314 61.5357C159.676 59.687 160.613 58.9625 162.412 59.0124C163.811 59.0499 164.823 60.5114 164.748 61.8855C164.748 62.0354 164.248 62.2478 163.973 62.2603C163.099 62.2977 162.187 62.2603 161.3 62.2603C161.038 62.2603 160.776 62.2977 160.426 62.3227H160.413ZM163.411 61.2484C163.224 60.3365 162.637 59.8744 161.875 59.9243C161.53 59.9474 161.205 60.0939 160.96 60.3371C160.714 60.5803 160.565 60.9039 160.538 61.2484H163.411ZM135.442 62.3352C135.492 63.0472 135.867 63.422 136.392 63.6968C137.016 64.0216 137.579 63.7967 138.141 63.447C138.515 63.1971 138.915 62.9848 139.352 62.7349C139.49 63.5094 139.202 64.0591 138.515 64.4588C137.554 65.0084 136.517 65.1458 135.567 64.5088C135.06 64.1556 134.67 63.6588 134.448 63.0823C134.225 62.5057 134.18 61.8758 134.318 61.2734C134.743 59.6995 135.68 58.9874 137.229 59.0249C137.576 59.0377 137.916 59.1192 138.231 59.2647C138.546 59.4101 138.83 59.6166 139.064 59.8722C139.299 60.1278 139.481 60.4274 139.599 60.7537C139.717 61.08 139.769 61.4265 139.752 61.7731C139.74 62.3477 139.29 62.2478 138.99 62.2478C138.103 62.2852 137.204 62.2478 136.304 62.2603C136.03 62.2603 135.755 62.3102 135.442 62.3352ZM138.453 61.2234C138.178 60.2741 137.504 59.7994 136.692 59.9368C136.382 59.9859 136.1 60.1412 135.892 60.376C135.685 60.6107 135.566 60.9104 135.555 61.2234H138.453ZM184.972 62.3727C185.272 63.7967 186.721 64.2714 187.845 63.3595C188.195 63.0722 188.632 62.66 188.969 63.0098C189.332 63.3845 188.819 63.7718 188.532 64.084C188.13 64.4619 187.629 64.7177 187.087 64.8217C186.545 64.9256 185.985 64.8734 185.472 64.6711C184.948 64.4143 184.511 64.0104 184.214 63.509C183.917 63.0076 183.772 62.4304 183.798 61.848C183.898 59.8744 185.322 58.7251 187.258 59.0624C188.407 59.2623 189.581 60.8737 189.307 61.948C189.257 62.1104 188.857 62.2603 188.607 62.2603C187.658 62.2977 186.696 62.2603 185.734 62.2603C185.477 62.2849 185.223 62.3266 184.972 62.3852V62.3727ZM184.997 61.211H187.957C187.882 60.4115 187.42 59.9868 186.658 59.9243C185.859 59.8619 185.234 60.3365 184.997 61.211ZM123.475 59.8744C124.188 59.1748 124.85 58.925 125.649 59.0999C126.261 59.2248 126.748 59.5995 126.823 60.1617C126.986 61.5732 127.036 63.0098 127.073 64.4463C127.086 64.5337 126.736 64.6961 126.523 64.7336C126.211 64.7961 126.024 64.6087 126.024 64.2714L126.011 62.3352C126.017 61.939 126 61.5428 125.961 61.1485C125.886 60.6239 125.711 60.1242 125.087 59.9993C124.55 59.8993 123.875 60.3116 123.65 60.8862C123.567 61.1401 123.525 61.4058 123.525 61.6732C123.488 62.5726 123.5 63.4595 123.45 64.3589C123.45 64.5088 123.201 64.7711 123.101 64.7586C122.88 64.7228 122.683 64.6016 122.551 64.4213C122.464 64.2964 122.526 64.0466 122.526 63.8717C122.526 61.1985 122.526 58.5377 122.501 55.877C122.501 55.4898 122.564 55.2524 123.026 55.2524C123.525 55.2524 123.463 55.5897 123.475 55.902V59.8619V59.8744ZM206.957 59.1623C206.757 59.662 206.582 60.1242 206.383 60.5739L203.622 66.7822C203.285 67.5192 203.047 67.5817 202.248 67.2194C202.523 66.5699 202.773 65.8828 203.11 65.2583C203.609 64.3339 203.585 63.4844 203.097 62.5601C202.585 61.5857 202.173 60.5614 201.723 59.5621C201.674 59.4484 201.632 59.3316 201.598 59.2123C202.723 58.9874 202.823 59.0124 203.222 60.0118C203.51 60.6863 203.722 61.3858 203.972 62.0604C204.022 62.2228 204.097 62.3852 204.222 62.66C204.347 62.494 204.46 62.3186 204.559 62.1353L205.546 59.7744C205.821 59.0999 206.07 58.975 206.957 59.1623ZM190.481 61.8355C190.481 61.111 190.468 60.3865 190.481 59.662C190.506 59.4496 190.593 59.1498 190.731 59.0874C190.88 59.0249 191.218 59.1373 191.318 59.2748C191.543 59.5995 191.73 59.5246 192.005 59.3622C193.366 58.5752 194.728 59.1249 194.953 60.6738C195.128 61.8855 195.053 63.1597 195.028 64.3963C195.028 64.5213 194.728 64.7336 194.528 64.7711C194.203 64.846 193.991 64.6587 193.978 64.2964V61.9854L193.966 61.111C193.928 60.4615 193.616 60.1117 193.054 60.0243C192.429 59.9368 191.792 60.2616 191.717 60.8612C191.593 61.923 191.593 63.0098 191.543 64.084C191.543 64.3963 191.667 64.7836 191.118 64.7836C190.606 64.7961 190.481 64.5213 190.481 64.084V61.8355ZM152.956 64.4088C152.544 64.5088 152.019 64.7086 151.469 64.7586C150.545 64.8211 150.033 64.4463 149.745 63.5594C149.602 63.0802 149.518 62.5851 149.496 62.0854C149.471 61.3234 149.496 60.5489 149.496 59.7744C149.496 59.4122 149.508 59.1249 150.008 59.1498C150.457 59.1498 150.632 59.2872 150.62 59.7744C150.582 60.6863 150.582 61.5982 150.62 62.5226C150.645 63.397 150.97 63.7717 151.657 63.7967C152 63.8106 152.335 63.6908 152.591 63.4624C152.847 63.234 153.005 62.9149 153.031 62.5726C153.093 61.6232 153.106 60.6613 153.081 59.6995C153.081 59.2872 153.206 59.1498 153.618 59.1498C154.03 59.1373 154.08 59.3372 154.08 59.687C154.055 61.161 154.08 62.6475 154.043 64.1215C154.043 64.3464 153.893 64.6961 153.73 64.7461C153.555 64.7961 153.293 64.5712 152.956 64.4088ZM121.077 60.9486C120.865 60.7987 120.665 60.6738 120.477 60.5239C119.666 59.8369 118.479 59.8494 117.817 60.5489C117.117 61.3109 117.18 62.6225 117.942 63.372C118.604 63.9966 119.84 63.9466 120.565 63.2596L121.027 62.8349C121.314 63.4969 121.09 64.159 120.54 64.4588C120.202 64.6551 119.829 64.7819 119.442 64.8316C119.055 64.8813 118.661 64.8529 118.285 64.7481C117.909 64.6433 117.558 64.4642 117.252 64.2214C116.946 63.9787 116.692 63.6771 116.505 63.3345C116.135 62.648 116.05 61.8429 116.27 61.0944C116.49 60.3459 116.996 59.7144 117.679 59.3372C118.641 58.8126 119.653 58.925 120.615 59.3872C121.115 59.612 121.289 60.2991 121.077 60.9486ZM201.086 60.7862C200.799 60.6488 200.512 60.5114 200.237 60.349C199.35 59.8494 198.425 59.9368 197.851 60.6114C197.533 60.9642 197.352 61.4199 197.343 61.8949C197.334 62.3699 197.497 62.8323 197.801 63.1971C198.388 63.9217 199.7 64.0216 200.462 63.397L200.961 62.9473C201.336 63.5719 201.036 64.2964 200.312 64.6212C199.69 64.9047 198.987 64.9573 198.33 64.7696C197.673 64.5818 197.105 64.1661 196.727 63.5969C196.321 63.0463 196.127 62.3676 196.183 61.6858C196.238 61.004 196.537 60.3651 197.026 59.8868C197.976 58.8875 199.125 58.85 200.387 59.2123C201.036 59.3997 201.074 60.0867 201.199 60.6239L201.086 60.7862ZM145.411 60.8737C144.811 60.5864 144.324 60.2991 143.799 60.1242C143 59.8744 142.25 60.1742 141.813 60.8737C141.572 61.2439 141.463 61.6846 141.504 62.1245C141.545 62.5643 141.733 62.9775 142.038 63.2971C142.313 63.5665 142.665 63.7447 143.045 63.8073C143.425 63.8698 143.815 63.8138 144.162 63.6468C144.536 63.447 144.899 63.1971 145.273 62.9723C145.436 63.7218 145.086 64.3464 144.399 64.6337C142.825 65.2583 141.226 64.5712 140.564 62.9723C140.301 62.2551 140.322 61.4642 140.624 60.7624C140.926 60.0607 141.486 59.5014 142.188 59.1998C143.025 58.8625 143.874 58.95 144.686 59.3247C145.298 59.5995 145.311 60.2241 145.411 60.8612V60.8737ZM147.822 60.2491V64.1465C147.822 64.5088 147.822 64.8086 147.322 64.7961C146.822 64.7961 146.747 64.5462 146.747 64.134C146.747 62.9723 146.71 61.7981 146.66 60.6363C146.66 60.449 146.473 60.2616 146.335 60.0867C146.158 59.8937 145.97 59.7102 145.773 59.5371L146.423 59.1623C146.524 59.1255 146.628 59.1004 146.735 59.0874V57.6259C146.735 57.3136 146.772 57.0762 147.172 57.1262C147.484 57.1886 147.872 57.1137 147.859 57.6259V59.0749C148.171 59.3247 148.759 58.95 148.784 59.6245C148.796 60.2991 148.196 59.9743 147.822 60.2491ZM132.944 60.1242V64.209C132.957 64.5837 132.894 64.7961 132.444 64.7961C131.995 64.7961 131.87 64.6087 131.882 64.184V60.1742C131.458 60.1242 130.896 60.1742 131.02 59.5621C131.07 59.3372 131.458 59.1623 131.683 58.975L131.87 59.0999V57.6259C131.87 57.3261 131.907 57.0887 132.32 57.1262C132.669 57.1387 132.944 57.1762 132.907 57.6259V58.3754C132.907 58.8126 132.932 59.1873 133.531 59.2123C133.681 59.2123 133.819 59.5496 133.956 59.7245C133.796 59.843 133.629 59.9514 133.456 60.0492C133.356 60.0992 133.206 60.0867 132.957 60.1242H132.944ZM112.783 59.2248L115.368 59.0874C115.743 59.0624 115.968 59.1998 115.918 59.6245C115.868 60.0243 115.731 60.1866 115.268 60.0992C114.232 59.8993 113.894 60.1991 113.894 61.2484C113.876 62.2685 113.876 63.2888 113.894 64.3089C113.894 64.6712 113.757 64.8086 113.42 64.7836C113.132 64.7836 112.795 64.846 112.783 64.4088V59.2248ZM155.854 61.898V59.6495C155.854 59.3247 155.929 59.1498 156.304 59.1498C157.028 59.1498 157.753 59.0999 158.465 59.1249C158.652 59.1249 158.964 59.3372 158.964 59.4621C159.002 59.7869 158.914 60.1117 158.427 60.1117C156.991 60.1117 156.991 60.1367 156.966 61.5482L156.928 64.2964C156.928 64.6337 156.828 64.7961 156.466 64.7836C156.141 64.7836 155.879 64.7211 155.879 64.3214V61.898H155.854ZM128.897 59.1498C129.172 59.1498 129.397 59.0999 129.584 59.1623C129.746 59.2248 129.971 59.4122 129.971 59.5371C129.984 61.136 129.971 62.7349 129.934 64.3339C129.934 64.4838 129.634 64.7461 129.484 64.7336C129.284 64.7336 128.922 64.5213 128.922 64.3963C128.884 62.6725 128.897 60.9611 128.897 59.1498ZM129.446 57.476C129.009 57.4884 128.722 57.3261 128.747 56.7639C128.772 56.3142 128.997 56.2518 129.372 56.3017C129.746 56.3642 130.184 56.3392 130.121 56.9513C130.096 57.3635 129.909 57.5509 129.446 57.476Z" fill="black"/>
<path d="M58.1191 33.7793C58.5212 33.7742 58.9203 33.85 59.2926 34.0023C59.6648 34.1547 60.0026 34.3803 60.2858 34.6659C60.569 34.9514 60.7919 35.291 60.9411 35.6645C61.0904 36.038 61.163 36.4377 61.1546 36.8398C61.1546 38.4387 59.7805 39.8378 58.1566 39.8378C56.4077 39.8502 55.0586 38.5261 55.0461 36.7898C55.0425 36.3887 55.1201 35.9911 55.2743 35.6208C55.4284 35.2505 55.6558 34.9152 55.9429 34.6351C56.23 34.355 56.5708 34.1359 56.9448 33.991C57.3188 33.846 57.7182 33.7783 58.1191 33.7918V33.7793ZM59.4932 36.7773C59.4682 35.9029 58.9186 35.3907 57.9942 35.4032C57.633 35.4256 57.2942 35.5859 57.0478 35.8509C56.8014 36.1159 56.6662 36.4654 56.6701 36.8273C56.695 37.5768 57.3946 38.2513 58.1441 38.2263C58.5075 38.201 58.8477 38.0385 59.0959 37.7718C59.344 37.5051 59.4816 37.1541 59.4807 36.7898L59.4932 36.7773Z" fill="black"/>
</svg>
