<svg width="243" height="95" viewBox="0 0 243 95" fill="none" xmlns="http://www.w3.org/2000/svg">
<path d="M90.6472 34.5341C95.4702 40.3464 96.7068 46.9007 94.3572 54.0733C93.6152 56.2993 91.8839 57.9069 89.9052 59.1436C85.3296 62.1116 80.5066 62.7299 75.56 60.2566C71.6027 58.4016 69.5004 54.939 68.7584 50.7343C68.2637 47.89 69.0057 45.1694 70.3661 42.5724L70.7371 42.0777L70.8607 41.8304L71.1081 41.9541C70.9844 43.1907 71.2317 44.5511 71.6027 45.7877C73.0867 49.8687 78.157 51.4763 81.7433 49.003C82.182 48.6946 82.5556 48.3028 82.8427 47.8499C83.1299 47.3971 83.325 46.892 83.4169 46.3637C83.5087 45.8354 83.4956 45.2942 83.3782 44.771C83.2608 44.2477 83.0414 43.7528 82.7326 43.3144C80.1356 39.6044 76.1783 38.4914 71.6027 39.7281C67.6454 40.9648 66.1614 43.9327 65.5431 47.6427C65.1721 50.858 66.2851 53.826 68.1401 56.4229C70.8607 60.2566 74.447 62.8536 79.1463 63.8429C81.9906 64.4612 84.8349 64.2139 87.5556 62.7299C87.4824 62.8211 87.3994 62.904 87.3082 62.9772C85.5769 64.3375 83.8456 65.5742 81.7433 66.1925C78.157 67.5528 74.447 67.5528 70.6134 66.6872C61.7095 64.4612 55.7735 55.9283 55.8972 47.519C55.8481 44.959 56.3058 42.4145 57.244 40.0321C58.1823 37.6497 59.5825 35.4764 61.3641 33.6373C63.1457 31.7982 65.2735 30.3297 67.6249 29.3163C69.9764 28.3029 72.505 27.7647 75.0654 27.7325C81.3723 27.4852 86.6899 29.8349 90.6472 34.5341ZM145.802 43.5617C146.544 46.406 146.544 49.2503 145.431 52.0947C144.318 54.8153 142.216 56.5466 139.371 57.2886C137.269 57.7833 135.043 57.7833 132.941 57.0413C131.402 56.5033 130.043 55.5474 129.016 54.2805C127.989 53.0137 127.336 51.486 127.129 49.8687L126.881 47.148C126.881 45.664 127.129 44.1801 127.623 42.8197C128.736 39.2334 131.828 37.0075 135.538 36.8838C137.393 36.7601 139.371 36.8838 141.103 37.7494C143.576 38.9861 145.184 40.9648 145.802 43.5617ZM142.092 47.3954L141.721 44.5511C141.226 42.0777 139.495 40.5938 137.022 40.3464C134.796 40.0991 132.817 41.3357 131.828 43.4381C130.839 46.035 130.839 48.632 131.952 51.1053C132.817 52.9603 134.919 54.197 136.898 54.0733C139.124 53.826 140.855 52.4656 141.474 50.3633C141.845 49.374 141.968 48.261 142.092 47.3954ZM152.975 53.2076L162.992 40.8411C163.203 40.551 163.331 40.2091 163.363 39.8518V37.6258C163.363 37.2548 163.239 37.1311 162.744 37.1311H148.77V40.0991C148.77 40.5938 148.894 40.7174 149.388 40.7174H157.798L155.201 44.0564L147.904 53.084C147.69 53.3246 147.56 53.6285 147.533 53.9496V56.6703C147.533 57.1649 147.657 57.2886 148.152 57.2886H163.239C163.406 57.2557 163.571 57.2144 163.734 57.1649V53.826H152.604L152.975 53.2076ZM180.676 54.4443C180.676 53.9496 180.552 53.826 180.057 53.826H169.546L170.659 52.342L178.944 41.9541C179.81 40.9648 180.428 39.9754 180.181 38.6151C180.135 38.2869 180.135 37.954 180.181 37.6258C180.181 37.2548 180.057 37.1311 179.563 37.1311H165.589V40.0991C165.589 40.5938 165.712 40.7174 166.207 40.7174H174.616L173.998 41.5831L164.847 53.084C164.655 53.291 164.526 53.5484 164.476 53.826V56.5466C164.476 57.0413 164.599 57.2886 165.218 57.2886H180.181C180.552 57.2886 180.676 57.1649 180.676 56.6703V54.4443ZM121.811 37.1311C121.44 37.1311 121.193 37.2548 120.945 37.6258L116.988 44.3037L116.617 44.922L112.412 37.6258C112.165 37.2548 111.918 37.1311 111.423 37.1311H107.218C107.25 37.2579 107.291 37.3819 107.342 37.5021L114.144 48.261C114.365 48.6375 114.492 49.0617 114.515 49.4977V57.2886H117.854C118.472 57.2886 118.596 57.0413 118.596 56.5466V49.4977C118.608 49.0599 118.736 48.6331 118.967 48.261L125.768 37.5021C125.824 37.3839 125.866 37.2594 125.892 37.1311H121.811ZM187.106 39.9754V37.6258L186.735 37.1311H182.902V56.6703C182.902 57.0413 183.025 57.2886 183.52 57.2886H186.488C186.983 57.2886 187.106 57.0413 187.106 56.5466V39.9754Z" fill="black"/>
</svg>
