<svg width="243" height="95" viewBox="0 0 243 95" fill="none" xmlns="http://www.w3.org/2000/svg">
<path d="M186.099 78.3238C184.457 77.1872 182.563 76.5557 180.669 76.3032C177.259 75.798 173.723 75.798 170.313 75.9243C163.872 76.1769 157.432 76.9346 150.991 77.6923C143.077 78.7869 135.205 80.176 127.375 81.8599L111.336 85.396C108.999 85.8937 106.639 86.273 104.264 86.5326C102.622 86.6589 101.864 86.0274 101.485 84.3857C101.32 83.5965 101.235 82.7925 101.233 81.9862C101.233 78.9552 101.864 76.0506 102.748 73.2722L106.916 60.7696C108.431 56.4757 110.031 52.224 111.715 48.0144L119.418 28.1869C120.85 24.5666 122.155 20.9464 123.333 17.3261C123.965 15.1791 124.344 13.0322 124.344 10.759C124.47 7.98065 121.187 5.58116 118.534 6.84405L117.272 7.4755C115.251 8.6121 113.483 10.1276 111.841 11.643C105.653 17.5786 99.7173 23.7668 93.908 30.0813L72.4389 54.0762L57.9156 70.2413C56.0212 72.2619 54.0006 74.03 52.1063 75.798L51.096 76.4295V74.7877C51.4375 72.0749 52.0727 69.4071 52.9903 66.8315C55.1372 60.6433 57.2841 54.5814 59.6836 48.5195L66.377 32.1019C67.261 29.955 68.145 27.8081 68.145 25.5349L68.0187 24.6508C67.7662 24.9034 67.5136 25.0297 67.3873 25.4086L64.2301 32.9859L57.663 47.7618C54.7584 54.5814 51.98 61.401 49.8331 68.4732C49.0753 70.8727 48.5702 73.1459 48.4439 75.5454C48.3176 77.8186 50.8434 79.0815 52.4851 78.1975C53.008 77.9342 53.5141 77.639 54.0006 77.3135C56.4001 75.5454 58.4207 73.3985 60.4414 71.2516L78.3745 51.1716L92.6451 35.2591C97.0232 30.4601 101.485 25.7874 106.032 21.241C108.684 18.4627 111.462 15.8106 114.367 13.1585C116.135 11.5168 117.903 10.0013 120.05 8.99097C121.439 8.23323 121.692 8.35952 121.439 9.87499C121.187 12.0219 120.808 14.2951 120.302 16.442C118.913 21.4936 116.893 26.4189 114.872 31.3442L104.264 58.6227C102.243 63.9268 100.475 69.1047 99.0859 74.5351C98.4545 77.1872 97.823 79.713 97.9493 82.4913C98.0756 84.8908 99.2122 86.5326 101.359 87.6692C103.127 88.5532 105.148 88.6795 107.042 88.3006L115.377 86.7852L129.648 83.5017C141.519 80.9759 153.517 78.9552 165.514 77.8186C170.187 77.4398 174.859 77.1872 179.532 77.5661C180.552 77.6725 181.564 77.8412 182.563 78.0712C184.331 78.3238 185.594 79.2078 186.604 80.597C186.731 80.8496 186.983 80.8496 187.236 80.9759L187.488 80.2181C187.362 79.3341 186.731 78.8289 186.099 78.3238ZM87.7199 38.2901L87.5936 38.1638L88.9828 36.6483L89.109 36.7746L87.7199 38.2901ZM90.8771 36.3957L90.7508 36.2695L93.5292 33.2385L93.6555 33.3648L90.8771 36.3957ZM113.104 11.643L113.23 11.7693L104.264 20.6096L104.137 20.4833C106.79 17.1998 110.073 14.5477 113.104 11.643ZM99.0859 25.6612L99.2122 25.7874L97.4441 27.4292L99.0859 25.6612ZM99.3385 27.5555L99.0859 27.1766C104.264 22.1251 109.315 16.8209 113.988 12.4008L99.3385 27.5555ZM193.045 50.6664L192.161 50.7927C189.383 51.5505 186.604 52.0556 183.7 51.9293C183.195 51.9293 183.068 51.803 182.816 51.4242C182.543 50.8402 182.204 50.2894 181.805 49.7824C181.553 49.4035 181.3 49.4035 181.048 50.035L180.29 52.0556C179.407 54.898 177.744 57.4357 175.491 59.3804L174.733 59.633L174.607 58.8752C175.122 56.8729 175.931 54.9579 177.006 53.1922L178.901 50.035C179.153 49.6561 179.153 49.2773 178.774 49.0247C178.522 48.8984 178.143 49.151 177.89 49.2773L176.501 50.2876L170.187 52.9396L163.115 56.4757L161.978 56.8546L161.852 56.7283L162.231 55.718L162.988 53.1922C163.241 52.3082 162.609 51.6768 161.978 51.0453C161.473 50.5401 160.841 50.5401 160.21 50.7927L156.8 52.5608L146.95 59.5067L146.192 59.8856L146.066 59.7593C146.178 59.5 146.305 59.2471 146.444 59.0015L148.212 55.8443C148.591 54.9603 148.97 54.2025 148.339 53.3185C147.96 52.9396 147.581 52.4345 147.076 52.1819C146.642 51.9762 146.15 51.9315 145.687 52.0556C145.023 52.2754 144.387 52.5721 143.792 52.9396L135.457 57.6123L132.426 59.1278L132.3 58.8752L132.426 58.2438L134.952 53.3185C135.205 52.9396 135.836 52.6871 136.215 52.3082L136.468 51.9293C136.215 51.4242 136.72 51.0453 136.973 50.7927L141.898 44.7308C142.151 44.4783 142.656 44.0994 142.277 43.7205C141.898 43.3417 141.519 43.7205 141.14 44.0994L135.078 50.035C134.826 50.2876 134.573 50.6664 134.194 50.7927C131.29 51.5505 128.511 52.0556 125.48 51.9293C125.228 51.9293 124.975 51.6768 124.723 51.4242L123.965 50.035L123.333 49.5298L122.828 50.2876L121.944 52.6871C121.06 55.4654 119.418 57.6123 117.272 59.3804C117.145 59.633 116.893 59.633 116.64 59.633L116.514 59.0015L117.019 57.3598C117.777 55.0866 119.04 53.0659 120.302 51.0453L120.934 49.7824C120.934 49.5298 120.808 49.151 120.555 49.0247C120.429 48.8984 120.176 49.0247 119.924 49.151C119.72 49.2802 119.548 49.4527 119.418 49.6561C118.408 51.0453 117.272 52.3082 116.388 53.8237C115.504 55.2129 114.746 56.7283 114.493 58.4964C114.367 59.633 114.998 61.0222 116.009 61.5273C117.019 62.0325 118.282 61.7799 119.04 61.0222C120.555 59.7593 121.818 58.3701 122.702 56.602L124.091 53.5711C125.228 54.3288 126.617 54.4551 128.006 54.3288L132.3 53.8237L132.047 54.0762C131.29 55.3391 130.532 56.602 130.279 58.1175C129.9 60.0118 131.669 61.7799 133.689 61.0222C134.599 60.757 135.486 60.4191 136.341 60.0118L143.666 55.8443L144.929 55.2129L145.055 55.3391L144.676 56.2232L142.908 60.2644C142.656 60.6433 142.782 61.2747 142.908 61.7799C143.54 63.5479 145.055 64.0531 146.697 63.1691C147.231 62.8775 147.738 62.5394 148.212 62.1588L156.926 55.4654C157.81 54.7077 158.947 54.2025 160.084 53.4448L159.831 55.4654C159.578 57.8649 161.725 59.7593 163.999 59.0015C164.702 58.7796 165.379 58.4833 166.019 58.1175L171.955 54.5814L174.607 53.0659L174.102 54.5814L172.586 58.4964C172.334 59.633 173.091 61.0222 174.102 61.5273C174.986 62.0325 176.375 61.7799 177.133 61.0222C178.522 59.7593 179.911 58.3701 180.669 56.7283L182.058 53.6974L184.71 54.3288C188.12 54.4551 191.151 53.4448 194.182 52.3082C194.284 52.2647 194.372 52.1951 194.439 52.1064C194.505 52.0177 194.547 51.9131 194.561 51.803C194.561 50.919 193.929 50.4139 193.045 50.6664ZM146.571 60.8959C150.233 57.8649 154.022 55.0866 158.063 52.6871L146.697 61.0222L146.571 60.8959ZM147.076 62.2851C150.612 59.2541 154.274 56.2232 158.316 53.6974L147.076 62.2851ZM167.03 56.8546L166.903 56.7283L169.682 55.0866L169.808 55.2129L167.03 56.8546Z" fill="black"/>
</svg>
