<svg width="243" height="95" viewBox="0 0 243 95" fill="none" xmlns="http://www.w3.org/2000/svg">
<path d="M129.734 35.7138H139.06V62.3022H129.734V35.7138ZM144.517 62.3518H153.743V35.7634H144.517V62.3518ZM86.2803 50.5457V62.3518H95.9533V38.7397H86.2803V50.5457ZM99.2768 62.2029C106.023 63.1951 108.999 60.6652 108.999 54.1669V38.7397H99.2768V62.2029ZM73.4325 39.3845L73.3829 53.9685C73.3829 60.566 76.26 63.0958 82.9567 62.2526V38.7397H73.5813C73.5113 38.9494 73.4615 39.1653 73.4325 39.3845ZM159.498 62.2029H168.823V44.6923H159.498V62.2029ZM115.051 62.3518H124.327V44.6427H115.002L115.051 62.3518ZM122.542 33.0847L119.714 32.5886L116.936 32.9359C115.101 33.2831 113.96 34.176 113.96 36.2098C113.96 38.194 115.101 39.3349 116.887 39.5334C118.749 39.7435 120.63 39.7435 122.492 39.5334C124.327 39.3349 125.072 37.946 125.072 36.2098C125.072 34.5232 124.228 33.3823 122.542 33.0351V33.0847ZM166.938 39.6326C168.724 39.3845 169.567 38.1444 169.617 36.309C169.617 34.5728 168.774 33.4815 167.137 33.1343C166.045 32.8863 165.004 32.787 164.16 32.6382C163.168 32.7374 162.474 32.787 161.73 32.9359C159.845 33.2335 158.406 34.0272 158.406 36.2098C158.406 38.442 159.795 39.4838 161.829 39.6822C163.529 39.8513 165.242 39.8347 166.938 39.6326Z" fill="black"/>
</svg>
