<svg width="243" height="95" viewBox="0 0 243 95" fill="none" xmlns="http://www.w3.org/2000/svg">
<g clip-path="url(#clip0_771_8)">
<path d="M138.776 43.21H140.481C140.417 40.8689 140.417 38.6286 140.252 36.4133C140.119 35.31 139.575 34.2955 138.725 33.5688C137.813 32.6894 136.635 32.1296 135.371 31.975C134.107 31.8205 132.826 32.0797 131.726 32.7129C131.547 32.8136 131.191 32.8388 131.076 32.7381C130.211 32.0081 129.384 31.2277 128.493 30.4096L132.095 26.898C134.003 25.0352 135.887 23.1221 137.872 21.3348C139.132 20.202 141.079 20.202 142.492 21.1334C143.188 21.6091 143.71 22.2965 143.976 23.0915C144.242 23.8864 144.239 24.7455 143.968 25.5387C143.733 26.3062 143.255 26.9787 142.604 27.4569C141.953 27.9351 141.164 28.1937 140.354 28.1944C138.801 28.2448 137.732 27.4141 136.74 26.382L135.887 25.5009L134.614 26.8351L136.014 28.1315C136.775 28.9449 137.76 29.5201 138.848 29.7863C139.936 30.0524 141.079 29.9978 142.135 29.6293C143.311 29.2443 144.323 28.484 145.014 27.4679C145.705 26.4519 146.036 25.2375 145.953 24.0157C145.884 22.8131 145.428 21.6639 144.652 20.7355C143.876 19.8072 142.82 19.1484 141.639 18.8553C140.556 18.6209 139.428 18.6796 138.376 19.0251C137.323 19.3706 136.384 19.9902 135.658 20.8188C133.257 23.2773 130.813 25.6939 128.328 28.0685C127.119 29.2391 127.59 29.302 126.253 28.0182C126.228 27.9804 126.177 27.9553 126.177 27.9175C126.152 27.7035 126.05 27.4141 126.139 27.263C127.195 25.5009 127.284 23.7136 126.393 21.8634C125.948 20.9446 125.973 20.932 126.699 20.1769C127.271 19.5853 127.322 19.5727 127.908 20.1517C128.773 20.995 129.638 21.8257 130.466 22.6941C130.809 23.0466 131.089 23.1976 131.407 22.6941C131.474 22.6097 131.551 22.5336 131.636 22.4676C132.247 21.876 132.247 21.8886 131.611 21.2719L128.646 18.3392C129.257 17.7099 129.804 17.1058 130.389 16.5268C131.191 15.7087 131.204 15.7213 132.273 16.187C133.121 16.5872 134.056 16.7719 134.994 16.7245C135.933 16.677 136.844 16.399 137.647 15.9154C138.449 15.4318 139.117 14.7579 139.589 13.9549C140.062 13.1518 140.325 12.2448 140.354 11.316C140.43 9.55393 140.405 7.79183 140.43 6.02973C140.443 5.65213 140.328 5.45075 139.896 5.45075C137.974 5.48851 136.04 5.46334 134.105 5.53886C133.274 5.57182 132.463 5.80591 131.744 6.22063C131.025 6.63535 130.42 7.21804 129.982 7.91769C129.372 8.75684 129.016 9.75029 128.955 10.7821C128.894 11.8139 129.131 12.8416 129.638 13.7452C129.766 13.9969 129.944 14.45 129.842 14.5759C129.053 15.4318 128.188 16.2373 127.348 17.0554L124.663 14.4375C122.55 12.3481 120.399 10.2839 118.325 8.14425C117.717 7.49146 117.362 6.64713 117.322 5.76043C117.283 4.87373 117.561 4.00172 118.109 3.29847C118.654 2.58104 119.432 2.07074 120.312 1.85305C121.193 1.63537 122.122 1.72353 122.945 2.10276C125.401 3.23554 125.922 6.3318 124.014 8.40856C123.555 8.89943 123.034 9.32737 122.487 9.81824L123.403 10.8629C123.645 11.1398 123.848 11.1146 124.09 10.8629C124.523 10.3972 125.006 9.98186 125.426 9.50358C126.18 8.73539 126.689 7.76612 126.893 6.71507C127.096 5.66402 126.985 4.57705 126.572 3.58796C126.231 2.62136 125.615 1.77296 124.797 1.14532C123.98 0.517677 122.996 0.137653 121.965 0.0511771C121.16 -0.0572142 120.34 0.00702922 119.563 0.239544C118.785 0.47206 118.067 0.867401 117.457 1.39872C116.847 1.93004 116.36 2.58489 116.029 3.31881C115.698 4.05273 115.531 4.84851 115.538 5.65213C115.569 6.46185 115.762 7.25739 116.108 7.9922C116.453 8.72701 116.943 9.38632 117.549 9.93152C118.567 10.9636 119.623 11.9705 120.654 12.99L126.062 18.2763L125.579 18.8175C124.752 19.6986 124.752 19.6734 123.645 19.2077C122.798 18.8463 121.878 18.6843 120.957 18.7345C120.036 18.7848 119.139 19.0458 118.338 19.4972C118.147 19.5853 117.803 19.6356 117.689 19.535C117.256 19.1825 116.9 18.742 116.467 18.2763L120.03 14.7773L118.809 13.5186L115.36 17.1435L112.586 14.2487L112.675 14.1102C114.8 10.8 112.968 6.29404 109.073 5.67731C106.897 5.35006 104.632 5.53886 102.418 5.51368C102.303 5.51368 102.1 5.778 102.1 5.91645C102.112 7.89252 102.087 9.86859 102.214 11.8321C102.35 12.9926 102.854 14.0808 103.654 14.9401C104.455 15.7995 105.51 16.3858 106.668 16.6149C108.1 16.8655 109.576 16.6163 110.842 15.9101C111.008 15.8345 111.339 15.8094 111.453 15.9101C112.293 16.6527 113.107 17.4456 113.973 18.2511C113.718 18.5029 113.591 18.6791 113.451 18.8175L108.272 23.9276C107.114 25.0604 105.994 26.2561 104.759 27.3134C104.202 27.823 103.496 28.1459 102.742 28.2363C101.988 28.3266 101.224 28.1799 100.56 27.8168C99.8464 27.5162 99.2497 26.9966 98.8578 26.3347C98.4659 25.6729 98.2997 24.904 98.3836 24.1416C98.3984 23.421 98.627 22.7207 99.0411 22.1276C99.4551 21.5346 100.036 21.0751 100.712 20.8062C101.38 20.497 102.125 20.3871 102.855 20.4899C103.585 20.5927 104.269 20.9038 104.823 21.3852C105.332 21.8131 105.79 22.3291 106.261 22.8074C106.515 23.0843 106.732 23.1347 107.037 22.8074C107.89 21.876 107.903 21.8886 107.012 21.0076L106.566 20.567C105.968 19.9259 105.229 19.4282 104.406 19.112C103.584 18.7957 102.699 18.6692 101.82 18.742C101.01 18.803 100.222 19.0349 99.5102 19.4222C98.7983 19.8094 98.1786 20.343 97.6927 20.9869C97.2067 21.6309 96.8659 22.3703 96.6932 23.1555C96.5204 23.9406 96.5197 24.7532 96.6911 25.5387C96.8947 26.523 97.3624 27.435 98.0449 28.1791C98.7275 28.9232 99.5999 29.472 100.571 29.768C101.541 30.0641 102.575 30.0964 103.562 29.8616C104.55 29.6268 105.456 29.1335 106.185 28.4336C108.895 25.9163 111.453 23.2605 114.1 20.6803C115.449 19.3587 115.004 19.4594 116.365 20.7558C116.493 20.8565 116.518 21.2215 116.429 21.3726C115.915 22.1612 115.614 23.0667 115.554 24.003C115.494 24.9393 115.677 25.8752 116.085 26.7218C116.556 27.7916 116.518 27.7916 115.704 28.6098C115.347 28.9874 115.105 28.9874 114.736 28.6224C113.871 27.7329 112.984 26.8603 112.077 26.0044C111.911 25.8408 111.479 25.6897 111.364 25.7778C110.982 26.0421 110.702 26.4449 110.346 26.8351C111.377 27.8546 112.357 28.8489 113.375 29.7929C113.807 30.1831 113.884 30.4474 113.4 30.8627C112.79 31.3823 112.224 31.9506 111.708 32.5619C111.364 32.9647 111.122 32.9395 110.702 32.7129C109.884 32.2393 108.958 31.9757 108.01 31.9461C107.062 31.9164 106.122 32.1217 105.274 32.5432C104.427 32.9648 103.7 33.5892 103.158 34.3596C102.617 35.13 102.28 36.0221 102.176 36.9546C101.96 38.7167 102.112 40.5165 102.087 42.2912V43.2352H105.866C106.757 43.2226 107.648 43.2352 108.539 43.1345C109.582 43.0338 110.562 42.7066 111.389 42.0395C112.464 41.1954 113.195 39.9971 113.45 38.6637C113.704 37.3302 113.466 35.9507 112.777 34.7771C112.548 34.3869 112.573 34.1478 112.891 33.8583C113.527 33.2542 114.164 32.6248 114.775 31.9829C115.067 31.6809 115.284 31.6431 115.602 31.9829C115.958 32.3983 116.378 32.7507 116.773 33.1409C119.165 35.4945 121.558 37.8482 123.925 40.2144C124.815 41.0955 125.261 42.1653 125.121 43.4617C125.046 44.4563 124.575 45.3807 123.811 46.0321C123.048 46.6834 122.054 47.0084 121.048 46.9356C120.052 46.8998 119.109 46.484 118.416 45.7753C117.724 45.0667 117.335 44.1202 117.333 43.1345C117.333 41.6241 118.16 40.5417 119.203 39.5725C120.056 38.767 120.043 38.7544 119.203 37.9237L119.165 37.8734C118.949 37.6216 118.732 37.5839 118.478 37.8482C117.994 38.3517 117.46 38.8048 117.014 39.3208C115.947 40.36 115.337 41.7735 115.317 43.2546C115.297 44.7358 115.869 46.1649 116.907 47.232C117.946 48.2991 119.368 48.918 120.865 48.9544C122.363 48.9908 123.814 48.4418 124.904 47.4265C125.513 46.9453 126.013 46.344 126.373 45.6608C126.733 44.9776 126.945 44.2277 126.995 43.4589C127.045 42.6901 126.933 41.9194 126.665 41.196C126.397 40.4727 125.979 39.8125 125.439 39.2579C122.792 36.5015 120.03 33.8709 117.307 31.2026C117.027 30.9257 116.671 30.7243 116.225 30.4222C116.747 29.9691 117.091 29.7551 117.307 29.4656C117.638 29.0251 117.943 28.9622 118.427 29.2265C120.323 30.246 122.219 30.2334 124.128 29.2139C124.263 29.1599 124.407 29.1353 124.552 29.1418C124.697 29.1483 124.839 29.1858 124.968 29.2517C125.388 29.5034 125.732 29.881 126.19 30.2586L122.614 33.8331L123.708 35.0918C124.79 34.0345 125.872 33.0276 126.902 31.9829C127.221 31.6683 127.437 31.6683 127.742 31.9829C128.328 32.5871 128.926 33.1912 129.549 33.745C129.957 34.1226 129.982 34.4373 129.689 34.9407C127.806 38.1629 129.74 42.4548 133.456 43.0212C135.2 43.2981 136.994 43.1723 138.776 43.2226V43.21ZM130.886 10.1581C131.052 9.36785 131.481 8.6552 132.103 8.13308C132.725 7.61097 133.506 7.30926 134.322 7.27578C135.709 7.20026 137.096 7.27578 138.572 7.27578L138.598 7.87993C138.598 9.0253 138.623 10.1832 138.559 11.3286C138.47 12.839 137.745 13.9466 136.332 14.6011C135.765 14.8708 135.138 14.9959 134.509 14.9651C133.88 14.9344 133.269 14.7486 132.731 14.4249C133.444 13.6697 134.093 12.9145 134.831 12.2348C135.251 11.8572 135.212 11.6433 134.882 11.2783C134.105 10.4224 134.118 10.3972 133.278 11.2405L131.331 13.1285C131.04 12.6964 130.849 12.206 130.772 11.6925C130.695 11.179 130.734 10.6551 130.886 10.1581ZM111.453 12.6754C111.262 13.0907 111.033 13.0026 110.791 12.7509L109.01 11.0265C108.475 10.4979 108.399 10.4979 107.864 11.0517L107.266 11.6936L109.926 14.3494C108.972 14.9787 108.017 15.1171 107.037 14.8906C106.146 14.701 105.347 14.2157 104.773 13.5151C104.199 12.8146 103.884 11.9409 103.881 11.0391C103.843 9.90635 103.868 8.77357 103.907 7.64079C103.907 7.48975 104.187 7.21285 104.339 7.21285C105.739 7.21285 107.139 7.13733 108.539 7.30096C111.008 7.59044 112.522 10.4224 111.466 12.6754H111.453ZM107.864 41.4479C106.681 41.5234 105.497 41.4983 104.301 41.4731C104.161 41.4731 103.881 41.1962 103.881 41.0452C103.881 39.7362 103.843 38.402 103.983 37.093C104.301 34.324 107.419 32.8136 109.888 34.324L107.152 36.8413C107.559 37.3196 107.852 37.6972 108.208 38.0118C108.284 38.0873 108.641 38.0118 108.768 37.886C109.442 37.2818 110.079 36.6273 110.74 36.0106C111.199 35.5826 111.377 35.633 111.542 36.2246C112.306 38.9432 110.715 41.2591 107.864 41.4479ZM121.265 28.207C120.251 28.1989 119.279 27.809 118.546 27.1169C117.813 26.4247 117.375 25.4822 117.32 24.4814C117.306 23.9617 117.398 23.4445 117.589 22.9603C117.781 22.476 118.068 22.0345 118.434 21.6616C118.801 21.2887 119.239 20.992 119.722 20.7889C120.206 20.5858 120.726 20.4804 121.252 20.4789C121.765 20.4781 122.273 20.5772 122.748 20.7707C123.222 20.9641 123.653 21.248 124.017 21.6062C124.38 21.9645 124.668 22.39 124.865 22.8585C125.063 23.3269 125.164 23.8292 125.165 24.3367C125.166 24.8441 125.066 25.3467 124.87 25.8159C124.675 26.285 124.388 26.7114 124.026 27.0708C123.663 27.4302 123.233 27.7155 122.759 27.9105C122.286 28.1054 121.778 28.2062 121.265 28.207ZM133.863 41.3472C133.236 41.2277 132.65 40.9545 132.157 40.5526C131.664 40.1508 131.282 39.6331 131.044 39.0471C130.806 38.461 130.72 37.8253 130.795 37.1981C130.869 36.5708 131.102 35.9721 131.471 35.4568C132.209 36.2497 132.871 36.9923 133.545 37.6972C133.736 37.886 134.182 38.1251 134.245 38.0748C134.595 37.7501 134.895 37.377 135.136 36.9671C135.2 36.8916 134.983 36.6147 134.843 36.4637L132.655 34.2862C135.022 32.7759 138.292 34.3114 138.547 37.0804C138.674 38.402 138.598 39.7488 138.572 41.0955C138.572 41.2214 138.318 41.4731 138.165 41.4731C136.727 41.4731 135.263 41.5612 133.851 41.3472H133.863ZM148.371 71.177C148.587 71.4665 148.88 71.4288 149.084 71.0889C149.165 70.9668 149.259 70.853 149.364 70.7491C150.102 69.9562 150.102 69.8806 149.211 69.3143C148.855 69.0877 148.727 68.8737 148.995 68.4458C149.531 67.6056 149.845 66.6454 149.907 65.6536C149.969 64.6619 149.777 63.6707 149.35 62.7715C148.923 61.8723 148.273 61.094 147.462 60.5085C146.65 59.923 145.702 59.5491 144.706 59.4213C143.831 59.2751 142.935 59.319 142.08 59.55C141.224 59.781 140.429 60.1935 139.751 60.7588C139.073 61.3242 138.527 62.0288 138.152 62.8238C137.777 63.6187 137.582 64.4849 137.579 65.3621C137.707 65.9789 137.745 66.6208 137.936 67.1997C139.081 70.6358 142.517 72.2091 146.08 70.8246C147.022 70.4596 147.709 70.2456 148.371 71.177ZM147.022 67.4515L145.711 66.218C145.33 65.8656 144.973 65.6894 144.604 66.2809C144.401 66.6208 144.082 66.8725 143.764 67.2249L145.66 68.7856C144.515 69.8303 142.263 69.5534 141.003 68.2822C140.249 67.4771 139.831 66.4194 139.833 65.3219C139.835 64.2244 140.258 63.1685 141.015 62.3665C141.716 61.684 142.651 61.287 143.634 61.2544C144.617 61.2217 145.577 61.5558 146.322 62.1903C147.76 63.449 148.155 66.0795 147.022 67.4515ZM66.5433 70.8372C67.1125 70.7342 67.6365 70.4622 68.0457 70.0575C68.4549 69.6528 68.7298 69.1346 68.834 68.5717C69.114 67.4389 68.7831 66.4571 67.8159 65.7397C67.5232 65.5132 67.1796 65.3495 66.7979 65.1356C67.0617 64.9286 67.3125 64.7058 67.5487 64.4685C68.3377 63.5874 68.465 62.5428 68.0577 61.4729C67.6123 60.3401 66.6706 59.7108 65.4616 59.6605C63.5146 59.5598 61.5675 59.5598 59.6204 59.5094C59.1496 59.4968 59.175 59.7989 59.175 60.0884V70.5981C59.175 70.9757 59.3023 71.1141 59.6841 71.1141C60.9185 71.1015 62.1529 71.1393 63.3746 71.1015C64.4308 71.0638 65.5125 71.0386 66.5433 70.8498V70.8372ZM61.2748 61.3722H63.4764C63.8582 61.3722 64.24 61.3974 64.6217 61.4226C65.5125 61.4603 66.1488 61.9764 66.187 62.7316C66.2114 63.1336 66.0738 63.5288 65.8043 63.8307C65.5348 64.1327 65.1554 64.3167 64.749 64.3426C63.6037 64.4181 62.4583 64.3552 61.2748 64.3552V61.3722ZM61.6566 69.3017C61.3512 69.3143 61.1985 69.201 61.2112 68.8737V66.2306C62.6747 66.2306 64.0491 66.1802 65.4107 66.2558C66.3525 66.3061 66.836 66.9228 66.8106 67.7913C66.8106 68.5465 66.2252 69.1632 65.3344 69.2136C64.1127 69.2765 62.891 69.2765 61.6693 69.3017H61.6566ZM87.7447 65.3999C87.7894 63.8559 87.2152 62.3571 86.1472 61.2301C85.0793 60.1032 83.6042 59.4394 82.0435 59.3836C81.2237 59.3109 80.3975 59.4057 79.6162 59.6621C78.835 59.9185 78.1153 60.3309 77.5019 60.8738C76.8886 61.4167 76.3946 62.0785 76.0506 62.8181C75.7066 63.5578 75.52 64.3594 75.5024 65.1733C75.4682 65.9669 75.5959 66.7591 75.878 67.5028C76.16 68.2465 76.5906 68.9263 77.144 69.5019C77.6974 70.0774 78.3624 70.5369 79.0992 70.8528C79.836 71.1687 80.6296 71.3346 81.4327 71.3407C82.2451 71.3745 83.056 71.2462 83.8172 70.9634C84.5784 70.6807 85.2742 70.2493 85.8632 69.6949C86.4522 69.1405 86.9224 68.4745 87.2456 67.7366C87.5689 66.9987 87.7386 66.204 87.7447 65.3999ZM81.5345 69.4275C81.0163 69.4113 80.5065 69.2942 80.0341 69.0829C79.5618 68.8716 79.1361 68.5704 78.7816 68.1963C78.427 67.8222 78.1505 67.3827 77.9677 66.9029C77.785 66.4231 77.6997 65.9123 77.7167 65.3999C77.704 62.9959 79.3329 61.2841 81.6108 61.2841C83.9015 61.2841 85.5304 62.9833 85.5304 65.3873C85.5304 67.7409 83.8506 69.4401 81.5345 69.4275ZM182.12 71.0763C179.83 71.1015 177.539 71.0763 175.248 71.1141C174.79 71.1141 174.612 70.9882 174.612 70.5226V60.0129C174.612 59.6731 174.688 59.5094 175.07 59.5094C177.781 59.5346 180.491 59.522 183.266 59.522C183.266 60.1136 183.304 60.617 183.24 61.0953C183.24 61.2212 182.884 61.3974 182.693 61.3974C180.911 61.4226 179.13 61.41 177.348 61.3974H176.699V64.3049C176.928 64.3174 177.17 64.3426 177.412 64.3426C178.913 64.3426 180.415 64.3678 181.929 64.3426C182.438 64.3426 182.591 64.4937 182.566 64.9971C182.477 66.1802 182.502 66.1802 181.318 66.1802H176.699V69.2513H177.768C179.435 69.2513 181.115 69.2765 182.782 69.2513C183.24 69.2513 183.38 69.4149 183.367 69.8555C183.316 71.2274 183.622 71.0764 182.12 71.0889V71.0763ZM166.951 66.6082C166.93 67.2559 166.81 67.8967 166.595 68.5087C166.395 69.1554 166.016 69.7339 165.501 70.1787C164.986 70.6236 164.355 70.917 163.68 71.026C162.739 71.2022 161.733 71.2903 160.792 71.177C159.784 71.0811 158.848 70.6209 158.162 69.8847C157.477 69.1485 157.09 68.188 157.076 67.1871C156.948 64.7454 156.999 62.2784 156.974 59.8367C156.988 59.7376 157.013 59.6404 157.05 59.5472H157.725C159.086 59.5975 159.086 59.5975 159.086 60.9946C159.086 62.8574 159.023 64.7202 159.086 66.583C159.163 68.8486 161.237 70.0568 163.337 69.1632C164.609 68.6094 164.902 67.527 164.927 66.3187C164.961 64.2881 164.961 62.2533 164.927 60.2143C164.927 59.6605 165.067 59.5094 165.64 59.5346C167.04 59.5849 167.04 59.5598 167.015 60.9443C167.002 62.8322 167.015 64.7202 166.951 66.6082ZM100.738 71.2148C100.066 71.2915 99.3867 71.2915 98.7145 71.2148C97.7392 71.1329 96.8258 70.7083 96.1395 70.018C95.4532 69.3278 95.0395 68.4173 94.9731 67.4515C94.8203 64.8964 94.884 62.3414 94.8458 59.7737C94.8621 59.6995 94.8877 59.6277 94.9222 59.5598C95.4566 59.5598 96.0039 59.522 96.5383 59.5849C96.6656 59.5849 96.8819 59.9122 96.8819 60.0884C96.8947 61.9764 96.8565 63.8643 96.8819 65.7523C96.8771 66.3994 96.9671 67.0438 97.1492 67.6654C97.5437 68.9115 98.7781 69.5534 100.203 69.3898C101.731 69.201 102.621 68.4206 102.698 67.0235C102.799 64.758 102.787 62.4924 102.825 60.2269V59.5975C102.899 59.5705 102.976 59.5495 103.054 59.5346C104.899 59.4843 104.912 59.4843 104.887 61.2967C104.861 63.235 104.887 65.1607 104.759 67.0865C104.607 69.4779 103.143 70.9379 100.738 71.2148ZM70.3229 92.3977C70.3229 92.9516 70.3484 93.4928 70.3229 94.034C70.2975 94.3235 70.1702 94.8395 70.1066 94.8395C69.6792 94.8282 69.2571 94.743 68.8595 94.5878C68.6558 94.5123 68.5413 94.2102 68.3886 94.0214L65.398 89.9434C65.2962 89.7924 65.1689 89.6665 64.9653 89.4399C64.9399 89.6665 64.9144 89.8049 64.9272 89.9434C64.9272 91.416 64.9272 92.9012 64.9781 94.399C64.9781 94.7892 64.8253 94.9276 64.469 94.8899H64.3927C63.2855 94.8143 63.3491 95.1038 63.3491 93.82V86.1297C64.2018 86.0038 64.7744 86.1423 65.258 86.8723C66.3143 88.4204 67.4723 89.8931 68.6813 91.5167V86.1297C69.1649 86.1297 69.5848 86.0794 69.9921 86.1549C70.1321 86.1801 70.3357 86.4947 70.3357 86.6835L70.3102 92.3977H70.3229ZM117.46 61.41V63.0085C117.46 65.5257 117.434 68.0682 117.46 70.6107C117.46 71.0008 117.333 71.1267 116.951 71.1141H115.347V61.4226L112.179 61.4352C111.759 61.4477 111.568 61.3219 111.593 60.8688C111.631 60.4408 111.606 60.0129 111.606 59.5598H121.099V61.41H117.46ZM183.813 90.8874C184.124 90.6456 184.381 90.3426 184.568 89.9975C184.755 89.6524 184.868 89.2727 184.899 88.8824C184.93 88.4921 184.879 88.0996 184.749 87.7298C184.619 87.36 184.413 87.0209 184.144 86.7339C183.927 86.5073 183.635 86.2556 183.355 86.2304C181.713 86.1297 180.084 86.0794 178.391 86.0164V93.7697C178.391 94.8773 178.391 94.8647 179.537 94.8773C179.969 94.8773 180.122 94.7514 180.109 94.2983C180.071 93.3417 180.097 92.3852 180.097 91.3279C180.491 91.3279 180.86 91.3531 181.204 91.3279C181.84 91.2776 182.235 91.5167 182.438 92.146C182.68 92.876 182.96 93.606 183.253 94.3109C183.342 94.5123 183.507 94.7766 183.685 94.8018C184.195 94.8647 184.742 94.8269 185.365 94.8269L183.813 90.8874ZM182.515 89.742C181.815 89.8679 181.089 89.8427 180.377 89.8301C180.275 89.8301 180.109 89.5406 180.097 89.377C180.059 88.8232 180.084 88.2442 180.084 87.6149C180.962 87.6149 181.751 87.5646 182.553 87.6149C183.062 87.6527 183.113 88.1184 183.138 88.5337C183.164 89.0498 183.126 89.6287 182.502 89.742H182.515ZM141.117 86.2052C139.654 86.1171 138.19 86.1926 136.676 86.1926V94.9024C138.152 94.8269 139.59 94.8018 141.003 94.6885C142.11 94.613 142.937 93.9962 143.395 93.0397C143.844 92.2022 144.068 91.2648 144.046 90.3171C144.023 89.3695 143.756 88.4434 143.268 87.6275C143.061 87.2297 142.754 86.8906 142.378 86.6418C142.002 86.393 141.568 86.2428 141.117 86.2052ZM141.881 92.146C141.588 92.9264 141.003 93.3417 140.188 93.3417C137.847 93.3669 138.368 93.7067 138.33 91.63C138.305 90.3084 138.33 88.9868 138.33 87.5772C139.107 87.5772 139.794 87.5142 140.456 87.6023C141.295 87.703 141.804 88.282 142.008 89.0623C142.289 90.0786 142.244 91.1558 141.881 92.146ZM99.6053 88.3072C99.5289 87.3254 98.8799 86.3437 98.0145 86.2556C96.4111 86.0794 94.7822 86.0794 93.1532 86.0038V94.7766H94.8585V91.3279C95.3039 91.3279 95.7112 91.3531 96.1057 91.3279C96.6401 91.2901 96.9328 91.5167 97.0983 91.995C97.3528 92.7502 97.62 93.5012 97.9 94.248C97.9764 94.4368 98.1545 94.7136 98.2945 94.7388C98.829 94.8143 99.3762 94.8018 100.089 94.8395L98.5236 90.8244C99.478 90.0944 99.7198 89.5532 99.6053 88.3072ZM96.9838 89.8175C96.396 89.8767 95.8041 89.8851 95.2148 89.8427C95.0876 89.8301 94.8585 89.5784 94.8458 89.4273C94.8076 88.8232 94.8331 88.2191 94.8331 87.5016L97.391 87.6401C97.5168 87.6623 97.63 87.7295 97.7091 87.8289C98.2182 88.4204 97.7473 89.7294 96.9838 89.8175ZM126.126 90.7238C126.991 90.0944 127.31 89.0875 127.017 87.9296C126.737 86.8346 126.152 86.2178 125.006 86.1675C123.568 86.0794 122.13 86.1423 120.641 86.1423V94.8269L121.812 94.8395C122.194 94.8521 122.347 94.7388 122.321 94.3361C122.283 93.7697 122.296 93.2033 122.296 92.6369C122.296 91.2901 122.296 91.3153 123.632 91.3279C124.103 91.3279 124.395 91.4789 124.548 91.9195L125.401 94.2731C125.464 94.4367 125.579 94.7011 125.693 94.7136C126.279 94.8018 126.877 94.8018 127.602 94.8395C127.017 93.3921 126.521 92.1083 126.012 90.8119C126.037 90.7993 126.075 90.7489 126.139 90.7238H126.126ZM123.874 89.8427C122.296 89.8427 122.296 89.8427 122.347 88.2694V87.6023C123.199 87.6023 124.001 87.5646 124.79 87.6401C124.981 87.6527 125.286 88.0177 125.299 88.2694C125.477 89.528 125.172 89.8427 123.874 89.8427ZM113.057 86.0668C110.995 86.0038 109.493 86.973 109.073 88.8358C108.874 89.7281 108.831 90.6477 108.946 91.5545C109.201 93.5683 110.664 94.8018 112.637 94.8647C114.762 94.9276 116.174 93.9081 116.633 91.9446C116.747 91.4412 116.76 90.9 116.836 90.3965C116.773 89.9182 116.747 89.4525 116.645 89.012C116.518 88.1729 116.083 87.4093 115.424 86.8664C114.765 86.3234 113.927 86.0389 113.069 86.0668H113.057ZM114.775 91.8565C114.546 92.7753 113.922 93.3166 113.069 93.4047C112.115 93.4928 111.351 93.09 110.957 92.2215C110.709 91.6727 110.582 91.078 110.584 90.477C110.586 89.8759 110.718 89.2822 110.97 88.7351C111.122 88.3158 111.422 87.9646 111.814 87.7452C112.207 87.5258 112.665 87.4528 113.107 87.5394C114.062 87.6653 114.724 88.3197 114.889 89.3015C114.953 89.7168 114.953 90.1448 114.978 90.535C114.915 91.0007 114.876 91.4412 114.775 91.8691V91.8565ZM171.049 86.0668C168.885 85.9157 167.396 86.8471 166.849 88.7351C166.696 89.2763 166.671 89.8427 166.595 90.4091H166.633L166.696 91.3531C166.849 93.0648 168.033 94.4871 169.509 94.7514C171.749 95.1668 173.327 94.4997 174.154 92.7376C174.65 91.6552 174.637 90.4846 174.472 89.3393C174.217 87.4135 172.958 86.2052 171.049 86.0668ZM172.576 91.7307C172.321 92.8383 171.736 93.3417 170.718 93.4047C170.248 93.4353 169.782 93.304 169.399 93.0332C169.017 92.7625 168.74 92.3689 168.618 91.9195C168.274 90.8496 168.287 89.7798 168.745 88.7351C169.191 87.7785 169.891 87.4009 170.883 87.5394C171.328 87.5944 171.742 87.7912 172.064 88.1001C172.385 88.409 172.596 88.8131 172.665 89.2511C172.728 89.6036 172.741 89.956 172.792 90.3839C172.728 90.7993 172.69 91.265 172.576 91.7433V91.7307ZM153.372 94.1724C153.361 94.3443 153.361 94.5166 153.372 94.6885C153.306 94.7303 153.233 94.7602 153.156 94.7766C151.502 94.8143 149.847 94.8395 148.193 94.8395C148.04 94.8395 147.747 94.613 147.747 94.4871C147.722 91.7181 147.735 88.9239 147.735 86.0542C149.555 86.0542 151.273 86.0542 152.991 86.0794C153.118 86.0794 153.321 86.3311 153.347 86.4821C153.41 86.7842 153.36 87.1115 153.36 87.5142H149.44V89.8301H153.131C153.131 90.2706 153.181 90.6608 153.118 91.0384C153.092 91.1643 152.787 91.3027 152.609 91.3153C151.565 91.3405 150.534 91.3153 149.44 91.3153V93.3795C150.458 93.3795 151.502 93.4298 152.532 93.3669C153.207 93.3166 153.474 93.5179 153.372 94.185V94.1724ZM89.45 93.3417L89.5264 94.7766H83.8888V86.0919H85.1359C86.3449 86.0919 87.5538 86.1297 88.7628 86.0919C89.3737 86.0542 89.5645 86.2556 89.4755 86.822C89.4605 87.0357 89.4605 87.2502 89.4755 87.4639H85.5686V89.8553C86.5612 89.8553 87.5284 89.8931 88.4956 89.8427C89.1446 89.8049 89.4118 89.9686 89.2591 90.6357C89.2082 90.8119 89.2464 91.0132 89.2464 91.2901H85.5686V93.3417H89.45ZM158.628 89.1253C158.423 89.9151 158.392 90.7394 158.539 91.5419C158.895 93.3543 160.575 93.9836 162.191 93.0145C162.413 92.864 162.658 92.7493 162.917 92.6747C163.15 92.989 163.322 93.3431 163.426 93.7193C163.477 93.8578 163.273 94.1347 163.108 94.248C162.515 94.6654 161.821 94.9193 161.097 94.9837C160.372 95.0481 159.644 94.9207 158.985 94.6144C158.327 94.3082 157.763 93.8342 157.352 93.2411C156.94 92.6481 156.695 91.9573 156.643 91.2398C156.592 90.4972 156.567 89.7168 156.732 88.9994C157.254 86.8094 159.15 85.7018 161.504 86.1297C161.999 86.2392 162.484 86.3865 162.955 86.5702C163.451 86.7464 163.591 87.0737 163.375 87.5646L162.993 88.4834C162.522 88.2065 162.102 87.8918 161.606 87.703C160.232 87.1744 158.984 87.7282 158.628 89.1253ZM130.275 59.95C130.3 63.6378 130.287 67.3256 130.287 71.0889C129.651 71.0889 129.079 71.1141 128.506 71.0763C128.404 71.0638 128.213 70.7617 128.213 70.5981C128.188 69.1129 128.175 67.6277 128.175 66.1299V60.0884L128.213 59.5472C128.824 59.5472 129.358 59.5094 129.868 59.5598C130.02 59.5724 130.275 59.8115 130.275 59.95ZM80.6437 86.6583C80.5928 86.8975 80.6437 87.1618 80.6437 87.5016H78.0349V94.8395C77.5596 94.8552 77.0839 94.8468 76.6096 94.8143C76.4823 94.8143 76.2787 94.5626 76.2787 94.4368V87.552L73.6826 87.4261V86.0919H80.0965C80.5546 86.0668 80.7328 86.2052 80.6437 86.6583ZM105.281 94.3361C105.281 94.764 105.128 94.9024 104.734 94.8647C103.487 94.7892 103.563 95.129 103.563 93.7319L103.576 86.759L103.601 86.1045C105.256 86.0542 105.268 86.0542 105.281 87.5394V94.3361ZM59.3405 87.5142C59.3405 89.7924 59.315 92.0831 59.3277 94.3738C59.3277 94.764 59.1878 94.9024 58.8187 94.8773C58.6928 94.8551 58.5647 94.8466 58.4369 94.8521C57.8261 94.9276 57.6225 94.6885 57.6352 94.0717C57.6734 91.7055 57.6479 89.3392 57.6479 86.9604V86.1297C59.3277 86.0038 59.3405 86.0038 59.3532 87.5142H59.3405Z" fill="black"/>
</g>
<defs>
<clipPath id="clip0_771_8">
<rect width="243" height="95" fill="white"/>
</clipPath>
</defs>
</svg>
