<svg width="25" height="25" viewBox="0 0 25 25" fill="none" xmlns="http://www.w3.org/2000/svg">
<path d="M12.9517 10.3188H15.4837L15.1674 12.7181H12.9517H12.5517V13.1181V20.7688H10.047V13.1181V12.7181H9.64698H7.33994V10.3188H9.64698H10.047V9.91882V7.38757C10.047 6.12394 10.3771 5.22374 11.0482 4.58316L11.0482 4.58324L11.0548 4.57666C11.7066 3.92486 12.5834 3.56882 13.7603 3.56882C14.552 3.56882 15.2515 3.6152 15.8212 3.67006V5.7571H14.5337C13.8857 5.7571 13.2559 5.89296 12.9209 6.32847C12.6164 6.69147 12.5517 7.20433 12.5517 7.70398V9.91882V10.3188H12.9517Z" stroke="white" stroke-width="0.8"/>
</svg>
