<svg width="54" height="54" viewBox="0 0 54 54" fill="none" xmlns="http://www.w3.org/2000/svg">
<path d="M40.0664 27.5579C39.8442 27.3357 39.6221 27.2246 39.4 27.2246C36.8454 27.4468 34.6796 28.4468 32.9026 30.2246C31.1255 32.0024 30.1259 34.1135 29.9038 36.5579L29.2374 37.0579C28.682 37.7246 28.1822 38.3913 27.738 39.0579V28.7246H27.9046C29.1263 28.7246 30.1259 28.2524 30.9034 27.3079C31.6808 26.3635 31.9585 25.2802 31.7364 24.0579L31.5698 23.2246L32.2362 23.8913C33.1247 24.6691 34.1798 24.9468 35.4016 24.7246C36.6233 24.5024 37.5118 23.8913 38.0672 22.8913L39.0668 21.3913C39.6221 20.2802 39.6776 19.1691 39.2334 18.0579C38.7891 16.9468 38.0116 16.1691 36.901 15.7246L36.068 15.5579L36.901 15.2246C38.0116 14.7802 38.7891 14.0024 39.2334 12.8913C39.6776 11.7802 39.6221 10.6691 39.0668 9.55794L38.0672 8.05794C37.5118 7.05794 36.6233 6.44683 35.4016 6.22461C34.1798 6.00239 33.1247 6.28016 32.2362 7.05794L31.5698 7.72461L31.7364 6.89127C31.9585 5.66905 31.6808 4.58572 30.9034 3.64127C30.1259 2.69683 29.1263 2.22461 27.9046 2.22461H26.2386C25.0168 2.22461 24.0172 2.69683 23.2398 3.64127C22.4623 4.58572 22.1846 5.66905 22.4068 6.89127L22.5734 7.72461L21.907 7.05794C21.0184 6.28016 19.9633 6.00239 18.7416 6.22461C17.5198 6.44683 16.6313 7.05794 16.076 8.05794L15.0764 9.55794C14.7432 10.3357 14.6321 11.1691 14.7432 12.0579C14.8542 12.9468 15.1874 13.6691 15.7428 14.2246C15.8538 14.3357 16.0204 14.3913 16.2426 14.3913C16.4647 14.3913 16.6313 14.3357 16.7424 14.2246C16.8534 14.1135 16.909 13.9468 16.909 13.7246C16.909 13.5024 16.8534 13.3357 16.7424 13.2246C16.4092 12.8913 16.2148 12.4468 16.1593 11.8913C16.1037 11.3357 16.187 10.8357 16.4092 10.3913L17.2422 8.89127C17.6864 8.22461 18.2695 7.80794 18.9915 7.64127C19.7134 7.47461 20.352 7.66905 20.9074 8.22461L23.0732 10.0579L23.7396 13.5579L17.2422 15.7246C16.1315 16.1691 15.354 16.9468 14.9098 18.0579C14.4655 19.1691 14.521 20.2802 15.0764 21.3913L16.076 22.8913C16.6313 23.8913 17.5198 24.5024 18.7416 24.7246H19.408C20.4076 24.7246 21.2406 24.4468 21.907 23.8913L22.5734 23.2246L22.4068 24.0579C22.1846 25.2802 22.4623 26.3635 23.2398 27.3079C24.0172 28.2524 25.0168 28.7246 26.2386 28.7246H26.4052V42.8913C25.9609 42.2246 25.4611 41.6135 24.9058 41.0579L24.2394 40.3913C24.0172 38.0579 23.0176 35.9746 21.2406 34.1413C19.4635 32.3079 17.2977 31.3357 14.7432 31.2246C14.521 31.2246 14.3267 31.2802 14.1601 31.3913C13.9935 31.5024 13.9102 31.6691 13.9102 31.8913C14.0212 34.4468 14.9931 36.6413 16.8257 38.4746C18.6583 40.3079 20.7963 41.3357 23.2398 41.5579L23.7396 42.0579C25.5166 43.7246 26.4052 45.7802 26.4052 48.2246V51.5579C26.4052 51.6691 26.4607 51.8079 26.5718 51.9746C26.6828 52.1413 26.8494 52.2246 27.0716 52.2246C27.2937 52.2246 27.4603 52.1413 27.5714 51.9746C27.6824 51.8079 27.738 51.6691 27.738 51.5579V44.3913C27.738 41.9468 28.6265 39.8913 30.4036 38.2246L30.9034 37.5579C33.3468 37.3357 35.4849 36.3357 37.3175 34.5579C39.1501 32.7802 40.1219 30.6135 40.233 28.0579C40.233 27.8357 40.1774 27.6691 40.0664 27.5579ZM33.2358 8.22461C33.7911 7.66905 34.4297 7.47461 35.1517 7.64127C35.8736 7.80794 36.4567 8.22461 36.901 8.89127L37.734 10.3913C38.0672 11.0579 38.1227 11.7246 37.9006 12.3913C37.6784 13.0579 37.1786 13.5579 36.4012 13.8913L33.7356 14.7246L33.569 14.5579C33.3468 14.5579 33.1525 14.5857 32.9859 14.6413C32.8193 14.6968 32.6804 14.8357 32.5694 15.0579C32.4583 15.2802 32.4583 15.4746 32.5694 15.6413C32.6804 15.8079 32.847 15.9468 33.0692 16.0579L36.4012 17.2246C37.1786 17.4468 37.6784 17.8913 37.9006 18.5579C38.1227 19.2246 38.0672 19.8913 37.734 20.5579L36.901 22.0579C36.4567 22.7246 35.8736 23.1413 35.1517 23.3079C34.4297 23.4746 33.7911 23.2802 33.2358 22.7246L28.9042 18.8913C29.4595 18.5579 29.9315 18.0857 30.3203 17.4746C30.709 16.8635 30.9034 16.1968 30.9034 15.4746C30.9034 14.7524 30.7368 14.1135 30.4036 13.5579L31.07 10.0579L33.2358 8.22461ZM27.0716 13.0579C27.738 13.0579 28.2933 13.3079 28.7376 13.8079C29.1818 14.3079 29.404 14.8635 29.404 15.4746C29.404 16.0857 29.1818 16.6413 28.7376 17.1413C28.2933 17.6413 27.738 17.8913 27.0716 17.8913C26.4052 17.8913 25.8498 17.6413 25.4056 17.1413C24.9613 16.6413 24.7392 16.0857 24.7392 15.4746C24.7392 14.8635 24.9613 14.3079 25.4056 13.8079C25.8498 13.3079 26.4052 13.0579 27.0716 13.0579ZM24.406 4.55794C24.8502 4.00239 25.4611 3.72461 26.2386 3.72461H27.9046C28.682 3.72461 29.3207 4.00239 29.8205 4.55794C30.3203 5.1135 30.4591 5.78016 30.237 6.55794L29.2374 12.2246C28.571 11.7802 27.849 11.5579 27.0716 11.5579C26.2941 11.5579 25.5722 11.7802 24.9058 12.2246L23.9062 6.55794C23.684 5.78016 23.8506 5.1135 24.406 4.55794ZM20.9074 22.7246C20.352 23.2802 19.7134 23.4746 18.9915 23.3079C18.2695 23.1413 17.6864 22.7246 17.2422 22.0579L16.4092 20.5579C16.076 19.8913 16.0204 19.2246 16.2426 18.5579C16.4647 17.8913 16.9645 17.4468 17.742 17.2246L23.2398 15.2246V15.5579C23.2398 16.2246 23.4341 16.8635 23.8229 17.4746C24.2116 18.0857 24.6836 18.5579 25.239 18.8913L20.9074 22.7246ZM24.406 26.3913C23.8506 25.8357 23.684 25.1691 23.9062 24.3913L24.406 21.7246L27.0716 19.3913L29.7372 21.7246L30.237 24.3913C30.4591 25.1691 30.3203 25.8357 29.8205 26.3913C29.3207 26.9468 28.682 27.2246 27.9046 27.2246H26.2386C25.4611 27.2246 24.8502 26.9468 24.406 26.3913ZM17.9086 37.5579C16.5758 36.1135 15.7428 34.5024 15.4096 32.7246C17.2977 33.0579 18.9082 33.8913 20.241 35.2246C21.5738 36.5579 22.4068 38.1135 22.74 39.8913C20.8518 39.6691 19.2414 38.8913 17.9086 37.5579ZM36.2346 33.5579C34.9018 34.8913 33.2913 35.7246 31.4032 36.0579C31.7364 34.2802 32.5694 32.6968 33.9022 31.3079C35.235 29.9191 36.8454 29.1135 38.7336 28.8913C38.4004 30.6691 37.5674 32.2246 36.2346 33.5579Z" fill="white"/>
</svg>
