<svg width="54" height="54" viewBox="0 0 54 54" fill="none" xmlns="http://www.w3.org/2000/svg">
<g clip-path="url(#clip0_1081_386)">
<path d="M45.082 10.185C45.002 9.945 44.842 9.825 44.602 9.825C42.042 9.745 39.162 10.105 35.962 10.905C31.882 11.945 28.242 13.585 25.042 15.825C24.882 15.905 24.802 16.025 24.802 16.185C24.802 16.345 24.842 16.485 24.922 16.605C25.002 16.725 25.102 16.785 25.222 16.785C25.342 16.785 25.482 16.745 25.642 16.665C28.682 14.505 32.202 12.945 36.202 11.985C37.642 11.585 39.122 11.305 40.642 11.145C40.002 11.385 39.362 11.665 38.722 11.985C35.042 13.985 32.282 16.585 30.442 19.785C30.362 19.065 30.322 18.345 30.322 17.625C30.322 17.465 30.262 17.345 30.142 17.265C30.022 17.185 29.882 17.145 29.722 17.145C29.562 17.145 29.422 17.185 29.302 17.265C29.182 17.345 29.122 17.465 29.122 17.625C29.122 19.145 29.362 20.305 29.842 21.105L26.482 28.665C25.682 27.145 25.362 25.545 25.522 23.865C25.522 23.705 25.462 23.565 25.342 23.445C25.222 23.325 25.102 23.265 24.982 23.265C24.862 23.265 24.742 23.305 24.622 23.385C24.502 23.465 24.442 23.585 24.442 23.745C24.282 25.105 24.442 26.425 24.922 27.705C25.162 28.505 25.482 29.225 25.882 29.865C24.842 32.265 23.882 34.185 23.002 35.625C22.122 33.625 21.682 31.665 21.682 29.745C21.682 29.585 21.642 29.465 21.562 29.385C21.482 29.305 21.362 29.265 21.202 29.265C21.042 29.265 20.902 29.305 20.782 29.385C20.662 29.465 20.602 29.585 20.602 29.745C20.602 31.185 20.842 32.625 21.322 34.065C21.562 35.025 21.882 35.905 22.282 36.705C21.162 38.385 20.002 39.585 18.802 40.305C17.442 38.865 16.562 37.045 16.162 34.845C15.762 32.645 15.962 30.345 16.762 27.945C17.642 25.305 19.162 22.785 21.322 20.385C22.122 19.505 23.002 18.705 23.962 17.985C24.042 17.905 24.102 17.785 24.142 17.625C24.182 17.465 24.142 17.325 24.022 17.205C23.902 17.085 23.782 17.025 23.662 17.025C23.542 17.025 23.402 17.065 23.242 17.145C22.282 17.945 21.402 18.785 20.602 19.665C18.202 22.145 16.562 24.785 15.682 27.585C14.802 30.145 14.582 32.605 15.022 34.965C15.462 37.325 16.402 39.305 17.842 40.905C16.322 41.945 14.482 42.705 12.322 43.185C11.282 43.425 10.362 43.545 9.56203 43.545C9.48203 43.545 9.38203 43.605 9.26203 43.725C9.14203 43.845 9.08203 43.985 9.08203 44.145C9.08203 44.305 9.14203 44.425 9.26203 44.505C9.38203 44.585 9.52203 44.625 9.68203 44.625C10.562 44.625 11.562 44.505 12.682 44.265C15.002 43.705 17.002 42.865 18.682 41.745C19.962 42.785 21.722 43.305 23.962 43.305C26.922 43.305 29.882 42.445 32.842 40.725C35.802 39.005 37.922 36.425 39.202 32.985C40.242 29.945 40.562 26.545 40.162 22.785C39.922 19.745 40.282 17.185 41.242 15.105C41.962 13.585 43.162 12.145 44.842 10.785C45.082 10.625 45.162 10.425 45.082 10.185ZM40.282 14.625C39.162 16.865 38.762 19.625 39.082 22.905C39.482 26.505 39.162 29.745 38.122 32.625C37.002 35.825 35.062 38.205 32.302 39.765C29.542 41.325 26.842 42.145 24.202 42.225C22.282 42.225 20.762 41.825 19.642 41.025C20.522 40.545 21.362 39.785 22.162 38.745H22.282C23.162 38.745 24.082 38.705 25.042 38.625C27.362 38.305 29.202 37.745 30.562 36.945C30.642 36.785 30.702 36.645 30.742 36.525C30.782 36.405 30.762 36.285 30.682 36.165C30.602 36.045 30.482 35.965 30.322 35.925C30.162 35.885 30.042 35.905 29.962 35.985C28.362 37.025 26.042 37.585 23.002 37.665C23.882 36.305 24.882 34.505 26.002 32.265C26.722 32.265 27.522 32.185 28.402 32.025C29.682 31.625 30.842 31.025 31.882 30.225C31.962 30.145 32.022 30.025 32.062 29.865C32.102 29.705 32.062 29.565 31.942 29.445C31.822 29.325 31.702 29.245 31.582 29.205C31.462 29.165 31.322 29.225 31.162 29.385C29.802 30.425 28.242 31.025 26.482 31.185L29.482 24.585H29.602C31.042 24.585 32.442 24.065 33.802 23.025C33.962 22.945 34.042 22.825 34.042 22.665C34.042 22.505 34.002 22.365 33.922 22.245C33.842 22.125 33.722 22.065 33.562 22.065C33.402 22.065 33.282 22.105 33.202 22.185C32.322 22.825 31.362 23.225 30.322 23.385L29.962 23.505L30.922 21.345C31.802 19.425 33.122 17.665 34.882 16.065C36.162 14.865 37.602 13.825 39.202 12.945C40.242 12.465 41.282 12.025 42.322 11.625C41.442 12.585 40.762 13.585 40.282 14.625Z" fill="white"/>
</g>
<defs>
<clipPath id="clip0_1081_386">
<rect width="36" height="36" fill="white" transform="matrix(1 0 0 -1 9.08203 45.2246)"/>
</clipPath>
</defs>
</svg>
