<svg width="53" height="53" viewBox="0 0 53 53" fill="none" xmlns="http://www.w3.org/2000/svg">
<g clip-path="url(#clip0_582_101)">
<path d="M44.1579 14.957H28.7342L31.507 13.0503C32.8934 12.2414 34.0488 11.4325 34.973 10.6236C36.1284 11.0859 37.1682 11.6059 38.0924 12.1836C38.208 12.2992 38.3813 12.357 38.6123 12.357C38.8434 12.357 39.0167 12.2703 39.1322 12.097C39.2478 11.9236 39.3055 11.7214 39.3055 11.4903C39.3055 11.2592 39.19 11.0859 38.9589 10.9703C38.2657 10.3925 37.3992 9.9303 36.3594 9.58363C37.1682 9.00586 37.6881 8.48586 37.9191 8.02363C38.7279 6.86808 39.0456 5.65474 38.8723 4.38363C38.699 3.11252 38.0924 2.07252 37.0526 1.26363C36.0128 0.454744 34.8286 0.136967 33.5 0.3103C32.1714 0.483633 31.0738 1.11919 30.2073 2.21697C29.3408 3.31474 28.3299 5.82808 27.1745 9.75697L26.308 12.5303L25.4415 9.75697C24.2862 5.82808 23.2753 3.31474 22.4088 2.21697C21.5423 1.11919 20.4447 0.483633 19.1161 0.3103C17.7875 0.136967 16.6032 0.454744 15.5634 1.26363C14.5236 2.07252 13.9171 3.11252 13.7438 4.38363C13.5705 5.65474 13.8882 6.86808 14.6969 8.02363C14.928 8.48586 15.4479 9.00586 16.2566 9.58363C15.2168 9.9303 14.3503 10.3925 13.6571 10.9703C13.4261 11.0859 13.3105 11.2592 13.3105 11.4903C13.3105 11.7214 13.3683 11.8947 13.4838 12.0103C13.5994 12.1259 13.7727 12.2125 14.0037 12.2703C14.2348 12.3281 14.4081 12.2992 14.5236 12.1836C15.4479 11.6059 16.4877 11.0859 17.643 10.6236C18.5673 11.4325 19.7226 12.2414 21.109 13.0503L23.8818 14.957H8.45814C7.996 14.957 7.62052 15.1014 7.33169 15.3903C7.04285 15.6792 6.89844 16.0547 6.89844 16.517V23.797C6.89844 24.0281 6.9562 24.2014 7.07174 24.317C7.18727 24.4325 7.36057 24.4903 7.59164 24.4903V50.6636C7.59164 51.1259 7.76494 51.5014 8.11154 51.7903C8.45814 52.0792 8.80474 52.2236 9.15134 52.2236H43.4647C43.8113 52.2236 44.1579 52.0792 44.5045 51.7903C44.8511 51.5014 45.0244 51.1259 45.0244 50.6636V24.4903C45.2555 24.4903 45.4288 24.4325 45.5443 24.317C45.6599 24.2014 45.7176 24.0281 45.7176 23.797V16.517C45.7176 16.0547 45.5732 15.6792 45.2844 15.3903C44.9956 15.1014 44.6201 14.957 44.1579 14.957ZM28.5609 10.277C29.7163 6.46363 30.6983 4.03697 31.507 2.99697C32.0847 2.30363 32.8068 1.89919 33.6733 1.78363C34.5398 1.66808 35.3485 1.8703 36.0995 2.3903C36.8505 2.9103 37.2837 3.63252 37.3992 4.55697C37.5148 5.48141 37.2837 6.2903 36.706 6.98363C36.3594 7.56141 35.6662 8.25474 34.6264 9.06363C33.1245 8.71697 31.7959 8.71697 30.6405 9.06363C29.8318 9.29474 29.1386 9.69919 28.5609 10.277ZM15.91 6.98363C15.3324 6.2903 15.1013 5.48141 15.2168 4.55697C15.3324 3.63252 15.7079 2.93919 16.3433 2.47697C16.9787 2.01474 17.7008 1.78363 18.5095 1.78363C19.5493 1.78363 20.4447 2.24586 21.1957 3.1703C21.9467 4.09474 22.8998 6.46363 24.0551 10.277C23.4775 9.69919 22.7843 9.29474 21.9755 9.06363C20.8202 8.71697 19.4916 8.71697 17.9896 9.06363C16.9498 8.25474 16.2566 7.56141 15.91 6.98363ZM23.8818 23.1036H14.177C13.946 23.1036 13.7438 23.1614 13.5705 23.277C13.3972 23.3925 13.3105 23.5659 13.3105 23.797C13.3105 24.0281 13.3972 24.2014 13.5705 24.317C13.7438 24.4325 13.946 24.4903 14.177 24.4903H23.8818V50.6636H9.15134V24.4903H10.8843C11.1154 24.4903 11.2887 24.4325 11.4042 24.317C11.5198 24.2014 11.5775 24.0281 11.5775 23.797C11.5775 23.5659 11.5198 23.3925 11.4042 23.277C11.2887 23.1614 11.1154 23.1036 10.8843 23.1036H8.28484V16.517L8.45814 16.3436H23.8818V23.1036ZM21.9755 11.837C21.1668 11.2592 20.4158 10.7392 19.7226 10.277C20.4158 10.277 20.9935 10.3925 21.4556 10.6236C22.842 10.9703 23.9396 11.9525 24.7483 13.5703L21.9755 11.837ZM27.1745 50.6636H25.4415V16.3436H27.1745V50.6636ZM31.1604 10.6236C31.6226 10.3925 32.2002 10.277 32.8934 10.277L27.8677 13.5703C28.6765 11.9525 29.774 10.9703 31.1604 10.6236ZM44.3312 23.1036H41.7317C41.5007 23.1036 41.3274 23.1614 41.2118 23.277C41.0963 23.3925 41.0385 23.5659 41.0385 23.797C41.0385 24.0281 41.0963 24.2014 41.2118 24.317C41.3274 24.4325 41.5007 24.4903 41.7317 24.4903H43.4647V50.6636H28.7342V24.4903H38.439C38.6701 24.4903 38.8723 24.4325 39.0456 24.317C39.2189 24.2014 39.3055 24.0281 39.3055 23.797C39.3055 23.5659 39.2189 23.3925 39.0456 23.277C38.8723 23.1614 38.6701 23.1036 38.439 23.1036H28.7342V16.3436H44.1579L44.3312 16.517V23.1036Z" fill="#DB7137"/>
</g>
<defs>
<clipPath id="clip0_582_101">
<rect width="52.01" height="52" fill="white" transform="matrix(1 0 0 -1 0.302734 52.2236)"/>
</clipPath>
</defs>
</svg>
