<svg width="25" height="25" viewBox="0 0 25 25" fill="none" xmlns="http://www.w3.org/2000/svg">
<path d="M12.4395 8.57508C13.0645 8.57508 13.6582 8.76259 14.2207 9.07508C14.7832 9.38759 15.2207 9.82508 15.5332 10.3876C15.8457 10.9501 16.0332 11.5438 16.0332 12.1688C16.0332 12.8251 15.8457 13.4188 15.5332 13.9813C15.2207 14.5438 14.7832 14.9813 14.2207 15.2938C13.6582 15.6063 13.0645 15.7626 12.4395 15.7626C11.7832 15.7626 11.1895 15.6063 10.627 15.2938C10.0645 14.9813 9.62695 14.5438 9.31446 13.9813C9.00196 13.4188 8.84571 12.8251 8.84571 12.1688C8.84571 11.5438 9.00196 10.9501 9.31446 10.3876C9.62695 9.82508 10.0645 9.38759 10.627 9.07508C11.1895 8.76259 11.7832 8.57508 12.4395 8.57508ZM12.4395 14.5126C13.0645 14.5126 13.627 14.2938 14.0957 13.8251C14.5332 13.3876 14.7832 12.8251 14.7832 12.1688C14.7832 11.5438 14.5332 10.9813 14.0957 10.5126C13.627 10.0751 13.0645 9.82508 12.4395 9.82508C11.7832 9.82508 11.2207 10.0751 10.7832 10.5126C10.3145 10.9813 10.0957 11.5438 10.0957 12.1688C10.0957 12.8251 10.3145 13.3876 10.7832 13.8251C11.2207 14.2938 11.7832 14.5126 12.4395 14.5126ZM17.0332 8.41883C17.0332 8.20008 16.9395 8.01259 16.7832 7.82508C16.5957 7.66883 16.4082 7.57508 16.1895 7.57508C15.9395 7.57508 15.752 7.66883 15.5957 7.82508C15.4082 8.01259 15.3457 8.20008 15.3457 8.41883C15.3457 8.66883 15.4082 8.85633 15.5957 9.01259C15.752 9.20008 15.9395 9.26259 16.1895 9.26259C16.4082 9.26259 16.5957 9.20008 16.752 9.01259C16.9082 8.85633 17.002 8.66883 17.0332 8.41883ZM19.4083 9.26259C19.4083 9.85633 19.4395 10.8251 19.4395 12.1688C19.4395 13.5438 19.4083 14.5126 19.3769 15.1063C19.3457 15.7001 19.252 16.2001 19.1269 16.6376C18.9395 17.1688 18.6269 17.6376 18.252 18.0126C17.8769 18.3876 17.4082 18.6688 16.9082 18.8563C16.4707 19.0126 15.9395 19.1063 15.3457 19.1376C14.752 19.1688 13.7832 19.1688 12.4395 19.1688C11.0645 19.1688 10.0957 19.1688 9.50196 19.1376C8.9082 19.1063 8.4082 19.0126 7.97071 18.8251C7.43945 18.6688 6.97071 18.3876 6.59571 18.0126C6.22071 17.6376 5.93945 17.1688 5.75195 16.6376C5.5957 16.2001 5.50195 15.7001 5.4707 15.1063C5.43945 14.5126 5.43945 13.5438 5.43945 12.1688C5.43945 10.8251 5.43945 9.85633 5.4707 9.26259C5.50195 8.66883 5.5957 8.13759 5.75195 7.70008C5.93945 7.20008 6.22071 6.73133 6.59571 6.35633C6.97071 5.98133 7.43945 5.66882 7.97071 5.48133C8.4082 5.35633 8.9082 5.26258 9.50196 5.23133C10.0957 5.20008 11.0645 5.16882 12.4395 5.16882C13.7832 5.16882 14.752 5.20008 15.3457 5.23133C15.9395 5.26258 16.4707 5.35633 16.9082 5.48133C17.4082 5.66882 17.8769 5.98133 18.252 6.35633C18.6269 6.73133 18.9395 7.20008 19.1269 7.70008C19.252 8.13759 19.3457 8.66883 19.4083 9.26259ZM17.9083 16.2939C18.0332 15.9501 18.0957 15.3876 18.1583 14.6063C18.1583 14.1688 18.1895 13.5126 18.1895 12.6688V11.6688C18.1895 10.8251 18.1583 10.1688 18.1583 9.73133C18.0957 8.95008 18.0332 8.38759 17.9083 8.04383C17.6582 7.41883 17.1895 6.95008 16.5645 6.70008C16.2207 6.57508 15.6582 6.51258 14.877 6.45008C14.4082 6.45008 13.752 6.41882 12.9395 6.41882H11.9395C11.0957 6.41882 10.4395 6.45008 10.002 6.45008C9.22071 6.51258 8.6582 6.57508 8.31446 6.70008C7.6582 6.95008 7.22071 7.41883 6.97071 8.04383C6.84571 8.38759 6.75196 8.95008 6.72071 9.73133C6.68945 10.2001 6.68945 10.8563 6.68945 11.6688V12.6688C6.68945 13.5126 6.68945 14.1688 6.72071 14.6063C6.75196 15.3876 6.84571 15.9501 6.97071 16.2939C7.22071 16.9502 7.68946 17.3876 8.31446 17.6376C8.6582 17.7626 9.22071 17.8563 10.002 17.8876C10.4395 17.9188 11.0957 17.9188 11.9395 17.9188H12.9395C13.7832 17.9188 14.4395 17.9188 14.877 17.8876C15.6582 17.8563 16.2207 17.7626 16.5645 17.6376C17.1895 17.3876 17.6582 16.9188 17.9083 16.2939Z" fill="white"/>
</svg>
