<svg width="53" height="53" viewBox="0 0 53 53" fill="none" xmlns="http://www.w3.org/2000/svg">
<g clip-path="url(#clip0_582_407)">
<path d="M52.4121 1.47208C52.2966 1.12542 52.0654 0.952084 51.7188 0.952084C48.021 0.836528 43.861 1.35653 39.2388 2.51208C33.3454 4.01431 28.0877 6.38319 23.4654 9.61875C23.2343 9.73431 23.1188 9.90764 23.1188 10.1388C23.1188 10.3699 23.1766 10.5721 23.2921 10.7454C23.4077 10.9188 23.5521 11.0054 23.7254 11.0054C23.8988 11.0054 24.101 10.9476 24.3321 10.8321C28.7232 7.71208 33.8077 5.45875 39.5854 4.07208C41.6654 3.49431 43.8032 3.08986 45.9988 2.85875C45.0743 3.20542 44.1499 3.60986 43.2254 4.07208C37.9099 6.96097 33.9232 10.7165 31.2654 15.3388C31.1499 14.2988 31.0921 13.2588 31.0921 12.2188C31.0921 11.9876 31.0054 11.8143 30.8321 11.6988C30.6588 11.5832 30.4566 11.5254 30.2254 11.5254C29.9943 11.5254 29.7921 11.5832 29.6188 11.6988C29.4454 11.8143 29.3588 11.9876 29.3588 12.2188C29.3588 14.4143 29.7054 16.0899 30.3988 17.2454L25.5454 28.1654C24.3899 25.9699 23.9277 23.6588 24.1588 21.2321C24.1588 21.001 24.0721 20.7988 23.8988 20.6254C23.7254 20.4521 23.5521 20.3654 23.3788 20.3654C23.2054 20.3654 23.0321 20.4232 22.8588 20.5388C22.6854 20.6543 22.5988 20.8276 22.5988 21.0588C22.3677 23.0232 22.5988 24.9299 23.2921 26.7788C23.6388 27.9343 24.101 28.9743 24.6788 29.8988C23.1766 33.3654 21.7899 36.1388 20.5188 38.2188C19.2477 35.3299 18.6121 32.4988 18.6121 29.7254C18.6121 29.4943 18.5543 29.321 18.4388 29.2054C18.3232 29.0899 18.1499 29.0321 17.9188 29.0321C17.6877 29.0321 17.4854 29.0899 17.3121 29.2054C17.1388 29.321 17.0521 29.4943 17.0521 29.7254C17.0521 31.8054 17.3988 33.8854 18.0921 35.9654C18.4388 37.3521 18.901 38.6232 19.4788 39.7788C17.861 42.2054 16.1854 43.9388 14.4521 44.9788C12.4877 42.8988 11.2166 40.2699 10.6388 37.0921C10.061 33.9143 10.3499 30.5921 11.5054 27.1254C12.7766 23.3121 14.9721 19.6721 18.0921 16.2054C19.2477 14.9343 20.5188 13.7788 21.9054 12.7388C22.021 12.6232 22.1077 12.4499 22.1654 12.2188C22.2232 11.9876 22.1654 11.7854 21.9921 11.6121C21.8188 11.4388 21.6454 11.3521 21.4721 11.3521C21.2988 11.3521 21.0966 11.4099 20.8654 11.5254C19.4788 12.681 18.2077 13.8943 17.0521 15.1654C13.5854 18.7476 11.2166 22.561 9.94544 26.6054C8.67433 30.3032 8.35655 33.8565 8.99211 37.2654C9.62766 40.6743 10.9854 43.5343 13.0654 45.8454C10.8699 47.3476 8.21211 48.4454 5.09211 49.1388C3.58989 49.4854 2.261 49.6588 1.10544 49.6588C0.989887 49.6588 0.845443 49.7454 0.672109 49.9188C0.498776 50.0921 0.412109 50.2943 0.412109 50.5254C0.412109 50.7565 0.498776 50.9299 0.672109 51.0454C0.845443 51.161 1.04766 51.2188 1.27878 51.2188C2.54989 51.2188 3.99433 51.0454 5.61211 50.6988C8.96322 49.8899 11.8521 48.6765 14.2788 47.0588C16.1277 48.561 18.6699 49.3121 21.9054 49.3121C26.181 49.3121 30.4566 48.0699 34.7321 45.5854C39.0077 43.101 42.0699 39.3743 43.9188 34.4054C45.421 30.0143 45.8832 25.1032 45.3054 19.6721C44.9588 15.281 45.4788 11.5832 46.8654 8.57875C47.9054 6.38319 49.6388 4.30319 52.0654 2.33875C52.4121 2.10764 52.5277 1.81875 52.4121 1.47208ZM45.4788 7.88542C43.861 11.121 43.2832 15.1076 43.7454 19.8454C44.3232 25.0454 43.861 29.7254 42.3588 33.8854C40.741 38.5076 37.9388 41.9454 33.9521 44.1988C29.9654 46.4521 26.0654 47.6365 22.2521 47.7521C19.4788 47.7521 17.2832 47.1743 15.6654 46.0188C16.9366 45.3254 18.1499 44.2276 19.3054 42.7254H19.4788C20.7499 42.7254 22.0788 42.6676 23.4654 42.5521C26.8166 42.0899 29.4743 41.281 31.4388 40.1254C31.5543 39.8943 31.641 39.6921 31.6988 39.5188C31.7566 39.3454 31.7277 39.1721 31.6121 38.9988C31.4966 38.8254 31.3232 38.7099 31.0921 38.6521C30.861 38.5943 30.6877 38.6232 30.5721 38.7388C28.261 40.241 24.9099 41.0499 20.5188 41.1654C21.7899 39.201 23.2343 36.601 24.8521 33.3654C25.8921 33.3654 27.0477 33.2499 28.3188 33.0188C30.1677 32.441 31.8432 31.5743 33.3454 30.4188C33.461 30.3032 33.5477 30.1299 33.6054 29.8988C33.6632 29.6676 33.6054 29.4654 33.4321 29.2921C33.2588 29.1188 33.0854 29.0032 32.9121 28.9454C32.7388 28.8876 32.5366 28.9743 32.3054 29.2054C30.341 30.7076 28.0877 31.5743 25.5454 31.8054L29.8788 22.2721H30.0521C32.1321 22.2721 34.1543 21.521 36.1188 20.0188C36.3499 19.9032 36.4654 19.7299 36.4654 19.4988C36.4654 19.2676 36.4077 19.0654 36.2921 18.8921C36.1766 18.7188 36.0032 18.6321 35.7721 18.6321C35.541 18.6321 35.3677 18.6899 35.2521 18.8054C33.981 19.7299 32.5943 20.3076 31.0921 20.5388L30.5721 20.7121L31.9588 17.5921C33.2299 14.8188 35.1366 12.2765 37.6788 9.96542C39.5277 8.23208 41.6077 6.72986 43.9188 5.45875C45.421 4.76542 46.9232 4.12986 48.4254 3.55208C47.1543 4.93875 46.1721 6.38319 45.4788 7.88542Z" fill="#DB7137"/>
</g>
<defs>
<clipPath id="clip0_582_407">
<rect width="52.02" height="52" fill="white" transform="matrix(1 0 0 -1 0.402344 52.0854)"/>
</clipPath>
</defs>
</svg>
