<svg width="25" height="25" viewBox="0 0 25 25" fill="none" xmlns="http://www.w3.org/2000/svg">
<path d="M7.54804 3.54138C6.57561 3.54138 5.86963 4.21218 5.86963 5.13574C5.86963 6.05899 6.5616 6.72917 7.51442 6.72917C8.00873 6.72917 8.43455 6.56886 8.74614 6.26568C9.04497 5.97464 9.20963 5.5734 9.20932 5.12858C9.18753 4.19413 8.50428 3.54138 7.54804 3.54138ZM8.31222 5.81962C8.11923 6.00732 7.84313 6.10662 7.51442 6.10662C6.91272 6.10662 6.49218 5.70756 6.49218 5.13574C6.49218 4.55459 6.91645 4.16394 7.54804 4.16394C8.1653 4.16394 8.57307 4.54836 8.58708 5.13606C8.58677 5.40438 8.48934 5.64686 8.31222 5.81962Z" fill="white"/>
<path d="M6.16822 17.5411H8.96598V7.25491H6.16822V17.5411ZM6.79078 7.87747H8.34343V16.9182H6.79078V7.87747Z" fill="white"/>
<path d="M16.3436 7.25491C15.0461 7.25491 14.2518 7.70284 13.7917 8.124L13.7042 7.25491H10.5389V17.5408H13.6389V12.1348C13.6389 11.902 13.7332 11.4186 13.7923 11.2909C14.1668 10.4844 14.672 10.4844 15.4371 10.4844C16.3183 10.4844 17.0629 11.3109 17.0629 12.2889V17.5414H20.1757V11.7298C20.1757 8.65504 18.1891 7.25491 16.3436 7.25491ZM19.5531 16.9185H17.6855V12.2886C17.6855 10.9728 16.6558 9.86155 15.4371 9.86155C14.6552 9.86155 13.7693 9.86155 13.2274 11.0288C13.1156 11.2701 13.016 11.8481 13.016 12.1348V16.9185H11.1614V7.87747H13.1411L13.2681 9.13627H13.7783L13.8695 8.98904C14.0771 8.65473 14.7336 7.87716 16.3436 7.87716C17.8894 7.87716 19.5531 9.08242 19.5531 11.7289V16.9185Z" fill="white"/>
</svg>
