<svg width="20" height="21" viewBox="0 0 20 21" fill="none" xmlns="http://www.w3.org/2000/svg">
<g clip-path="url(#clip0_536_890)">
<path d="M4.06666 14.2369C6.06666 16.6369 8.42221 18.4813 11.1333 19.7702C12.6 20.4813 13.9111 20.8813 15.0667 20.9702H15.3333C16.3555 20.9702 17.2222 20.6147 17.9333 19.9035V19.8369C18.0667 19.6591 18.3111 19.4147 18.6667 19.1035L19.3333 18.4369C19.7333 17.9924 19.9333 17.5035 19.9333 16.9702C19.9333 16.4369 19.7111 15.948 19.2667 15.5035L16.8 12.9702C16.3555 12.5258 15.8667 12.3035 15.3333 12.3035C14.8 12.3035 14.3111 12.5258 13.8667 12.9702L12.4 14.4369L11.5333 13.9702C10.2 13.1258 8.95555 11.9924 7.79999 10.5702C7.17777 9.8591 6.73332 9.19244 6.46666 8.57021C6.77777 8.30355 7.15555 7.94799 7.59999 7.50355L7.99999 7.10355C8.44443 6.61466 8.66666 6.10355 8.66666 5.57021C8.66666 5.03688 8.44443 4.54799 7.99999 4.10355L5.46666 1.63688C5.06666 1.19244 4.58888 0.970213 4.03332 0.970213C3.47777 0.970213 2.97777 1.19244 2.53332 1.63688L0.999989 3.17021C0.422211 3.74799 0.1111 4.41466 0.0666558 5.17021C-0.0222331 6.14799 0.155545 7.2591 0.599989 8.50355C1.3111 10.4591 2.46666 12.3702 4.06666 14.2369ZM1.06666 5.30355C1.1111 4.72577 1.33332 4.2591 1.73332 3.90355L3.26666 2.37021C3.48888 2.10355 3.73332 1.97021 3.99999 1.97021C4.26666 1.97021 4.53332 2.10355 4.79999 2.37021L7.26666 4.83688C7.53332 5.10355 7.66666 5.3591 7.66666 5.60355C7.66666 5.84799 7.53332 6.10355 7.26666 6.37021L6.79999 6.83688C6.35555 7.32577 5.99999 7.68132 5.73332 7.90355C5.46666 8.17021 5.39999 8.48133 5.53332 8.83688C5.84443 9.59244 6.33332 10.3924 6.99999 11.2369C8.19999 12.748 9.53332 13.948 11 14.8369L12 15.4369C12.1333 15.5258 12.2889 15.5702 12.4667 15.5702C12.6444 15.5702 12.8444 15.4591 13.0667 15.2369L14.6 13.7035C14.8222 13.4369 15.0667 13.3035 15.3333 13.3035C15.6 13.3035 15.8444 13.4369 16.0667 13.7035L18.6 16.1702C19.0889 16.7035 19.0667 17.2369 18.5333 17.7702L17.9333 18.3702C17.5778 18.7258 17.3111 19.0147 17.1333 19.2369C16.6889 19.7258 16.1111 19.9702 15.4 19.9702H15.1333C14.1111 19.8813 12.9333 19.5258 11.6 18.9035C8.97777 17.6591 6.73332 15.9035 4.86666 13.6369C3.35555 11.8147 2.26666 9.99244 1.59999 8.17021C1.19999 7.0591 1.02221 6.10355 1.06666 5.30355Z" fill="#DB7137"/>
</g>
<defs>
<clipPath id="clip0_536_890">
<rect width="20" height="20" fill="white" transform="matrix(1 0 0 -1 0 20.9702)"/>
</clipPath>
</defs>
</svg>
