<svg width="20" height="21" viewBox="0 0 20 21" fill="none" xmlns="http://www.w3.org/2000/svg">
<g clip-path="url(#clip0_536_880)">
<path d="M9.99984 4.97021C9.24428 4.97021 8.54428 5.1591 7.89984 5.53688C7.25539 5.91466 6.74428 6.42577 6.3665 7.07021C5.98873 7.71466 5.79984 8.41466 5.79984 9.17021C5.79984 9.92577 5.98873 10.6147 6.3665 11.2369C6.74428 11.8591 7.25539 12.3591 7.89984 12.7369C8.54428 13.1147 9.24428 13.3035 9.99984 13.3035C10.7554 13.3035 11.4554 13.1147 12.0998 12.7369C12.7443 12.3591 13.2554 11.8591 13.6332 11.2369C14.0109 10.6147 14.1998 9.92577 14.1998 9.17021C14.1998 8.41466 14.0109 7.71466 13.6332 7.07021C13.2554 6.42577 12.7443 5.91466 12.0998 5.53688C11.4554 5.1591 10.7554 4.97021 9.99984 4.97021ZM9.99984 12.3035C9.11095 12.3035 8.35539 11.9924 7.73317 11.3702C7.11095 10.748 6.79984 10.0035 6.79984 9.13688C6.79984 8.27021 7.11095 7.52577 7.73317 6.90355C8.35539 6.28133 9.11095 5.97021 9.99984 5.97021C10.8887 5.97021 11.6443 6.28133 12.2665 6.90355C12.8887 7.52577 13.1998 8.27021 13.1998 9.13688C13.1998 10.0035 12.8887 10.748 12.2665 11.3702C11.6443 11.9924 10.8887 12.3035 9.99984 12.3035ZM9.99984 0.970213C9.8665 0.970213 9.77762 0.970213 9.73317 0.970213C8.39984 1.01466 7.1665 1.3591 6.03317 2.00355C4.89984 2.64799 3.9665 3.52577 3.23317 4.63688C2.49984 5.74799 2.0665 6.94799 1.93317 8.23688C1.88873 9.03688 1.93317 9.81466 2.0665 10.5702L2.13317 10.8369C2.2665 11.3702 2.44428 11.9035 2.6665 12.4369C3.15539 13.6369 3.8665 14.8591 4.79984 16.1035C5.99984 17.7035 7.48873 19.2369 9.2665 20.7035C9.48873 20.8813 9.73317 20.9702 9.99984 20.9702C10.2665 20.9702 10.5109 20.8813 10.7332 20.7035C12.5109 19.2369 13.9998 17.7035 15.1998 16.1035C16.1332 14.8591 16.8443 13.6369 17.3332 12.4369C17.5554 11.9035 17.7332 11.3702 17.8665 10.8369L17.9332 10.5702C18.0221 10.0813 18.0665 9.57021 18.0665 9.03688C18.0665 7.57021 17.6998 6.22577 16.9665 5.00355C16.2332 3.78132 15.2554 2.80355 14.0332 2.07021C12.8109 1.33688 11.4665 0.970213 9.99984 0.970213ZM16.9332 10.4369C16.9332 10.4369 16.9332 10.5035 16.9332 10.6369C16.7998 11.1258 16.6221 11.5924 16.3998 12.0369C15.9109 13.1924 15.2443 14.348 14.3998 15.5035C13.2443 17.0147 11.8221 18.4813 10.1332 19.9035L9.99984 19.9702L9.8665 19.9035C8.17762 18.4813 6.75539 17.0147 5.59984 15.5035C4.75539 14.348 4.08873 13.1924 3.59984 12.0369C3.37762 11.5924 3.19984 11.1258 3.0665 10.6369V10.3702C2.93317 9.70355 2.88873 9.03688 2.93317 8.37021C3.0665 7.21466 3.44428 6.1591 4.0665 5.20355C4.68873 4.24799 5.49984 3.48133 6.49984 2.90355C7.49984 2.32577 8.57762 2.01466 9.73317 1.97021C11.0665 1.92577 12.2887 2.21466 13.3998 2.83688C14.5109 3.4591 15.3998 4.32577 16.0665 5.43688C16.7332 6.54799 17.0665 7.74799 17.0665 9.03688C17.0665 9.48133 17.0221 9.94799 16.9332 10.4369Z" fill="#DB7137"/>
</g>
<defs>
<clipPath id="clip0_536_880">
<rect width="20" height="20" fill="white" transform="matrix(1 0 0 -1 0 20.9702)"/>
</clipPath>
</defs>
</svg>
