<svg width="53" height="53" viewBox="0 0 53 53" fill="none" xmlns="http://www.w3.org/2000/svg">
<g clip-path="url(#clip0_582_423)">
<path d="M52.2088 34.0588C52.0933 33.8277 51.8622 33.7121 51.5155 33.7121L47.0088 34.2321C46.7777 34.2321 46.6044 34.3188 46.4888 34.4921C46.3733 34.6655 46.3155 34.8677 46.3155 35.0988C46.3155 35.3299 46.4022 35.5033 46.5755 35.6188C46.7488 35.7344 46.9511 35.7921 47.1822 35.7921L49.2622 35.6188C47.5288 36.4277 44.64 36.6588 40.5955 36.3121C39.44 36.1966 38.2266 36.0233 36.9555 35.7921C37.88 33.0188 38.4 30.0144 38.5155 26.7788H45.1022C44.9866 29.0899 44.5244 31.2855 43.7155 33.3655C43.6 33.5966 43.5711 33.7988 43.6288 33.9721C43.6866 34.1455 43.8311 34.2899 44.0622 34.4055H44.4088C44.7555 34.4055 44.9866 34.2899 45.1022 34.0588C45.9111 32.2099 46.3733 30.2455 46.4888 28.1655C48.2222 29.4366 49.4355 30.6499 50.1288 31.8055C50.2444 32.0366 50.4177 32.1521 50.6488 32.1521C50.88 32.1521 51.0822 32.0944 51.2555 31.9788C51.4288 31.8633 51.5155 31.6899 51.5155 31.4588C51.5155 31.2277 51.4577 31.0544 51.3422 30.9388C50.4177 29.5521 48.8577 28.0499 46.6622 26.4321V26.0855C46.6622 22.3877 45.7377 18.9788 43.8888 15.8588C42.04 12.7388 39.5844 10.2833 36.5222 8.49215C33.46 6.70103 30.08 5.80548 26.3822 5.80548C24.0711 5.80548 21.8177 6.18103 19.6222 6.93215C17.4266 7.68326 15.4044 8.80992 13.5555 10.3121C12.1689 11.4677 10.9555 12.7966 9.91552 14.2988C7.25774 14.1833 5.11996 14.4144 3.50218 14.9921L4.19552 13.9521C4.19552 13.721 4.19552 13.5188 4.19552 13.3455C4.19552 13.1721 4.07996 13.0277 3.84885 12.9121C3.61774 12.7966 3.41552 12.7677 3.24218 12.8255C3.06885 12.8833 2.92441 12.9699 2.80885 13.0855L0.555517 17.0721C0.324406 17.4188 0.295517 17.7077 0.46885 17.9388C0.642184 18.1699 0.844406 18.2855 1.07552 18.2855L5.75552 17.9388C5.98663 17.8233 6.15996 17.7077 6.27552 17.5921C6.39107 17.4766 6.44885 17.3033 6.44885 17.0721C6.44885 16.841 6.36218 16.6677 6.18885 16.5521C6.01552 16.4366 5.81329 16.3788 5.58218 16.3788L3.67552 16.5521C4.83107 15.9744 6.56441 15.6855 8.87552 15.6855C7.83552 17.5344 7.08441 19.4988 6.62218 21.5788C6.50663 21.8099 6.50663 22.0121 6.62218 22.1855C6.73774 22.3588 6.91107 22.4744 7.14218 22.5321C7.37329 22.5899 7.57552 22.561 7.74885 22.4455C7.92218 22.3299 8.00885 22.1566 8.00885 21.9255C8.58663 19.4988 9.62663 17.2455 11.1289 15.1655C12.6311 15.5121 14.1911 15.8588 15.8089 16.2055C14.7689 18.9788 14.2489 22.041 14.2489 25.3921H8.18218C5.40885 23.5433 3.50218 21.8677 2.46218 20.3655C2.34663 20.1344 2.20218 19.9899 2.02885 19.9321C1.85552 19.8744 1.68218 19.9033 1.50885 20.0188C1.33552 20.1344 1.21996 20.3077 1.16218 20.5388C1.10441 20.7699 1.13329 20.9433 1.24885 21.0588C2.17329 22.561 3.79107 24.121 6.10218 25.7388V26.0855C6.10218 29.7833 6.99774 33.1921 8.78885 36.3121C10.58 39.4321 13.0355 41.8877 16.1555 43.6788C19.2755 45.4699 22.6844 46.3655 26.3822 46.3655C29.6177 46.3655 32.68 45.6144 35.5688 44.1121C38.4577 42.6099 40.8844 40.5299 42.8488 37.8721H43.5422C45.9688 37.8721 47.8755 37.641 49.2622 37.1788L48.7422 38.2188C48.6266 38.3344 48.5977 38.5077 48.6555 38.7388C48.7133 38.9699 48.8577 39.1433 49.0888 39.2588H49.4355C49.6666 39.2588 49.8977 39.1433 50.1288 38.9121L52.2088 34.9255C52.44 34.6944 52.44 34.4055 52.2088 34.0588ZM12.1689 13.7788C12.8622 12.9699 13.6711 12.2188 14.5955 11.5255C16.3289 10.0233 18.2933 8.92548 20.4889 8.23215C19.4489 9.15659 18.5244 10.3699 17.7155 11.8721C17.1377 12.7966 16.6755 13.721 16.3289 14.6455C14.8266 14.4144 13.44 14.1255 12.1689 13.7788ZM14.2489 26.7788C14.2489 27.4721 14.2489 28.1077 14.2489 28.6855C12.9777 28.1077 11.7644 27.4721 10.6089 26.7788H14.2489ZM11.1289 37.0055C8.93329 34.001 7.77774 30.5921 7.66218 26.7788L9.39552 27.8188C10.8977 28.7433 12.5733 29.6677 14.4222 30.5921C14.7689 32.441 15.2311 34.2321 15.8089 35.9655C14.1911 36.3121 12.6311 36.6588 11.1289 37.0055ZM12.1689 38.3921C13.44 38.0455 14.8266 37.7566 16.3289 37.5255C16.6755 38.4499 17.1377 39.3744 17.7155 40.2988C18.5244 41.801 19.4489 43.0144 20.4889 43.9388C17.2533 42.8988 14.48 41.0499 12.1689 38.3921ZM16.1555 31.2855C18.5822 32.3255 21.0666 33.2499 23.6088 34.0588L25.5155 34.7521V35.0988C22.7422 35.0988 19.9689 35.3299 17.1955 35.7921C16.7333 34.4055 16.3866 32.9033 16.1555 31.2855ZM25.5155 44.8055C22.9733 44.4588 20.7777 42.6677 18.9289 39.4321C18.5822 38.7388 18.2355 37.9877 17.8889 37.1788C20.3155 36.8321 22.8577 36.6588 25.5155 36.6588V44.8055ZM25.5155 33.1921C25.0533 32.961 24.5911 32.7877 24.1288 32.6721C21.24 31.7477 18.5244 30.7077 15.9822 29.5521C15.8666 28.6277 15.8089 27.7033 15.8089 26.7788H25.5155V33.1921ZM25.5155 25.3921H15.8089C15.8089 22.1566 16.2711 19.1521 17.1955 16.3788C19.9689 16.841 22.7422 17.0721 25.5155 17.0721V25.3921ZM25.5155 15.5121C22.8577 15.5121 20.3155 15.3388 17.8889 14.9921C18.2355 14.1833 18.5822 13.4321 18.9289 12.7388C20.7777 9.50326 22.9733 7.71215 25.5155 7.36548V15.5121ZM41.6355 15.1655C43.8311 18.1699 44.9866 21.5788 45.1022 25.3921H38.5155C38.4 22.041 37.88 18.9788 36.9555 16.2055C38.5733 15.8588 40.1333 15.5121 41.6355 15.1655ZM40.5955 13.7788C39.2088 14.1255 37.8222 14.4144 36.4355 14.6455C36.0888 13.721 35.6266 12.7966 35.0488 11.8721C34.24 10.3699 33.3155 9.15659 32.2755 8.23215C35.5111 9.27215 38.2844 11.121 40.5955 13.7788ZM27.0755 7.36548C29.6177 7.71215 31.8711 9.50326 33.8355 12.7388C34.1822 13.4321 34.5288 14.1833 34.8755 14.9921C32.3333 15.3388 29.7333 15.5121 27.0755 15.5121V7.36548ZM27.0755 17.0721C29.9644 17.0721 32.7377 16.841 35.3955 16.3788C36.4355 19.1521 36.9555 22.1566 36.9555 25.3921H27.0755V17.0721ZM27.0755 26.7788H36.9555C36.9555 30.0144 36.4933 32.961 35.5688 35.6188C32.7955 35.1566 29.9644 34.4633 27.0755 33.5388V26.7788ZM27.0755 44.8055V36.6588C29.7333 36.6588 32.3333 36.8321 34.8755 37.1788C34.5288 37.9877 34.1822 38.7388 33.8355 39.4321C31.8711 42.6677 29.6177 44.4588 27.0755 44.8055ZM32.2755 43.9388C33.3155 43.0144 34.24 41.801 35.0488 40.2988C35.6266 39.3744 36.0888 38.4499 36.4355 37.5255C37.8222 37.7566 39.2088 38.0455 40.5955 38.3921C38.2844 41.0499 35.5111 42.8988 32.2755 43.9388Z" fill="#DB7137"/>
</g>
<defs>
<clipPath id="clip0_582_423">
<rect width="52.02" height="52" fill="white" transform="matrix(1 0 0 -1 0.373047 52.0854)"/>
</clipPath>
</defs>
</svg>
