<svg id="Layer_1" data-name="Layer 1" xmlns="http://www.w3.org/2000/svg" viewBox="0 0 344.571 256.74">
  <title>quotes</title>
  <path fill="currentColor"
    d="M214.571,158.151c-16.518-26.909-44.778-39.981-74.332-34.41-41.758,7.871-68.179,46.21-60.718,88.105,6.553,36.795,42.484,64.193,79.558,60.286,7.972-.84,15.8-3.058,23.759-4.654a2.572,2.572,0,0,1-.009.847c-6.933,43.284-26.675,78.585-64.146,102.813-2.125,1.375-4.091,2.9-2.849,5.7,1.3,2.924,3.712,2.64,6.374,1.792,29.506-9.406,54.237-25.917,73.32-50.314,26.947-34.451,38.436-73.809,35.3-117.335C229.469,192.216,224.521,174.362,214.571,158.151ZM184.617,329.118a133.609,133.609,0,0,1-33.545,27.975c-1.14.68-2.33,1.275-3.5,1.91a155.87,155.87,0,0,0,38.577-69.083c2.4-9.145,3.763-18.573,5.285-27.922.291-1.786-.336-4.467-1.574-5.517-.984-.836-3.8-.327-5.367.459-16.64,8.355-33.856,10.1-51.633,4.54A67.124,67.124,0,0,1,86.343,190.9c2.875-30.442,27.315-55.975,57.722-59.721,24.918-3.07,45.2,5.42,60.114,25.841,10.968,15.021,16.563,32.214,18.348,50.467C227,253.272,214.546,294.005,184.617,329.118ZM409.554,164.576c-15.784-30.984-44.727-46.273-77.307-40.952-39.584,6.465-67.007,43.322-62.138,83.515,4.8,39.654,41.032,68.793,81.17,64.908,7.615-.737,15.083-2.983,22.86-4.583-.042-.176.056.061.061.3a6.257,6.257,0,0,1-.08,1.119c-7.041,43.128-26.837,78.256-64.21,102.355-2.112,1.361-4.016,2.914-2.624,5.749,1.328,2.707,3.564,2.5,6.1,1.7,29.767-9.448,54.559-26.2,73.86-50.771,22.643-28.831,34.112-61.859,35.473-98.345C423.56,206.925,419.96,185,409.554,164.576ZM378.737,325.9a127.89,127.89,0,0,1-39.984,32.876,158.319,158.319,0,0,0,26.187-36.25c10.059-19.272,15.729-39.852,18.07-61.381.171-1.565-.682-4.158-1.82-4.714-1.409-.688-3.854-.229-5.438.562-28.452,14.2-61.026,8.487-81.542-15.269-17.6-20.383-21.825-43.984-11.816-68.912,10.053-25.037,29.4-39.293,56.418-41.847,25.03-2.365,44.461,7.847,58.451,28.487,9.66,14.252,14.791,30.3,16.545,47.244C418.409,251.145,406.877,291.049,378.737,325.9Z"
    transform="translate(-78.263 -122.476)" />
</svg>