<svg width="55" height="55" viewBox="0 0 55 55" fill="none" xmlns="http://www.w3.org/2000/svg">
<g clip-path="url(#clip0_582_106)">
<path d="M29.8276 12.2836V11.2036V10.6636L34.6867 4.90363C34.8067 4.78363 34.8667 4.60363 34.8667 4.36363C34.8667 4.12363 34.8067 3.94363 34.6867 3.82363L31.2673 0.403631C31.1473 0.283631 30.9674 0.223631 30.7274 0.223631H23.8887C23.6487 0.223631 23.4688 0.283631 23.3488 0.403631L19.9294 3.82363C19.8094 3.94363 19.7495 4.12363 19.7495 4.36363C19.7495 4.60363 19.8094 4.78363 19.9294 4.90363L24.7885 10.6636V12.2836C21.3092 12.6436 18.1597 13.8136 15.3403 15.7936C12.5208 17.7736 10.3012 20.2636 8.6815 23.2636C7.0618 26.2636 6.25195 29.5636 6.25195 33.1636C6.25195 37.0036 7.18178 40.5136 9.04144 43.6936C10.9011 46.8736 13.4506 49.4236 16.69 51.3436C19.9294 53.2636 23.4688 54.2236 27.3081 54.2236C31.1473 54.2236 34.6867 53.2636 37.9261 51.3436C41.1655 49.4236 43.715 46.8736 45.5747 43.6936C47.4343 40.5136 48.3642 37.0036 48.3642 33.1636C48.3642 29.5636 47.5543 26.2636 45.9346 23.2636C44.3149 20.2636 42.0953 17.7736 39.2758 15.7936C36.4564 13.8136 33.3069 12.6436 29.8276 12.2836ZM24.2486 1.84363H30.3675L32.1672 3.64363H22.449L24.2486 1.84363ZM22.269 5.26363H32.3471L28.9278 9.22363C28.4478 8.86363 27.9079 8.68363 27.3081 8.68363C26.7082 8.68363 26.1683 8.86363 25.6884 9.22363L22.269 5.26363ZM28.2079 11.2036V12.1036H26.4082V11.2036C26.4082 10.9636 26.4982 10.7536 26.6782 10.5736C26.8581 10.3936 27.0681 10.3036 27.3081 10.3036C27.548 10.3036 27.758 10.3936 27.9379 10.5736C28.1179 10.7536 28.2079 10.9636 28.2079 11.2036ZM27.3081 52.6036C23.8287 52.6036 20.5893 51.7336 17.5899 49.9936C14.5904 48.2536 12.2208 45.8836 10.4812 42.8836C8.74149 39.8836 7.87165 36.6436 7.87165 33.1636C7.87165 29.6836 8.74149 26.4436 10.4812 23.4436C12.2208 20.4436 14.5904 18.0736 17.5899 16.3336C20.5893 14.5936 23.8287 13.7236 27.3081 13.7236C30.7874 13.7236 34.0268 14.5936 37.0263 16.3336C40.0257 18.0736 42.3953 20.4436 44.1349 23.4436C45.8746 26.4436 46.7445 29.6836 46.7445 33.1636C46.7445 36.6436 45.8746 39.8836 44.1349 42.8836C42.3953 45.8836 40.0257 48.2536 37.0263 49.9936C34.0268 51.7336 30.7874 52.6036 27.3081 52.6036ZM38.466 19.4836C36.7863 18.0436 34.9266 16.9936 32.887 16.3336C30.8474 15.6736 28.7178 15.4036 26.4982 15.5236C24.2786 15.6436 22.149 16.1236 20.1094 16.9636C18.0698 17.8036 16.2701 19.0036 14.7104 20.5636C13.1507 22.1236 11.9509 23.9236 11.1111 25.9636C10.2712 28.0036 9.7913 30.1336 9.67132 32.3536C9.55134 34.5736 9.82129 36.7036 10.4812 38.7436C11.141 40.7836 12.1909 42.6436 13.6306 44.3236C13.7506 44.5636 13.9305 44.6836 14.1705 44.6836C14.4104 44.6836 14.5904 44.6236 14.7104 44.5036C14.8304 44.3836 14.9203 44.2036 14.9803 43.9636C15.0403 43.7236 15.0103 43.5436 14.8904 43.4236C13.5706 41.8636 12.6108 40.1236 12.0109 38.2036C11.411 36.2836 11.141 34.3336 11.201 32.3536C11.261 30.3736 11.7109 28.4536 12.5508 26.5936C13.3906 24.7336 14.5304 23.1136 15.9702 21.7336C17.4099 20.3536 19.0296 19.2436 20.8293 18.4036C22.6289 17.5636 24.5186 17.1136 26.4982 17.0536C28.4778 16.9936 30.4275 17.2636 32.3471 17.8636C34.2668 18.4636 36.0064 19.4236 37.5662 20.7436C37.6861 20.8636 37.8661 20.8936 38.1061 20.8336C38.346 20.7736 38.526 20.6836 38.646 20.5636C38.7659 20.4436 38.8259 20.2636 38.8259 20.0236C38.8259 19.7836 38.7059 19.6036 38.466 19.4836ZM40.9855 22.0036C40.8655 21.7636 40.6856 21.6436 40.4456 21.6436C40.2057 21.6436 40.0257 21.7036 39.9057 21.8236C39.7857 21.9436 39.6958 22.1236 39.6358 22.3636C39.5758 22.6036 39.6058 22.7836 39.7258 22.9036C41.0455 24.4636 42.0053 26.1736 42.6052 28.0336C43.2051 29.8936 43.4751 31.8436 43.4151 33.8836C43.3551 35.9236 42.9052 37.8436 42.0653 39.6436C41.2255 41.4436 40.0857 43.0636 38.646 44.5036C37.2062 45.9436 35.5865 47.0836 33.7869 47.9236C31.9872 48.7636 30.0975 49.2136 28.1179 49.2736C26.1383 49.3336 24.1886 49.0636 22.269 48.4636C20.3493 47.8636 18.6097 46.9036 17.05 45.5836C16.93 45.4636 16.75 45.4036 16.5101 45.4036C16.2701 45.4036 16.0901 45.4936 15.9702 45.6736C15.8502 45.8536 15.7902 46.0636 15.7902 46.3036C15.7902 46.5436 15.9102 46.7236 16.1501 46.8436C19.3895 49.4836 23.1088 50.8036 27.3081 50.8036H28.2079C30.3675 50.6836 32.4671 50.1736 34.5067 49.2736C36.5463 48.3736 38.346 47.1436 39.9057 45.5836C41.4654 44.0236 42.6652 42.2536 43.5051 40.2736C44.3449 38.2936 44.8248 36.1936 44.9448 33.9736C45.0648 31.7536 44.7948 29.6236 44.1349 27.5836C43.4751 25.5436 42.4253 23.6836 40.9855 22.0036Z" fill="#DB7137"/>
</g>
<defs>
<clipPath id="clip0_582_106">
<rect width="54.01" height="54" fill="white" transform="matrix(1 0 0 -1 0.302734 54.2236)"/>
</clipPath>
</defs>
</svg>
