<svg width="53" height="53" viewBox="0 0 53 53" fill="none" xmlns="http://www.w3.org/2000/svg">
<g clip-path="url(#clip0_582_415)">
<path d="M51.5257 7.36545C51.5257 7.01878 51.3524 6.78767 51.0058 6.67212L26.5705 0.0854496C26.455 0.0854496 26.3394 0.0854496 26.2239 0.0854496L1.7886 6.67212C1.442 6.78767 1.2687 7.01878 1.2687 7.36545C1.15317 8.63656 1.21094 10.3121 1.442 12.3921C1.7886 16.321 2.53957 20.1921 3.6949 24.0054C5.4279 29.4366 7.8541 34.3477 10.9735 38.7388C14.9016 44.1699 19.9273 48.561 26.0506 51.9121L26.3972 52.0854L26.7438 51.9121C32.8671 48.7921 37.8928 44.5166 41.8209 39.0854C44.9403 34.8099 47.3665 29.8988 49.0995 24.3521C50.2548 20.5388 51.0058 16.6099 51.3524 12.5654C51.5835 10.3699 51.6412 8.63656 51.5257 7.36545ZM47.7131 24.0054C45.9801 29.321 43.6117 34.0588 40.6078 38.2188C37.0263 43.0721 32.5205 47.001 27.0904 50.0054V46.1921C34.1379 41.801 39.3369 35.6188 42.6874 27.6454C44.8825 22.4454 46.2112 16.9566 46.6733 11.1788C46.6733 10.7166 46.4422 10.4277 45.9801 10.3121L44.4204 9.96545C44.3049 9.84989 44.1605 9.84989 43.9872 9.96545C43.8139 10.081 43.6983 10.2543 43.6406 10.4854C43.5828 10.7166 43.5828 10.9188 43.6406 11.0921C43.6983 11.2654 43.8427 11.3521 44.0738 11.3521L45.1136 11.6988C44.6515 17.1299 43.3806 22.2721 41.301 27.1254C38.0661 34.6366 33.0981 40.5299 26.3972 44.8054L24.4909 43.4188C24.3754 43.3032 24.2021 43.2454 23.971 43.2454C23.7399 43.2454 23.5666 43.3321 23.4511 43.5054C23.3356 43.6788 23.2778 43.881 23.2778 44.1121C23.2778 44.3432 23.3933 44.5166 23.6244 44.6321L25.704 46.0188V50.0054C20.2739 46.7699 15.7681 42.7254 12.1866 37.8721C9.18274 33.7121 6.8143 28.9743 5.0813 23.6588C4.15704 20.4232 3.46384 17.0721 3.0017 13.6054C2.77064 11.5254 2.6551 9.61878 2.6551 7.88545L25.704 1.81878V5.28545L6.8143 10.3121C6.35217 10.4277 6.1211 10.7166 6.1211 11.1788C6.4677 15.2232 7.21867 19.1521 8.374 22.9654C10.9157 30.9388 15.1327 37.4677 21.0249 42.5521C21.1404 42.6677 21.3137 42.7254 21.5448 42.7254C21.7759 42.7254 21.9492 42.6388 22.0647 42.4654C22.1802 42.2921 22.238 42.0899 22.238 41.8588C22.238 41.6277 22.1802 41.4543 22.0647 41.3388C16.4036 36.4854 12.3599 30.1877 9.9337 22.4454C8.77837 18.9788 8.0274 15.3966 7.6808 11.6988L26.3972 6.67212L40.7811 10.4854C41.0122 10.601 41.2144 10.601 41.3877 10.4854C41.561 10.3699 41.6765 10.1966 41.7343 9.96545C41.792 9.73434 41.7631 9.53212 41.6476 9.35878C41.5321 9.18545 41.3588 9.09878 41.1277 9.09878L27.0904 5.28545V1.81878L50.1393 7.88545C50.1393 9.73434 50.0238 11.6988 49.7927 13.7788C49.3306 17.2454 48.6374 20.6543 47.7131 24.0054ZM37.835 17.9388C37.3729 17.4766 36.8241 17.2454 36.1887 17.2454C35.5532 17.2454 35.0044 17.4766 34.5423 17.9388L24.8375 27.6454L19.4652 22.2721C19.0031 21.8099 18.4543 21.5788 17.8189 21.5788C17.1834 21.5788 16.6058 21.8099 16.0859 22.2721C15.566 22.7343 15.306 23.3121 15.306 24.0054C15.306 24.6988 15.5948 25.2766 16.1725 25.7388L23.1045 32.6721C23.5666 33.1343 24.1154 33.3654 24.7509 33.3654C25.3863 33.3654 25.9351 33.1343 26.3972 32.6721L37.835 21.2321C38.2971 20.7699 38.5282 20.221 38.5282 19.5854C38.5282 18.9499 38.2971 18.401 37.835 17.9388ZM36.7952 20.1921L25.3574 31.6321C25.2419 31.7477 25.0686 31.8054 24.8375 31.8054C24.6064 31.8054 24.3754 31.7477 24.1443 31.6321L17.2123 24.5254C16.9812 24.4099 16.8657 24.2366 16.8657 24.0054C16.8657 23.7743 16.9524 23.5721 17.1257 23.3988C17.299 23.2254 17.5011 23.1388 17.7322 23.1388C17.9633 23.1388 18.1943 23.1966 18.4254 23.3121L24.1443 29.2054C24.3754 29.321 24.5776 29.3788 24.7509 29.3788C24.9242 29.3788 25.1263 29.321 25.3574 29.2054L35.5821 18.9788C35.6976 18.7477 35.8709 18.6321 36.102 18.6321C36.3331 18.6321 36.5353 18.7188 36.7086 18.8921C36.8819 19.0654 36.9685 19.2966 36.9685 19.5854C36.9685 19.8743 36.9107 20.0766 36.7952 20.1921Z" fill="#DB7137"/>
</g>
<defs>
<clipPath id="clip0_582_415">
<rect width="52.01" height="52" fill="white" transform="matrix(1 0 0 -1 0.392578 52.0854)"/>
</clipPath>
</defs>
</svg>
